<svg width="242" height="205" viewBox="0 0 242 205" fill="none" xmlns="http://www.w3.org/2000/svg">
<path fill-rule="evenodd" clip-rule="evenodd" d="M0 204H242V205H0V204Z" fill="black" fill-opacity="0.12"/>
<path d="M20.22 152.122C21.54 152.109 22.7733 152.062 23.92 151.982C25.0667 151.902 26.24 151.756 27.44 151.542L27.68 153.682C26.9867 153.802 26.3 153.902 25.62 153.982C24.9533 154.062 24.2733 154.129 23.58 154.182C22.9 154.222 22.1933 154.256 21.46 154.282C20.74 154.296 19.98 154.302 19.18 154.302H17.62V146.702H23.46V143.762H17.6V141.662H26.06V148.782H20.22V152.122ZM33.96 149.222H31.32V158.562H28.68V140.082H31.32V147.042H33.96V149.222ZM49.9184 140.082V158.562H47.2784V140.082H49.9184ZM40.0184 141.382C40.7118 141.382 41.3518 141.536 41.9384 141.842C42.5384 142.149 43.0518 142.589 43.4784 143.162C43.9051 143.722 44.2384 144.409 44.4784 145.222C44.7318 146.022 44.8584 146.929 44.8584 147.942C44.8584 148.956 44.7318 149.869 44.4784 150.682C44.2384 151.496 43.9051 152.189 43.4784 152.762C43.0518 153.336 42.5384 153.776 41.9384 154.082C41.3518 154.389 40.7118 154.542 40.0184 154.542C39.3251 154.542 38.6784 154.389 38.0784 154.082C37.4918 153.776 36.9851 153.336 36.5584 152.762C36.1318 152.189 35.7918 151.496 35.5384 150.682C35.2984 149.869 35.1784 148.956 35.1784 147.942C35.1784 146.929 35.2984 146.022 35.5384 145.222C35.7918 144.409 36.1318 143.722 36.5584 143.162C36.9851 142.589 37.4918 142.149 38.0784 141.842C38.6784 141.536 39.3251 141.382 40.0184 141.382ZM40.0184 143.762C39.3384 143.762 38.7851 144.116 38.3584 144.822C37.9318 145.529 37.7184 146.569 37.7184 147.942C37.7184 149.316 37.9318 150.362 38.3584 151.082C38.7851 151.789 39.3384 152.142 40.0184 152.142C40.6984 152.142 41.2518 151.789 41.6784 151.082C42.1051 150.362 42.3184 149.316 42.3184 147.942C42.3184 146.569 42.1051 145.529 41.6784 144.822C41.2518 144.116 40.6984 143.762 40.0184 143.762ZM55.2169 145.942C55.2169 146.702 55.4369 147.296 55.8769 147.722C56.3169 148.136 56.8702 148.342 57.5369 148.342C58.2169 148.342 58.7769 148.136 59.2169 147.722C59.6702 147.296 59.8969 146.702 59.8969 145.942C59.8969 145.182 59.6702 144.589 59.2169 144.162C58.7769 143.722 58.2169 143.502 57.5369 143.502C56.8702 143.502 56.3169 143.722 55.8769 144.162C55.4369 144.589 55.2169 145.182 55.2169 145.942ZM62.2769 147.062C62.1569 147.596 61.9502 148.082 61.6569 148.522C61.3769 148.962 61.0302 149.342 60.6169 149.662C60.2035 149.969 59.7302 150.209 59.1969 150.382C58.6769 150.556 58.1235 150.642 57.5369 150.642C56.8569 150.642 56.2235 150.529 55.6369 150.302C55.0502 150.062 54.5369 149.736 54.0969 149.322C53.6569 148.896 53.3102 148.396 53.0569 147.822C52.8169 147.249 52.6969 146.622 52.6969 145.942C52.6969 145.262 52.8169 144.636 53.0569 144.062C53.3102 143.476 53.6569 142.976 54.0969 142.562C54.5369 142.136 55.0502 141.809 55.6369 141.582C56.2235 141.342 56.8569 141.222 57.5369 141.222C58.1369 141.222 58.6969 141.316 59.2169 141.502C59.7502 141.676 60.2235 141.929 60.6369 142.262C61.0635 142.582 61.4169 142.969 61.6969 143.422C61.9902 143.876 62.1969 144.382 62.3169 144.942H65.2169V140.122H67.8569V153.562H65.2169V147.062H62.2769ZM68.2769 156.102V158.202H55.7169V152.262H58.3569V156.102H68.2769Z" fill="white"/>
<path d="M22.2637 177.747C22.2637 177.405 22.1338 177.141 21.874 176.954C21.6188 176.763 21.1699 176.599 20.5273 176.462C19.8893 176.325 19.3812 176.161 19.0029 175.97C18.6292 175.778 18.3512 175.55 18.1689 175.286C17.9912 175.022 17.9023 174.707 17.9023 174.343C17.9023 173.737 18.1576 173.224 18.668 172.805C19.1829 172.385 19.8392 172.176 20.6367 172.176C21.4753 172.176 22.1543 172.392 22.6738 172.825C23.1979 173.258 23.46 173.812 23.46 174.486H22.1885C22.1885 174.14 22.0404 173.841 21.7441 173.591C21.4525 173.34 21.0833 173.215 20.6367 173.215C20.1764 173.215 19.8164 173.315 19.5566 173.516C19.2969 173.716 19.167 173.978 19.167 174.302C19.167 174.607 19.2878 174.837 19.5293 174.992C19.7708 175.147 20.2061 175.295 20.835 175.437C21.4684 175.578 21.9811 175.746 22.373 175.942C22.765 176.138 23.0544 176.375 23.2412 176.653C23.4326 176.927 23.5283 177.262 23.5283 177.658C23.5283 178.319 23.264 178.85 22.7354 179.251C22.2067 179.647 21.5208 179.846 20.6777 179.846C20.0853 179.846 19.5612 179.741 19.1055 179.531C18.6497 179.322 18.292 179.03 18.0322 178.656C17.777 178.278 17.6494 177.87 17.6494 177.433H18.9141C18.9368 177.856 19.1055 178.194 19.4199 178.444C19.7389 178.69 20.1582 178.813 20.6777 178.813C21.1562 178.813 21.5391 178.718 21.8262 178.526C22.1178 178.33 22.2637 178.071 22.2637 177.747ZM29.4521 179.709H28.1807V171.28L25.6309 172.217V171.068L29.2539 169.708H29.4521V179.709ZM39.4434 172.354C39.4434 172.85 39.3112 173.292 39.0469 173.68C38.7871 174.067 38.4339 174.37 37.9873 174.589C38.5068 174.812 38.917 175.138 39.2178 175.566C39.5231 175.995 39.6758 176.48 39.6758 177.022C39.6758 177.884 39.3841 178.57 38.8008 179.08C38.222 179.59 37.4587 179.846 36.5107 179.846C35.5537 179.846 34.7858 179.59 34.207 179.08C33.6328 178.565 33.3457 177.879 33.3457 177.022C33.3457 176.485 33.4915 175.999 33.7832 175.566C34.0794 175.133 34.4873 174.805 35.0068 174.582C34.5648 174.363 34.2161 174.06 33.9609 173.673C33.7057 173.285 33.5781 172.846 33.5781 172.354C33.5781 171.515 33.847 170.85 34.3848 170.357C34.9225 169.865 35.6312 169.619 36.5107 169.619C37.3857 169.619 38.0921 169.865 38.6299 170.357C39.1722 170.85 39.4434 171.515 39.4434 172.354ZM38.4111 176.995C38.4111 176.439 38.2334 175.986 37.8779 175.635C37.527 175.284 37.0667 175.108 36.4971 175.108C35.9274 175.108 35.4694 175.282 35.123 175.628C34.7812 175.974 34.6104 176.43 34.6104 176.995C34.6104 177.56 34.7767 178.005 35.1094 178.328C35.4466 178.652 35.9137 178.813 36.5107 178.813C37.1032 178.813 37.568 178.652 37.9053 178.328C38.2425 178 38.4111 177.556 38.4111 176.995ZM36.5107 170.658C36.014 170.658 35.6107 170.813 35.3008 171.123C34.9954 171.428 34.8428 171.845 34.8428 172.374C34.8428 172.88 34.9932 173.29 35.2939 173.604C35.5993 173.914 36.0049 174.069 36.5107 174.069C37.0166 174.069 37.4199 173.914 37.7207 173.604C38.026 173.29 38.1787 172.88 38.1787 172.374C38.1787 171.868 38.0215 171.456 37.707 171.137C37.3926 170.818 36.9938 170.658 36.5107 170.658ZM47.7598 175.464C47.7598 176.945 47.5068 178.046 47.001 178.766C46.4951 179.486 45.7044 179.846 44.6289 179.846C43.5671 179.846 42.7809 179.495 42.2705 178.793C41.7601 178.087 41.4958 177.034 41.4775 175.635V173.946C41.4775 172.483 41.7305 171.396 42.2363 170.686C42.7422 169.975 43.5352 169.619 44.6152 169.619C45.6862 169.619 46.4746 169.963 46.9805 170.651C47.4863 171.335 47.7461 172.392 47.7598 173.823V175.464ZM46.4951 173.734C46.4951 172.663 46.3447 171.884 46.0439 171.396C45.7432 170.904 45.2669 170.658 44.6152 170.658C43.9681 170.658 43.4964 170.902 43.2002 171.39C42.904 171.877 42.7513 172.627 42.7422 173.639V175.662C42.7422 176.738 42.8971 177.533 43.207 178.048C43.5215 178.558 43.9954 178.813 44.6289 178.813C45.2533 178.813 45.7158 178.572 46.0166 178.089C46.3219 177.606 46.4814 176.845 46.4951 175.806V173.734ZM51.4688 174.117H52.4189C53.016 174.108 53.4854 173.951 53.8271 173.646C54.1689 173.34 54.3398 172.928 54.3398 172.408C54.3398 171.242 53.7588 170.658 52.5967 170.658C52.0498 170.658 51.6123 170.815 51.2842 171.13C50.9606 171.44 50.7988 171.852 50.7988 172.367H49.5342C49.5342 171.579 49.8213 170.925 50.3955 170.405C50.9743 169.881 51.708 169.619 52.5967 169.619C53.5355 169.619 54.2715 169.868 54.8047 170.364C55.3379 170.861 55.6045 171.551 55.6045 172.436C55.6045 172.868 55.4632 173.288 55.1807 173.693C54.9027 174.099 54.5221 174.402 54.0391 174.603C54.5859 174.776 55.0075 175.063 55.3037 175.464C55.6045 175.865 55.7549 176.355 55.7549 176.934C55.7549 177.827 55.4632 178.535 54.8799 179.06C54.2965 179.584 53.5378 179.846 52.6035 179.846C51.6693 179.846 50.9082 179.593 50.3203 179.087C49.737 178.581 49.4453 177.913 49.4453 177.084H50.7168C50.7168 177.608 50.8877 178.027 51.2295 178.342C51.5713 178.656 52.0293 178.813 52.6035 178.813C53.2142 178.813 53.6813 178.654 54.0049 178.335C54.3285 178.016 54.4902 177.558 54.4902 176.961C54.4902 176.382 54.3125 175.938 53.957 175.628C53.6016 175.318 53.0889 175.159 52.4189 175.149H51.4688V174.117ZM61.8975 179.709H60.626V171.28L58.0762 172.217V171.068L61.6992 169.708H61.8975V179.709ZM76.9062 176.277C76.8516 177.38 76.5781 178.251 76.0859 178.889C75.5938 179.527 74.9352 179.846 74.1104 179.846C73.2581 179.846 72.7113 179.463 72.4697 178.697C72.2236 179.085 71.9411 179.374 71.6221 179.565C71.3076 179.752 70.9818 179.846 70.6445 179.846C69.9974 179.846 69.5075 179.581 69.1748 179.053C68.8421 178.524 68.7191 177.793 68.8057 176.858C68.874 176.106 69.0449 175.437 69.3184 174.849C69.5964 174.256 69.9518 173.791 70.3848 173.454C70.8223 173.117 71.2803 172.948 71.7588 172.948C72.1279 172.948 72.4583 172.998 72.75 173.099C73.0417 173.194 73.3698 173.386 73.7344 173.673L73.3789 177.46C73.2923 178.513 73.584 179.039 74.2539 179.039C74.7689 179.039 75.1859 178.784 75.5049 178.273C75.8239 177.763 75.9971 177.098 76.0244 176.277C76.111 174.505 75.7806 173.153 75.0332 172.224C74.2904 171.294 73.1579 170.829 71.6357 170.829C70.7197 170.829 69.9062 171.057 69.1953 171.513C68.4844 171.964 67.9238 172.618 67.5137 173.475C67.1035 174.331 66.8734 175.32 66.8232 176.441C66.7686 177.572 66.9053 178.554 67.2334 179.388C67.5615 180.217 68.0605 180.851 68.7305 181.288C69.4049 181.73 70.2184 181.951 71.1709 181.951C71.5811 181.951 71.9912 181.901 72.4014 181.801C72.8161 181.701 73.1602 181.571 73.4336 181.411L73.6865 182.197C73.404 182.375 73.028 182.521 72.5586 182.635C72.0938 182.749 71.6221 182.806 71.1436 182.806C70.0042 182.806 69.0244 182.548 68.2041 182.033C67.3838 181.523 66.7686 180.785 66.3584 179.818C65.9528 178.857 65.7773 177.731 65.832 176.441C65.8867 175.188 66.167 174.062 66.6729 173.064C67.1787 172.062 67.8646 171.289 68.7305 170.747C69.5964 170.2 70.5739 169.927 71.6631 169.927C72.7979 169.927 73.7708 170.182 74.582 170.692C75.3932 171.203 75.9971 171.939 76.3936 172.9C76.79 173.862 76.9609 174.988 76.9062 176.277ZM69.8926 176.858C69.8288 177.506 69.888 178.002 70.0703 178.349C70.2572 178.695 70.5511 178.868 70.9521 178.868C71.2256 178.868 71.4876 178.752 71.7383 178.52C71.9935 178.287 72.2031 177.954 72.3672 177.521L72.374 177.46L72.6885 174.021C72.4333 173.889 72.1598 173.823 71.8682 173.823C71.335 173.823 70.8929 174.094 70.542 174.637C70.1956 175.179 69.9792 175.92 69.8926 176.858ZM78.5098 175.949C78.5098 174.796 78.7764 173.88 79.3096 173.201C79.8428 172.518 80.5492 172.176 81.4287 172.176C82.3311 172.176 83.0352 172.495 83.541 173.133L83.6025 172.312H84.7578V179.531C84.7578 180.488 84.473 181.243 83.9033 181.794C83.3382 182.345 82.5771 182.621 81.6201 182.621C81.0869 182.621 80.5651 182.507 80.0547 182.279C79.5443 182.051 79.1546 181.739 78.8857 181.343L79.542 180.584C80.0843 181.254 80.7474 181.589 81.5312 181.589C82.1465 181.589 82.625 181.416 82.9668 181.069C83.3132 180.723 83.4863 180.235 83.4863 179.606V178.971C82.9805 179.554 82.29 179.846 81.415 179.846C80.5492 179.846 79.8473 179.497 79.3096 178.8C78.7764 178.103 78.5098 177.152 78.5098 175.949ZM79.7812 176.093C79.7812 176.927 79.9521 177.583 80.2939 178.062C80.6357 178.535 81.1143 178.772 81.7295 178.772C82.527 178.772 83.1126 178.41 83.4863 177.686V174.309C83.099 173.602 82.5179 173.249 81.7432 173.249C81.1279 173.249 80.6471 173.488 80.3008 173.967C79.9544 174.445 79.7812 175.154 79.7812 176.093ZM91.2285 177.747C91.2285 177.405 91.0986 177.141 90.8389 176.954C90.5837 176.763 90.1348 176.599 89.4922 176.462C88.8542 176.325 88.346 176.161 87.9678 175.97C87.5941 175.778 87.3161 175.55 87.1338 175.286C86.9561 175.022 86.8672 174.707 86.8672 174.343C86.8672 173.737 87.1224 173.224 87.6328 172.805C88.1478 172.385 88.804 172.176 89.6016 172.176C90.4401 172.176 91.1191 172.392 91.6387 172.825C92.1628 173.258 92.4248 173.812 92.4248 174.486H91.1533C91.1533 174.14 91.0052 173.841 90.709 173.591C90.4173 173.34 90.0482 173.215 89.6016 173.215C89.1413 173.215 88.7812 173.315 88.5215 173.516C88.2617 173.716 88.1318 173.978 88.1318 174.302C88.1318 174.607 88.2526 174.837 88.4941 174.992C88.7357 175.147 89.1709 175.295 89.7998 175.437C90.4333 175.578 90.946 175.746 91.3379 175.942C91.7298 176.138 92.0192 176.375 92.2061 176.653C92.3975 176.927 92.4932 177.262 92.4932 177.658C92.4932 178.319 92.2288 178.85 91.7002 179.251C91.1715 179.647 90.4857 179.846 89.6426 179.846C89.0501 179.846 88.526 179.741 88.0703 179.531C87.6146 179.322 87.2568 179.03 86.9971 178.656C86.7419 178.278 86.6143 177.87 86.6143 177.433H87.8789C87.9017 177.856 88.0703 178.194 88.3848 178.444C88.7038 178.69 89.123 178.813 89.6426 178.813C90.1211 178.813 90.5039 178.718 90.791 178.526C91.0827 178.33 91.2285 178.071 91.2285 177.747ZM95.5801 172.312L95.6143 173.133C96.1566 172.495 96.888 172.176 97.8086 172.176C98.8431 172.176 99.5472 172.572 99.9209 173.365C100.167 173.01 100.486 172.723 100.878 172.504C101.274 172.285 101.742 172.176 102.279 172.176C103.902 172.176 104.727 173.035 104.754 174.753V179.709H103.489V174.828C103.489 174.299 103.368 173.905 103.127 173.646C102.885 173.381 102.48 173.249 101.91 173.249C101.441 173.249 101.051 173.39 100.741 173.673C100.431 173.951 100.251 174.327 100.201 174.801V179.709H98.9297V174.862C98.9297 173.787 98.4033 173.249 97.3506 173.249C96.5212 173.249 95.9538 173.602 95.6484 174.309V179.709H94.3838V172.312H95.5801ZM106.945 179.046C106.945 178.827 107.009 178.645 107.137 178.499C107.269 178.353 107.465 178.28 107.725 178.28C107.984 178.28 108.18 178.353 108.312 178.499C108.449 178.645 108.518 178.827 108.518 179.046C108.518 179.256 108.449 179.431 108.312 179.572C108.18 179.714 107.984 179.784 107.725 179.784C107.465 179.784 107.269 179.714 107.137 179.572C107.009 179.431 106.945 179.256 106.945 179.046ZM112.124 173.208C112.685 172.52 113.414 172.176 114.312 172.176C115.875 172.176 116.663 173.058 116.677 174.821V179.709H115.412V174.814C115.408 174.281 115.285 173.887 115.043 173.632C114.806 173.377 114.435 173.249 113.929 173.249C113.519 173.249 113.159 173.358 112.849 173.577C112.539 173.796 112.297 174.083 112.124 174.438V179.709H110.859V169.209H112.124V173.208ZM123.127 177.747C123.127 177.405 122.997 177.141 122.737 176.954C122.482 176.763 122.033 176.599 121.391 176.462C120.753 176.325 120.244 176.161 119.866 175.97C119.493 175.778 119.215 175.55 119.032 175.286C118.854 175.022 118.766 174.707 118.766 174.343C118.766 173.737 119.021 173.224 119.531 172.805C120.046 172.385 120.702 172.176 121.5 172.176C122.339 172.176 123.018 172.392 123.537 172.825C124.061 173.258 124.323 173.812 124.323 174.486H123.052C123.052 174.14 122.904 173.841 122.607 173.591C122.316 173.34 121.947 173.215 121.5 173.215C121.04 173.215 120.68 173.315 120.42 173.516C120.16 173.716 120.03 173.978 120.03 174.302C120.03 174.607 120.151 174.837 120.393 174.992C120.634 175.147 121.069 175.295 121.698 175.437C122.332 175.578 122.844 175.746 123.236 175.942C123.628 176.138 123.918 176.375 124.104 176.653C124.296 176.927 124.392 177.262 124.392 177.658C124.392 178.319 124.127 178.85 123.599 179.251C123.07 179.647 122.384 179.846 121.541 179.846C120.949 179.846 120.424 179.741 119.969 179.531C119.513 179.322 119.155 179.03 118.896 178.656C118.64 178.278 118.513 177.87 118.513 177.433H119.777C119.8 177.856 119.969 178.194 120.283 178.444C120.602 178.69 121.021 178.813 121.541 178.813C122.02 178.813 122.402 178.718 122.689 178.526C122.981 178.33 123.127 178.071 123.127 177.747ZM126.316 179.046C126.316 178.827 126.38 178.645 126.508 178.499C126.64 178.353 126.836 178.28 127.096 178.28C127.355 178.28 127.551 178.353 127.684 178.499C127.82 178.645 127.889 178.827 127.889 179.046C127.889 179.256 127.82 179.431 127.684 179.572C127.551 179.714 127.355 179.784 127.096 179.784C126.836 179.784 126.64 179.714 126.508 179.572C126.38 179.431 126.316 179.256 126.316 179.046ZM132.295 176.284L131.502 177.111V179.709H130.237V169.209H131.502V175.56L132.179 174.746L134.482 172.312H136.021L133.143 175.402L136.355 179.709H134.872L132.295 176.284ZM141.151 173.447C140.96 173.415 140.753 173.399 140.529 173.399C139.7 173.399 139.137 173.753 138.841 174.459V179.709H137.576V172.312H138.807L138.827 173.167C139.242 172.506 139.83 172.176 140.591 172.176C140.837 172.176 141.024 172.208 141.151 172.271V173.447Z" fill="white"/>
<g clip-path="url(#clip0)">
<path d="M38.3355 104H19.6694C18.2028 104 17.0028 105.2 17.0028 106.667V125.333C17.0028 126.799 18.2028 127.999 19.6694 127.999H38.3355C39.8021 127.999 41.0021 126.799 41.0021 125.333V106.667C41.0021 105.2 39.8021 104 38.3355 104ZM33.0023 114C33.0023 115.107 32.1081 116 31.0024 116C32.1081 116 33.0023 116.894 33.0023 118V120C33.0023 121.48 31.8024 122.666 30.3357 122.666H25.0026V120H30.3357V117.333H27.6692V114.666H30.3357V112H25.0026V109.333H30.3357C31.8024 109.333 33.0023 110.519 33.0023 112V114Z" fill="#F1C40F"/>
</g>
<defs>
<clipPath id="clip0">
<rect x="17" y="104" width="24" height="24" fill="white"/>
</clipPath>
</defs>
</svg>
