<svg width="180" height="38" viewBox="0 0 180 38" fill="none" xmlns="http://www.w3.org/2000/svg">
<path d="M11.624 11.328H10.312V0.848H11.624V11.328ZM1.464 5.36C1.464 5.712 1.52267 6.03733 1.64 6.336C1.768 6.63467 1.93867 6.89067 2.152 7.104C2.376 7.31733 2.63733 7.48267 2.936 7.6C3.23467 7.71733 3.56 7.776 3.912 7.776C4.264 7.776 4.58933 7.71733 4.888 7.6C5.19733 7.48267 5.464 7.31733 5.688 7.104C5.912 6.89067 6.08267 6.63467 6.2 6.336C6.328 6.03733 6.392 5.712 6.392 5.36C6.392 5.008 6.328 4.688 6.2 4.4C6.08267 4.112 5.912 3.86133 5.688 3.648C5.464 3.43467 5.19733 3.26933 4.888 3.152C4.58933 3.03467 4.264 2.976 3.912 2.976C3.56 2.976 3.23467 3.03467 2.936 3.152C2.63733 3.26933 2.376 3.43467 2.152 3.648C1.93867 3.86133 1.768 4.112 1.64 4.4C1.52267 4.688 1.464 5.008 1.464 5.36ZM7.672 5.36C7.672 5.88267 7.576 6.36267 7.384 6.8C7.192 7.22667 6.92533 7.6 6.584 7.92C6.25333 8.22933 5.85867 8.47467 5.4 8.656C4.94133 8.82667 4.44533 8.912 3.912 8.912C3.37867 8.912 2.88267 8.82667 2.424 8.656C1.976 8.47467 1.58133 8.22933 1.24 7.92C0.909333 7.6 0.648 7.22667 0.456 6.8C0.274667 6.36267 0.184 5.88267 0.184 5.36C0.184 4.848 0.274667 4.37867 0.456 3.952C0.648 3.51467 0.909333 3.14133 1.24 2.832C1.58133 2.512 1.976 2.26667 2.424 2.096C2.88267 1.92533 3.37867 1.84 3.912 1.84C4.44533 1.84 4.94133 1.92533 5.4 2.096C5.85867 2.26667 6.25333 2.512 6.584 2.832C6.92533 3.14133 7.192 3.51467 7.384 3.952C7.576 4.37867 7.672 4.848 7.672 5.36ZM12.056 13.792V14.864H2.392V10.256H3.704V13.792H12.056ZM14.8228 5.744C15.4628 5.68 16.0708 5.55733 16.6468 5.376C17.2334 5.184 17.7508 4.95467 18.1988 4.688C18.6574 4.41067 19.0201 4.10133 19.2868 3.76C19.5641 3.408 19.7134 3.02933 19.7348 2.624H15.2868V1.568H25.8948V2.624H21.4308C21.4414 3.02933 21.5854 3.408 21.8628 3.76C22.1401 4.10133 22.5028 4.41067 22.9508 4.688C23.4094 4.95467 23.9268 5.184 24.5028 5.376C25.0894 5.55733 25.7028 5.68 26.3428 5.744L25.8788 6.784C25.2921 6.70933 24.7214 6.592 24.1668 6.432C23.6121 6.272 23.1001 6.06933 22.6308 5.824C22.1721 5.568 21.7614 5.28 21.3988 4.96C21.0468 4.64 20.7748 4.28267 20.5828 3.888C20.3801 4.28267 20.0974 4.64 19.7348 4.96C19.3828 5.28 18.9721 5.568 18.5028 5.824C18.0441 6.06933 17.5374 6.272 16.9828 6.432C16.4388 6.592 15.8734 6.70933 15.2868 6.784L14.8228 5.744ZM20.5668 14.128C21.6974 14.128 22.5774 13.9947 23.2068 13.728C23.8361 13.4613 24.1508 13.072 24.1508 12.56C24.1508 12.0587 23.8361 11.6747 23.2068 11.408C22.5774 11.1307 21.6974 10.992 20.5668 10.992C19.4361 10.992 18.5561 11.1307 17.9268 11.408C17.2974 11.6747 16.9828 12.0587 16.9828 12.56C16.9828 13.072 17.2974 13.4613 17.9268 13.728C18.5561 13.9947 19.4361 14.128 20.5668 14.128ZM20.5668 9.968C21.3348 9.968 22.0174 10.0267 22.6148 10.144C23.2228 10.2507 23.7401 10.416 24.1668 10.64C24.5934 10.864 24.9188 11.136 25.1428 11.456C25.3668 11.776 25.4788 12.144 25.4788 12.56C25.4788 12.976 25.3668 13.3493 25.1428 13.68C24.9188 14 24.5934 14.272 24.1668 14.496C23.7401 14.72 23.2228 14.8853 22.6148 14.992C22.0174 15.1093 21.3348 15.168 20.5668 15.168C19.0308 15.168 17.8254 14.944 16.9508 14.496C16.0868 14.048 15.6548 13.4027 15.6548 12.56C15.6548 11.728 16.0868 11.088 16.9508 10.64C17.8254 10.192 19.0308 9.968 20.5668 9.968ZM27.0628 7.664V8.72H14.0868V7.664H27.0628ZM36.1756 3.536H33.1676V10.288H36.1756V3.536ZM39.5196 1.152H40.7676V14.464H39.5196V7.328H37.3916V11.328H31.9356V2.496H37.3916V6.24H39.5196V1.152ZM43.6156 0.832V15.168H42.3676V0.832H43.6156ZM57.4384 8.192H56.1264V0.832H57.4384V8.192ZM47.2624 4.544C47.2624 4.85333 47.321 5.136 47.4384 5.392C47.5664 5.648 47.737 5.872 47.9504 6.064C48.1744 6.24533 48.4304 6.38933 48.7184 6.496C49.017 6.60267 49.3424 6.656 49.6944 6.656C50.0464 6.656 50.3717 6.60267 50.6704 6.496C50.969 6.38933 51.225 6.24533 51.4384 6.064C51.6517 5.872 51.817 5.648 51.9344 5.392C52.0624 5.136 52.1264 4.85333 52.1264 4.544C52.1264 4.23467 52.0624 3.952 51.9344 3.696C51.817 3.42933 51.6517 3.20533 51.4384 3.024C51.225 2.832 50.969 2.68267 50.6704 2.576C50.3717 2.46933 50.0464 2.416 49.6944 2.416C49.3424 2.416 49.017 2.46933 48.7184 2.576C48.4304 2.68267 48.1744 2.832 47.9504 3.024C47.737 3.20533 47.5664 3.42933 47.4384 3.696C47.321 3.952 47.2624 4.23467 47.2624 4.544ZM53.4064 4.544C53.4064 5.01333 53.3104 5.44533 53.1184 5.84C52.937 6.224 52.681 6.55467 52.3504 6.832C52.0197 7.10933 51.625 7.328 51.1664 7.488C50.7184 7.63733 50.2277 7.712 49.6944 7.712C49.161 7.712 48.665 7.63733 48.2064 7.488C47.7584 7.328 47.369 7.10933 47.0384 6.832C46.7077 6.55467 46.4517 6.224 46.2704 5.84C46.089 5.44533 45.9984 5.01333 45.9984 4.544C45.9984 4.064 46.089 3.632 46.2704 3.248C46.4517 2.85333 46.7077 2.51733 47.0384 2.24C47.369 1.952 47.7584 1.73333 48.2064 1.584C48.665 1.424 49.161 1.344 49.6944 1.344C50.2277 1.344 50.7184 1.424 51.1664 1.584C51.625 1.73333 52.0197 1.952 52.3504 2.24C52.681 2.51733 52.937 2.85333 53.1184 3.248C53.3104 3.632 53.4064 4.064 53.4064 4.544ZM57.9184 13.952V14.992H48.1744V11.392H56.1424V9.936H48.1424V8.896H57.4384V12.368H49.4704V13.952H57.9184ZM71.6451 0.832V15.216H70.3331V0.832H71.6451ZM64.0771 1.936C64.6105 1.936 65.1011 2.05333 65.5491 2.288C65.9971 2.52267 66.3811 2.85867 66.7011 3.296C67.0211 3.73333 67.2718 4.26133 67.4531 4.88C67.6345 5.488 67.7251 6.176 67.7251 6.944C67.7251 7.712 67.6345 8.40533 67.4531 9.024C67.2718 9.632 67.0211 10.1547 66.7011 10.592C66.3811 11.0293 65.9971 11.3653 65.5491 11.6C65.1011 11.8347 64.6105 11.952 64.0771 11.952C63.5438 11.952 63.0531 11.8347 62.6051 11.6C62.1571 11.3653 61.7731 11.0293 61.4531 10.592C61.1331 10.1547 60.8825 9.632 60.7011 9.024C60.5198 8.40533 60.4291 7.712 60.4291 6.944C60.4291 6.176 60.5198 5.488 60.7011 4.88C60.8825 4.26133 61.1331 3.73333 61.4531 3.296C61.7731 2.85867 62.1571 2.52267 62.6051 2.288C63.0531 2.05333 63.5438 1.936 64.0771 1.936ZM64.0771 3.12C63.7251 3.12 63.3998 3.21067 63.1011 3.392C62.8131 3.57333 62.5625 3.82933 62.3491 4.16C62.1358 4.49067 61.9705 4.896 61.8531 5.376C61.7358 5.84533 61.6771 6.368 61.6771 6.944C61.6771 7.53067 61.7358 8.05867 61.8531 8.528C61.9705 8.99733 62.1358 9.40267 62.3491 9.744C62.5625 10.0747 62.8131 10.3307 63.1011 10.512C63.3998 10.6933 63.7251 10.784 64.0771 10.784C64.4291 10.784 64.7491 10.6933 65.0371 10.512C65.3251 10.3307 65.5758 10.0747 65.7891 9.744C66.0025 9.40267 66.1678 8.99733 66.2851 8.528C66.4025 8.05867 66.4611 7.53067 66.4611 6.944C66.4611 6.368 66.4025 5.84533 66.2851 5.376C66.1678 4.896 66.0025 4.49067 65.7891 4.16C65.5758 3.82933 65.3251 3.57333 65.0371 3.392C64.7491 3.21067 64.4291 3.12 64.0771 3.12ZM83.19 4.496H79.126V6.64H83.19V4.496ZM84.47 7.696H77.83V1.424H79.126V3.488H83.19V1.424H84.47V7.696ZM80.582 13.984H88.902V15.024H79.302V11.44H87.078V9.968H79.254V8.928H88.374V12.416H80.582V13.984ZM90.502 3.92V5.008H88.374V8.256H87.062V0.848H88.374V3.92H90.502ZM103.173 6.592C102.629 6.496 102.09 6.35733 101.557 6.176C101.034 5.99467 100.543 5.77067 100.085 5.504C99.6261 5.23733 99.2101 4.93333 98.8368 4.592C98.4741 4.24 98.1808 3.86133 97.9568 3.456C97.7328 3.86133 97.4394 4.24 97.0768 4.592C96.7141 4.93333 96.3034 5.23733 95.8448 5.504C95.3861 5.77067 94.8901 5.99467 94.3568 6.176C93.8341 6.35733 93.3008 6.496 92.7568 6.592L92.2608 5.552C92.9008 5.46667 93.5194 5.30667 94.1168 5.072C94.7248 4.83733 95.2634 4.54933 95.7328 4.208C96.2021 3.86667 96.5754 3.48267 96.8528 3.056C97.1408 2.62933 97.2848 2.176 97.2848 1.696V1.056H98.6288V1.696C98.6288 2.176 98.7674 2.62933 99.0448 3.056C99.3328 3.48267 99.7114 3.86667 100.181 4.208C100.661 4.54933 101.199 4.83733 101.797 5.072C102.405 5.30667 103.029 5.46667 103.669 5.552L103.173 6.592ZM97.9568 14.16C99.0981 14.16 99.9781 14.0373 100.597 13.792C101.226 13.536 101.541 13.168 101.541 12.688C101.541 12.208 101.226 11.8453 100.597 11.6C99.9781 11.344 99.0981 11.216 97.9568 11.216C96.8154 11.216 95.9301 11.344 95.3008 11.6C94.6821 11.8453 94.3728 12.208 94.3728 12.688C94.3728 13.168 94.6821 13.536 95.3008 13.792C95.9301 14.0373 96.8154 14.16 97.9568 14.16ZM97.9568 10.208C99.4928 10.208 100.693 10.4213 101.557 10.848C102.431 11.2747 102.869 11.888 102.869 12.688C102.869 13.488 102.431 14.1013 101.557 14.528C100.693 14.9547 99.4928 15.168 97.9568 15.168C96.4208 15.168 95.2154 14.9547 94.3408 14.528C93.4768 14.1013 93.0448 13.488 93.0448 12.688C93.0448 11.888 93.4768 11.2747 94.3408 10.848C95.2154 10.4213 96.4208 10.208 97.9568 10.208ZM104.453 7.952V9.008H91.4768V7.952H97.3008V5.84H98.6128V7.952H104.453ZM111.108 10.896C111.801 10.864 112.489 10.8267 113.172 10.784C113.854 10.7413 114.516 10.6773 115.156 10.592L115.268 11.552C114.478 11.6693 113.678 11.7653 112.868 11.84C112.057 11.9147 111.252 11.9733 110.452 12.016C109.662 12.048 108.889 12.0693 108.132 12.08C107.374 12.0907 106.654 12.096 105.972 12.096L105.812 10.992C106.43 10.992 107.07 10.992 107.732 10.992C108.404 10.9813 109.092 10.9653 109.796 10.944V8.096H106.868V2.176H114.132V3.264H108.164V7.024H114.196V8.096H111.108V10.896ZM117.412 0.815999V15.216H116.1V0.815999H117.412ZM123.858 2.736C123.517 2.736 123.197 2.79467 122.898 2.912C122.61 3.01867 122.36 3.17333 122.146 3.376C121.933 3.57867 121.762 3.81867 121.634 4.096C121.517 4.36267 121.458 4.66133 121.458 4.992C121.458 5.32267 121.517 5.632 121.634 5.92C121.762 6.19733 121.933 6.43733 122.146 6.64C122.36 6.84267 122.61 7.00267 122.898 7.12C123.197 7.22667 123.517 7.28 123.858 7.28C124.21 7.28 124.536 7.22667 124.834 7.12C125.133 7.00267 125.389 6.84267 125.602 6.64C125.816 6.43733 125.981 6.19733 126.098 5.92C126.226 5.632 126.29 5.32267 126.29 4.992C126.29 4.66133 126.226 4.36267 126.098 4.096C125.981 3.81867 125.816 3.57867 125.602 3.376C125.389 3.17333 125.133 3.01867 124.834 2.912C124.536 2.79467 124.21 2.736 123.858 2.736ZM127.506 5.504C127.442 5.93067 127.309 6.32 127.106 6.672C126.904 7.024 126.642 7.328 126.322 7.584C126.002 7.82933 125.634 8.02133 125.218 8.16C124.802 8.29867 124.349 8.368 123.858 8.368C123.325 8.368 122.834 8.288 122.386 8.128C121.949 7.95733 121.565 7.728 121.234 7.44C120.904 7.14133 120.648 6.784 120.466 6.368C120.285 5.952 120.194 5.49333 120.194 4.992C120.194 4.50133 120.285 4.05333 120.466 3.648C120.648 3.232 120.904 2.88 121.234 2.592C121.565 2.29333 121.949 2.064 122.386 1.904C122.834 1.73333 123.325 1.648 123.858 1.648C124.338 1.648 124.786 1.71733 125.202 1.856C125.618 1.984 125.981 2.17067 126.29 2.416C126.61 2.66133 126.872 2.95467 127.074 3.296C127.288 3.63733 127.426 4.016 127.49 4.432H130.45V0.848H131.778V9.008H130.45V5.504H127.506ZM130.21 10.416C130.21 10.7893 130.274 11.1573 130.402 11.52C130.53 11.8827 130.717 12.224 130.962 12.544C131.218 12.864 131.522 13.152 131.874 13.408C132.237 13.664 132.648 13.872 133.106 14.032L132.45 15.008C131.746 14.7413 131.149 14.3733 130.658 13.904C130.168 13.4347 129.8 12.896 129.554 12.288C129.33 12.8747 129 13.424 128.562 13.936C128.136 14.448 127.586 14.848 126.914 15.136C126.221 14.8587 125.656 14.4747 125.218 13.984C124.781 13.4933 124.456 12.944 124.242 12.336C123.986 12.912 123.618 13.4347 123.138 13.904C122.658 14.3733 122.082 14.7413 121.41 15.008L120.754 14.032C121.202 13.8613 121.602 13.6427 121.954 13.376C122.317 13.1093 122.621 12.816 122.866 12.496C123.122 12.176 123.314 11.84 123.442 11.488C123.57 11.1253 123.634 10.768 123.634 10.416V9.568H124.898V10.416C124.898 11.056 125.064 11.6907 125.394 12.32C125.725 12.9493 126.226 13.4613 126.898 13.856C127.24 13.6427 127.538 13.3973 127.794 13.12C128.05 12.832 128.258 12.5387 128.418 12.24C128.589 11.9307 128.717 11.6213 128.802 11.312C128.888 10.992 128.93 10.6933 128.93 10.416V9.568H130.21V10.416ZM145.953 6.368C145.398 6.28267 144.854 6.14933 144.321 5.968C143.788 5.78667 143.286 5.568 142.817 5.312C142.358 5.04533 141.942 4.74667 141.569 4.416C141.206 4.07467 140.913 3.70133 140.689 3.296C140.465 3.70133 140.166 4.07467 139.793 4.416C139.43 4.74667 139.014 5.04533 138.545 5.312C138.086 5.568 137.585 5.78667 137.041 5.968C136.508 6.14933 135.964 6.28267 135.409 6.368L134.929 5.312C135.569 5.23733 136.193 5.088 136.801 4.864C137.42 4.64 137.964 4.368 138.433 4.048C138.913 3.71733 139.297 3.34933 139.585 2.944C139.873 2.528 140.017 2.09067 140.017 1.632V0.992H141.361V1.632C141.361 2.08 141.505 2.50667 141.793 2.912C142.081 3.31733 142.46 3.68533 142.929 4.016C143.409 4.34667 143.953 4.62933 144.561 4.864C145.169 5.088 145.793 5.23733 146.433 5.312L145.953 6.368ZM144.177 12.112H137.121V13.936H144.177V12.112ZM144.177 9.424H145.473V14.992H135.825V9.424H137.121V11.104H144.177V9.424ZM147.169 7.376V8.432H134.177V7.376H147.169ZM150.64 10.352C151.728 10.352 152.826 10.304 153.936 10.208C155.056 10.1013 156.213 9.92533 157.408 9.68L157.552 10.8C156.293 11.056 155.093 11.232 153.952 11.328C152.81 11.424 151.664 11.472 150.512 11.472H149.328V2.224H150.64V10.352ZM160.192 0.832V15.168H158.88V0.832H160.192ZM164.59 10.512C165.23 10.512 165.828 10.5067 166.382 10.496C166.937 10.4747 167.476 10.448 167.998 10.416C168.521 10.3733 169.028 10.3253 169.518 10.272C170.02 10.208 170.532 10.128 171.054 10.032L171.198 11.12C170.654 11.2267 170.121 11.312 169.598 11.376C169.076 11.44 168.542 11.4933 167.998 11.536C167.454 11.568 166.889 11.5947 166.302 11.616C165.716 11.6267 165.086 11.632 164.414 11.632H163.278V2.208H169.95V3.296H164.59V10.512ZM176.078 7.584H173.71V15.216H172.398V0.832H173.71V6.496H176.078V7.584ZM177.949 3.68L177.901 2.016H179.389L179.341 3.68L179.149 10.464H178.141L177.949 3.68ZM178.637 14.208C178.349 14.208 178.099 14.1067 177.885 13.904C177.683 13.7013 177.581 13.4347 177.581 13.104C177.581 12.7733 177.683 12.5013 177.885 12.288C178.099 12.0747 178.349 11.968 178.637 11.968C178.936 11.968 179.187 12.0747 179.389 12.288C179.592 12.5013 179.693 12.7733 179.693 13.104C179.693 13.4347 179.592 13.7013 179.389 13.904C179.187 14.1067 178.936 14.208 178.637 14.208ZM49.0443 24.064C47.8603 24.064 46.9483 24.1973 46.3083 24.464C45.6683 24.72 45.3483 25.088 45.3483 25.568C45.3483 26.048 45.6683 26.4213 46.3083 26.688C46.9483 26.944 47.8603 27.072 49.0443 27.072C50.2283 27.072 51.1403 26.944 51.7803 26.688C52.4203 26.4213 52.7403 26.048 52.7403 25.568C52.7403 25.088 52.4203 24.72 51.7803 24.464C51.1403 24.1973 50.2283 24.064 49.0443 24.064ZM49.0443 28.048C47.4656 28.048 46.2283 27.84 45.3323 27.424C44.4469 26.9973 44.0043 26.3787 44.0043 25.568C44.0043 24.7573 44.4469 24.1387 45.3323 23.712C46.2283 23.2853 47.4656 23.072 49.0443 23.072C50.6229 23.072 51.8549 23.2853 52.7403 23.712C53.6363 24.1387 54.0843 24.7573 54.0843 25.568C54.0843 26.3787 53.6363 26.9973 52.7403 27.424C51.8549 27.84 50.6229 28.048 49.0443 28.048ZM45.4443 36H54.3083V37.024H44.1643V33.584H52.5803V32.304H44.1163V31.312H53.8763V34.544H45.4443V36ZM55.5403 29.024V30.08H42.5483V29.024H55.5403ZM68.4291 25.136H60.1891V24.144H63.6611V22.736H64.9731V24.144H68.4291V25.136ZM62.2051 27.792C62.2051 28.1653 62.3918 28.464 62.7651 28.688C63.1491 28.912 63.6665 29.024 64.3171 29.024C64.9571 29.024 65.4638 28.912 65.8371 28.688C66.2211 28.464 66.4131 28.1653 66.4131 27.792C66.4131 27.4187 66.2211 27.1253 65.8371 26.912C65.4638 26.688 64.9571 26.576 64.3171 26.576C63.6665 26.576 63.1491 26.688 62.7651 26.912C62.3918 27.1253 62.2051 27.4187 62.2051 27.792ZM68.9571 31.488C68.1891 31.6267 67.4051 31.7333 66.6051 31.808C65.8158 31.8827 65.0318 31.936 64.2531 31.968C63.4851 32 62.7385 32.0213 62.0131 32.032C61.2878 32.0427 60.6105 32.048 59.9811 32.048L59.8371 30.992C60.4131 30.992 61.0211 30.992 61.6611 30.992C62.3011 30.9813 62.9678 30.9653 63.6611 30.944V29.904C62.8291 29.8187 62.1678 29.5947 61.6771 29.232C61.1971 28.8693 60.9571 28.3893 60.9571 27.792C60.9571 27.4613 61.0371 27.168 61.1971 26.912C61.3571 26.6453 61.5811 26.4213 61.8691 26.24C62.1678 26.0587 62.5198 25.92 62.9251 25.824C63.3411 25.7173 63.8051 25.664 64.3171 25.664C64.8185 25.664 65.2718 25.7173 65.6771 25.824C66.0931 25.92 66.4451 26.0587 66.7331 26.24C67.0318 26.4213 67.2611 26.6453 67.4211 26.912C67.5811 27.168 67.6611 27.4613 67.6611 27.792C67.6611 28.3787 67.4211 28.8587 66.9411 29.232C66.4611 29.5947 65.8051 29.8187 64.9731 29.904V30.896C65.6345 30.864 66.2905 30.8213 66.9411 30.768C67.5918 30.7147 68.2318 30.64 68.8611 30.544L68.9571 31.488ZM61.5811 33.184H71.0211V37.184H69.7091V34.224H61.5811V33.184ZM73.1331 28.272H71.0211V32.464H69.7091V22.848H71.0211V27.184H73.1331V28.272ZM85.9159 33.328H84.6039V22.848H85.9159V33.328ZM75.7559 27.36C75.7559 27.712 75.8145 28.0373 75.9319 28.336C76.0599 28.6347 76.2305 28.8907 76.4439 29.104C76.6679 29.3173 76.9292 29.4827 77.2279 29.6C77.5265 29.7173 77.8519 29.776 78.2039 29.776C78.5559 29.776 78.8812 29.7173 79.1799 29.6C79.4892 29.4827 79.7559 29.3173 79.9799 29.104C80.2039 28.8907 80.3745 28.6347 80.4919 28.336C80.6199 28.0373 80.6839 27.712 80.6839 27.36C80.6839 27.008 80.6199 26.688 80.4919 26.4C80.3745 26.112 80.2039 25.8613 79.9799 25.648C79.7559 25.4347 79.4892 25.2693 79.1799 25.152C78.8812 25.0347 78.5559 24.976 78.2039 24.976C77.8519 24.976 77.5265 25.0347 77.2279 25.152C76.9292 25.2693 76.6679 25.4347 76.4439 25.648C76.2305 25.8613 76.0599 26.112 75.9319 26.4C75.8145 26.688 75.7559 27.008 75.7559 27.36ZM81.9639 27.36C81.9639 27.8827 81.8679 28.3627 81.6759 28.8C81.4839 29.2267 81.2172 29.6 80.8759 29.92C80.5452 30.2293 80.1505 30.4747 79.6919 30.656C79.2332 30.8267 78.7372 30.912 78.2039 30.912C77.6705 30.912 77.1745 30.8267 76.7159 30.656C76.2679 30.4747 75.8732 30.2293 75.5319 29.92C75.2012 29.6 74.9399 29.2267 74.7479 28.8C74.5665 28.3627 74.4759 27.8827 74.4759 27.36C74.4759 26.848 74.5665 26.3787 74.7479 25.952C74.9399 25.5147 75.2012 25.1413 75.5319 24.832C75.8732 24.512 76.2679 24.2667 76.7159 24.096C77.1745 23.9253 77.6705 23.84 78.2039 23.84C78.7372 23.84 79.2332 23.9253 79.6919 24.096C80.1505 24.2667 80.5452 24.512 80.8759 24.832C81.2172 25.1413 81.4839 25.5147 81.6759 25.952C81.8679 26.3787 81.9639 26.848 81.9639 27.36ZM86.3479 35.792V36.864H76.6839V32.256H77.9959V35.792H86.3479ZM91.9306 32.768C92.208 32.768 92.464 32.7147 92.6986 32.608C92.9333 32.5013 93.1306 32.352 93.2906 32.16C93.4613 31.9573 93.5946 31.7227 93.6906 31.456C93.7866 31.1893 93.8346 30.896 93.8346 30.576C93.8346 30.2667 93.7866 29.9787 93.6906 29.712C93.5946 29.4453 93.4613 29.216 93.2906 29.024C93.1306 28.832 92.9333 28.6827 92.6986 28.576C92.464 28.4693 92.208 28.416 91.9306 28.416C91.3653 28.416 90.9066 28.6187 90.5546 29.024C90.2026 29.4293 90.0266 29.9467 90.0266 30.576C90.0266 30.896 90.0693 31.1893 90.1546 31.456C90.2506 31.7227 90.384 31.9573 90.5546 32.16C90.7253 32.352 90.928 32.5013 91.1626 32.608C91.3973 32.7147 91.6533 32.768 91.9306 32.768ZM91.9306 27.312C92.3786 27.312 92.7893 27.392 93.1626 27.552C93.536 27.712 93.856 27.936 94.1226 28.224C94.4 28.512 94.6133 28.8587 94.7626 29.264C94.9226 29.6587 95.0026 30.096 95.0026 30.576C95.0026 31.0667 94.9226 31.5147 94.7626 31.92C94.6133 32.3147 94.4 32.656 94.1226 32.944C93.856 33.232 93.536 33.456 93.1626 33.616C92.7893 33.776 92.3786 33.856 91.9306 33.856C91.4826 33.856 91.072 33.776 90.6986 33.616C90.3253 33.456 90 33.232 89.7226 32.944C89.456 32.656 89.2426 32.3147 89.0826 31.92C88.9333 31.5147 88.8586 31.0667 88.8586 30.576C88.8586 30.096 88.9333 29.6587 89.0826 29.264C89.2426 28.8587 89.456 28.512 89.7226 28.224C90 27.936 90.3253 27.712 90.6986 27.552C91.072 27.392 91.4826 27.312 91.9306 27.312ZM92.5706 25.28H95.4826V26.352H88.3626V25.28H91.2746V23.248H92.5706V25.28ZM100.539 22.816V37.168H99.2746V29.952H97.4346V36.48H96.2026V23.152H97.4346V28.88H99.2746V22.816H100.539ZM106.5 28.768C107.118 28.672 107.726 28.5067 108.324 28.272C108.921 28.0267 109.454 27.7333 109.924 27.392C110.393 27.04 110.766 26.6507 111.044 26.224C111.332 25.7867 111.476 25.3333 111.476 24.864V24.784H106.948V23.728H117.428V24.784H112.932V24.864C112.932 25.3333 113.07 25.7867 113.348 26.224C113.636 26.6507 114.014 27.04 114.484 27.392C114.953 27.7333 115.486 28.0267 116.084 28.272C116.692 28.5067 117.31 28.672 117.94 28.768L117.428 29.808C116.873 29.712 116.329 29.568 115.796 29.376C115.262 29.184 114.766 28.9493 114.308 28.672C113.849 28.384 113.438 28.064 113.076 27.712C112.713 27.3493 112.425 26.9547 112.212 26.528C111.988 26.9547 111.694 27.3493 111.332 27.712C110.969 28.064 110.558 28.384 110.1 28.672C109.652 28.9493 109.161 29.184 108.628 29.376C108.094 29.568 107.55 29.712 106.996 29.808L106.5 28.768ZM118.708 32.08H112.836V37.184H111.524V32.08H105.732V31.008H118.692L118.708 32.08ZM124.21 26.88C124.21 27.456 124.274 28.032 124.402 28.608C124.541 29.184 124.733 29.7333 124.978 30.256C125.234 30.7787 125.544 31.2587 125.906 31.696C126.28 32.1227 126.701 32.48 127.17 32.768L126.418 33.792C125.736 33.376 125.154 32.8107 124.674 32.096C124.205 31.3707 123.842 30.5707 123.586 29.696C123.33 30.656 122.946 31.52 122.434 32.288C121.933 33.056 121.325 33.664 120.61 34.112L119.794 33.12C120.285 32.832 120.722 32.464 121.106 32.016C121.501 31.568 121.832 31.072 122.098 30.528C122.376 29.9733 122.584 29.392 122.722 28.784C122.872 28.1653 122.946 27.5467 122.946 26.928V24.192H124.21V26.88ZM127.986 23.152H129.218V36.48H127.986V29.072H125.618V27.984H127.986V23.152ZM132.146 22.832V37.184H130.898V22.832H132.146ZM138.689 34.256H142.689V30.88C142.06 31.0293 141.388 31.104 140.673 31.104C139.969 31.104 139.308 31.0293 138.689 30.88V34.256ZM140.673 24.768C140.097 24.768 139.564 24.832 139.073 24.96C138.593 25.088 138.177 25.2693 137.825 25.504C137.484 25.728 137.212 26.0053 137.009 26.336C136.817 26.6667 136.721 27.0293 136.721 27.424C136.721 27.8293 136.817 28.1973 137.009 28.528C137.212 28.848 137.484 29.1253 137.825 29.36C138.177 29.584 138.593 29.76 139.073 29.888C139.564 30.016 140.097 30.08 140.673 30.08C141.249 30.08 141.777 30.016 142.257 29.888C142.748 29.76 143.169 29.584 143.521 29.36C143.873 29.1253 144.145 28.848 144.337 28.528C144.54 28.1973 144.641 27.8293 144.641 27.424C144.641 27.0293 144.54 26.6667 144.337 26.336C144.145 26.0053 143.873 25.728 143.521 25.504C143.169 25.2693 142.748 25.088 142.257 24.96C141.777 24.832 141.249 24.768 140.673 24.768ZM147.217 34.256V35.344H134.177V34.256H137.377V30.384C136.769 30.0747 136.294 29.6693 135.953 29.168C135.622 28.656 135.457 28.0747 135.457 27.424C135.457 26.8693 135.585 26.368 135.841 25.92C136.097 25.4613 136.454 25.072 136.913 24.752C137.382 24.432 137.937 24.1867 138.577 24.016C139.217 23.8347 139.916 23.744 140.673 23.744C141.441 23.744 142.14 23.8347 142.769 24.016C143.409 24.1867 143.958 24.432 144.417 24.752C144.886 25.072 145.249 25.4613 145.505 25.92C145.761 26.368 145.889 26.8693 145.889 27.424C145.889 28.0747 145.724 28.6507 145.393 29.152C145.062 29.6533 144.598 30.0587 144.001 30.368V34.256H147.217ZM149.808 36.208C149.52 36.208 149.269 36.1067 149.056 35.904C148.853 35.7013 148.752 35.4347 148.752 35.104C148.752 34.7733 148.853 34.5013 149.056 34.288C149.269 34.0747 149.52 33.968 149.808 33.968C150.096 33.968 150.341 34.0747 150.544 34.288C150.757 34.5013 150.864 34.7733 150.864 35.104C150.864 35.4347 150.757 35.7013 150.544 35.904C150.341 36.1067 150.096 36.208 149.808 36.208Z" fill="black"/>
<path d="M3.96 25.808H2.072V32.048H3.96V25.808ZM7.336 22.864H9.304V36.704H7.336V29.696H5.912V33.696H0.104V24.144H5.912V27.984H7.336V22.864ZM12.328 22.624V37.36H10.328V22.624H12.328ZM26.1668 30.016H24.0388V22.64H26.1668V30.016ZM16.1828 26.432C16.1828 26.9653 16.3641 27.376 16.7268 27.664C17.0894 27.952 17.5428 28.096 18.0868 28.096C18.6308 28.096 19.0788 27.952 19.4308 27.664C19.7828 27.376 19.9588 26.9653 19.9588 26.432C19.9588 25.9093 19.7828 25.504 19.4308 25.216C19.0788 24.9173 18.6308 24.768 18.0868 24.768C17.5428 24.768 17.0894 24.9173 16.7268 25.216C16.3641 25.504 16.1828 25.9093 16.1828 26.432ZM22.0068 26.432C22.0068 26.9227 21.9054 27.376 21.7028 27.792C21.5108 28.208 21.2388 28.5653 20.8868 28.864C20.5348 29.1627 20.1188 29.3973 19.6388 29.568C19.1588 29.728 18.6414 29.808 18.0868 29.808C17.5214 29.808 16.9988 29.728 16.5188 29.568C16.0388 29.3973 15.6228 29.1627 15.2708 28.864C14.9188 28.5653 14.6414 28.208 14.4388 27.792C14.2361 27.376 14.1348 26.9227 14.1348 26.432C14.1348 25.9413 14.2361 25.4933 14.4388 25.088C14.6414 24.672 14.9188 24.3147 15.2708 24.016C15.6228 23.7173 16.0388 23.488 16.5188 23.328C16.9988 23.1573 17.5214 23.072 18.0868 23.072C18.6414 23.072 19.1588 23.1573 19.6388 23.328C20.1188 23.488 20.5348 23.7173 20.8868 24.016C21.2388 24.3147 21.5108 24.672 21.7028 25.088C21.9054 25.4933 22.0068 25.9413 22.0068 26.432ZM26.5348 35.568V37.216H16.3588V33.136H24.0708V32.24H16.3428V30.624H26.1668V34.64H18.4548V35.568H26.5348ZM36.8375 25.632H28.1495V23.968H31.4295V22.544H33.5575V23.968H36.8375V25.632ZM30.9015 28.72C30.9015 29.0933 31.0455 29.3707 31.3335 29.552C31.6322 29.7333 32.0215 29.824 32.5015 29.824C32.9815 29.824 33.3655 29.7333 33.6535 29.552C33.9522 29.3707 34.1015 29.0933 34.1015 28.72C34.1015 28.3573 33.9522 28.0853 33.6535 27.904C33.3655 27.7227 32.9815 27.632 32.5015 27.632C32.0215 27.632 31.6322 27.7227 31.3335 27.904C31.0455 28.0853 30.9015 28.3573 30.9015 28.72ZM36.1175 28.72C36.1175 29.1253 36.0268 29.4933 35.8455 29.824C35.6748 30.144 35.4295 30.4213 35.1095 30.656C34.7895 30.88 34.4055 31.056 33.9575 31.184C33.5202 31.312 33.0348 31.376 32.5015 31.376C31.9682 31.376 31.4775 31.312 31.0295 31.184C30.5922 31.056 30.2135 30.88 29.8935 30.656C29.5735 30.4213 29.3228 30.144 29.1415 29.824C28.9708 29.4933 28.8855 29.1253 28.8855 28.72C28.8855 28.3253 28.9708 27.968 29.1415 27.648C29.3228 27.328 29.5735 27.0507 29.8935 26.816C30.2135 26.5813 30.5922 26.4 31.0295 26.272C31.4775 26.144 31.9682 26.08 32.5015 26.08C33.0348 26.08 33.5202 26.144 33.9575 26.272C34.4055 26.4 34.7895 26.5813 35.1095 26.816C35.4295 27.0507 35.6748 27.328 35.8455 27.648C36.0268 27.968 36.1175 28.3253 36.1175 28.72ZM32.2615 35.552H37.7015V33.824H32.2615V35.552ZM30.1815 32.16H39.7655V37.2H30.1815V32.16ZM41.7175 28H39.7655V31.52H37.6535V22.656H39.7655V26.272H41.7175V28Z" fill="#41AFE5"/>
</svg>
