<svg width="37" height="14" viewBox="0 0 37 14" fill="none" xmlns="http://www.w3.org/2000/svg">
<path d="M11.284 0.296V13.232H9.436V0.296H11.284ZM4.354 1.206C4.83933 1.206 5.28733 1.31333 5.698 1.528C6.118 1.74267 6.47733 2.05067 6.776 2.452C7.07467 2.844 7.308 3.32467 7.476 3.894C7.65333 4.454 7.742 5.08867 7.742 5.798C7.742 6.50733 7.65333 7.14667 7.476 7.716C7.308 8.28533 7.07467 8.77067 6.776 9.172C6.47733 9.57333 6.118 9.88133 5.698 10.096C5.28733 10.3107 4.83933 10.418 4.354 10.418C3.86867 10.418 3.416 10.3107 2.996 10.096C2.58533 9.88133 2.23067 9.57333 1.932 9.172C1.63333 8.77067 1.39533 8.28533 1.218 7.716C1.05 7.14667 0.966 6.50733 0.966 5.798C0.966 5.08867 1.05 4.454 1.218 3.894C1.39533 3.32467 1.63333 2.844 1.932 2.452C2.23067 2.05067 2.58533 1.74267 2.996 1.528C3.416 1.31333 3.86867 1.206 4.354 1.206ZM4.354 2.872C3.878 2.872 3.49067 3.11933 3.192 3.614C2.89333 4.10867 2.744 4.83667 2.744 5.798C2.744 6.75933 2.89333 7.492 3.192 7.996C3.49067 8.49067 3.878 8.738 4.354 8.738C4.83 8.738 5.21733 8.49067 5.516 7.996C5.81467 7.492 5.964 6.75933 5.964 5.798C5.964 4.83667 5.81467 4.10867 5.516 3.614C5.21733 3.11933 4.83 2.872 4.354 2.872ZM16.7989 3.082H15.1469V8.542H16.7989V3.082ZM19.7529 0.505999H21.4749V12.616H19.7529V6.484H18.5069V9.984H13.4249V1.626H18.5069V4.986H19.7529V0.505999ZM24.1209 0.296V13.19H22.3709V0.296H24.1209ZM36.2298 6.764H34.3678V0.309999H36.2298V6.764ZM27.4938 3.628C27.4938 4.09467 27.6525 4.454 27.9698 4.706C28.2871 4.958 28.6838 5.084 29.1598 5.084C29.6358 5.084 30.0278 4.958 30.3358 4.706C30.6438 4.454 30.7978 4.09467 30.7978 3.628C30.7978 3.17067 30.6438 2.816 30.3358 2.564C30.0278 2.30267 29.6358 2.172 29.1598 2.172C28.6838 2.172 28.2871 2.30267 27.9698 2.564C27.6525 2.816 27.4938 3.17067 27.4938 3.628ZM32.5898 3.628C32.5898 4.05733 32.5011 4.454 32.3238 4.818C32.1558 5.182 31.9178 5.49467 31.6098 5.756C31.3018 6.01733 30.9378 6.22267 30.5178 6.372C30.0978 6.512 29.6451 6.582 29.1598 6.582C28.6651 6.582 28.2078 6.512 27.7878 6.372C27.3678 6.22267 27.0038 6.01733 26.6958 5.756C26.3878 5.49467 26.1451 5.182 25.9678 4.818C25.7905 4.454 25.7018 4.05733 25.7018 3.628C25.7018 3.19867 25.7905 2.80667 25.9678 2.452C26.1451 2.088 26.3878 1.77533 26.6958 1.514C27.0038 1.25267 27.3678 1.052 27.7878 0.911999C28.2078 0.762666 28.6651 0.688 29.1598 0.688C29.6451 0.688 30.0978 0.762666 30.5178 0.911999C30.9378 1.052 31.3018 1.25267 31.6098 1.514C31.9178 1.77533 32.1558 2.088 32.3238 2.452C32.5011 2.80667 32.5898 3.19867 32.5898 3.628ZM36.5518 11.622V13.064H27.6478V9.494H34.3958V8.71H27.6338V7.296H36.2298V10.81H29.4818V11.622H36.5518Z" fill="black"/>
</svg>
