<svg width="54" height="16" viewBox="0 0 54 16" fill="none" xmlns="http://www.w3.org/2000/svg">
<g opacity="0.8">
<path d="M7.362 15.252C6.45 15.252 5.604 15.102 4.824 14.802C4.044 14.502 3.366 14.064 2.79 13.488C2.226 12.912 1.782 12.198 1.458 11.346C1.134 10.494 0.972 9.51 0.972 8.394C0.972 7.302 1.14 6.324 1.476 5.46C1.812 4.596 2.268 3.864 2.844 3.264C3.42 2.664 4.092 2.208 4.86 1.896C5.64 1.584 6.474 1.428 7.362 1.428C8.322 1.428 9.138 1.602 9.81 1.95C10.494 2.298 11.052 2.694 11.484 3.138L10.062 4.83C9.738 4.518 9.372 4.254 8.964 4.038C8.568 3.822 8.064 3.714 7.452 3.714C6.9 3.714 6.39 3.822 5.922 4.038C5.466 4.242 5.07 4.542 4.734 4.938C4.41 5.334 4.152 5.814 3.96 6.378C3.78 6.942 3.69 7.584 3.69 8.304C3.69 9.756 4.02 10.896 4.68 11.724C5.34 12.54 6.324 12.948 7.632 12.948C7.956 12.948 8.268 12.906 8.568 12.822C8.868 12.738 9.114 12.612 9.306 12.444V9.816H6.948V7.638H11.682V13.65C11.226 14.094 10.626 14.472 9.882 14.784C9.138 15.096 8.298 15.252 7.362 15.252ZM17.9783 15.252C17.0783 15.252 16.2023 15.084 15.3503 14.748C14.5103 14.412 13.7663 13.932 13.1183 13.308L14.6483 11.472C15.1283 11.916 15.6623 12.276 16.2503 12.552C16.8503 12.816 17.4443 12.948 18.0323 12.948C18.7283 12.948 19.2563 12.81 19.6163 12.534C19.9763 12.258 20.1563 11.886 20.1563 11.418C20.1563 11.166 20.1083 10.956 20.0123 10.788C19.9163 10.62 19.7783 10.47 19.5983 10.338C19.4303 10.206 19.2203 10.086 18.9683 9.978C18.7283 9.87 18.4583 9.75 18.1583 9.618L16.3763 8.862C16.0403 8.718 15.7103 8.544 15.3863 8.34C15.0623 8.136 14.7743 7.89 14.5223 7.602C14.2703 7.302 14.0663 6.966 13.9103 6.594C13.7543 6.21 13.6763 5.772 13.6763 5.28C13.6763 4.74 13.7903 4.236 14.0183 3.768C14.2463 3.288 14.5643 2.88 14.9723 2.544C15.3803 2.196 15.8663 1.926 16.4303 1.734C16.9943 1.53 17.6123 1.428 18.2843 1.428C19.0643 1.428 19.8203 1.578 20.5523 1.878C21.2843 2.166 21.9203 2.586 22.4603 3.138L21.1103 4.812C20.6903 4.464 20.2523 4.194 19.7963 4.002C19.3403 3.81 18.8363 3.714 18.2843 3.714C17.6963 3.714 17.2283 3.84 16.8803 4.092C16.5323 4.332 16.3583 4.674 16.3583 5.118C16.3583 5.358 16.4123 5.562 16.5203 5.73C16.6403 5.898 16.7903 6.048 16.9703 6.18C17.1623 6.312 17.3843 6.432 17.6363 6.54C17.8883 6.648 18.1583 6.756 18.4463 6.864L20.1923 7.602C20.6003 7.77 20.9663 7.962 21.2903 8.178C21.6263 8.394 21.9083 8.646 22.1363 8.934C22.3763 9.222 22.5563 9.558 22.6763 9.942C22.8083 10.314 22.8743 10.74 22.8743 11.22C22.8743 11.76 22.7603 12.276 22.5323 12.768C22.3163 13.26 21.9983 13.692 21.5783 14.064C21.1583 14.424 20.6423 14.712 20.0303 14.928C19.4303 15.144 18.7463 15.252 17.9783 15.252ZM24.6928 1.68H27.6448L29.9128 7.908C30.0568 8.328 30.1948 8.754 30.3268 9.186C30.4588 9.618 30.5908 10.05 30.7228 10.482H30.8128C30.9568 10.05 31.0888 9.618 31.2088 9.186C31.3408 8.754 31.4788 8.328 31.6228 7.908L33.8368 1.68H36.7888V15H34.3588V9.438C34.3588 9.126 34.3708 8.784 34.3948 8.412C34.4188 8.028 34.4428 7.644 34.4668 7.26C34.5028 6.864 34.5388 6.48 34.5748 6.108C34.6108 5.724 34.6468 5.376 34.6828 5.064H34.6108L33.5308 8.196L31.4788 13.794H29.9488L27.8788 8.196L26.8168 5.064H26.7448C26.7808 5.376 26.8168 5.724 26.8528 6.108C26.8888 6.48 26.9248 6.864 26.9608 7.26C26.9968 7.644 27.0268 8.028 27.0508 8.412C27.0748 8.784 27.0868 9.126 27.0868 9.438V15H24.6928V1.68Z" fill="black"/>
<path d="M39.3 4.92H41.928V15H39.3V4.92ZM40.632 3.3C40.176 3.3 39.798 3.168 39.498 2.904C39.198 2.628 39.048 2.28 39.048 1.86C39.048 1.428 39.198 1.08 39.498 0.815999C39.798 0.551999 40.176 0.419999 40.632 0.419999C41.088 0.419999 41.46 0.551999 41.748 0.815999C42.048 1.08 42.198 1.428 42.198 1.86C42.198 2.28 42.048 2.628 41.748 2.904C41.46 3.168 41.088 3.3 40.632 3.3ZM44.2268 4.92H46.3868L46.5668 6.252H46.6388C47.0828 5.82 47.5688 5.448 48.0968 5.136C48.6248 4.824 49.2308 4.668 49.9148 4.668C51.0068 4.668 51.7988 5.028 52.2908 5.748C52.7828 6.456 53.0288 7.446 53.0288 8.718V15H50.3828V9.042C50.3828 8.262 50.2688 7.716 50.0408 7.404C49.8248 7.092 49.4648 6.936 48.9608 6.936C48.5408 6.936 48.1808 7.032 47.8808 7.224C47.5808 7.416 47.2388 7.698 46.8548 8.07V15H44.2268V4.92Z" fill="#41AFE5"/>
</g>
</svg>
