<svg width="182" height="65" viewBox="0 0 182 65" fill="none" xmlns="http://www.w3.org/2000/svg">
<path d="M24.516 19.932V11.94H29.268V31.668H24.516V23.784H19.548V19.932H24.516ZM19.224 30.768C17.424 30.168 15.9 29.316 14.652 28.212C13.404 27.084 12.42 25.788 11.7 24.324C10.98 26.004 9.96 27.492 8.64 28.788C7.344 30.06 5.724 31.02 3.78 31.668L1.368 27.924C2.688 27.468 3.828 26.88 4.788 26.16C5.748 25.416 6.54 24.6 7.164 23.712C7.812 22.8 8.292 21.84 8.604 20.832C8.94 19.8 9.132 18.768 9.18 17.736H2.664V13.92H20.484V17.736H14.04C14.064 18.672 14.232 19.608 14.544 20.544C14.856 21.48 15.312 22.368 15.912 23.208C16.536 24.024 17.304 24.768 18.216 25.44C19.152 26.112 20.256 26.652 21.528 27.06L19.224 30.768ZM18.072 41.532C20.256 41.532 21.9 41.304 23.004 40.848C24.108 40.392 24.66 39.696 24.66 38.76C24.66 37.824 24.108 37.128 23.004 36.672C21.9 36.216 20.256 35.988 18.072 35.988C13.656 35.988 11.448 36.912 11.448 38.76C11.448 40.608 13.656 41.532 18.072 41.532ZM18.072 32.388C19.824 32.388 21.396 32.532 22.788 32.82C24.204 33.108 25.392 33.528 26.352 34.08C27.336 34.608 28.092 35.268 28.62 36.06C29.148 36.852 29.412 37.752 29.412 38.76C29.412 39.768 29.148 40.668 28.62 41.46C28.092 42.252 27.336 42.912 26.352 43.44C25.392 43.992 24.204 44.412 22.788 44.7C21.396 44.988 19.824 45.132 18.072 45.132C16.296 45.132 14.7 44.988 13.284 44.7C11.892 44.412 10.704 43.992 9.72 43.44C8.76 42.912 8.016 42.252 7.488 41.46C6.96 40.668 6.696 39.768 6.696 38.76C6.696 37.752 6.96 36.852 7.488 36.06C8.016 35.268 8.76 34.608 9.72 34.08C10.704 33.528 11.892 33.108 13.284 32.82C14.7 32.532 16.296 32.388 18.072 32.388ZM41.4692 27.528H55.6532V22.884H41.4692V27.528ZM63.6092 37.392V41.244H33.5852V37.392H46.1852V31.308H36.7532V13.992H41.4692V19.14H55.6532V13.992H60.3332V31.308H50.9372V37.392H63.6092ZM100.239 11.94V29.76H95.4506V11.94H100.239ZM82.9226 31.2V34.296H95.5226V31.2H100.239V44.7H78.2066V31.2H82.9226ZM82.9226 40.956H95.5226V37.932H82.9226V40.956ZM82.2026 13.308C83.4986 13.308 84.6866 13.5 85.7666 13.884C86.8706 14.268 87.8186 14.808 88.6106 15.504C89.4266 16.2 90.0626 17.028 90.5186 17.988C90.9746 18.948 91.2026 19.992 91.2026 21.12C91.2026 22.272 90.9746 23.328 90.5186 24.288C90.0626 25.248 89.4266 26.076 88.6106 26.772C87.8186 27.468 86.8706 28.008 85.7666 28.392C84.6866 28.776 83.4986 28.968 82.2026 28.968C80.9066 28.968 79.7066 28.776 78.6026 28.392C77.5226 28.008 76.5746 27.468 75.7586 26.772C74.9426 26.076 74.3066 25.248 73.8506 24.288C73.3946 23.328 73.1666 22.272 73.1666 21.12C73.1666 19.992 73.3946 18.948 73.8506 17.988C74.3066 17.028 74.9426 16.2 75.7586 15.504C76.5746 14.808 77.5226 14.268 78.6026 13.884C79.7066 13.5 80.9066 13.308 82.2026 13.308ZM82.2026 17.232C80.9306 17.232 79.8746 17.58 79.0346 18.276C78.2186 18.948 77.8106 19.896 77.8106 21.12C77.8106 22.368 78.2186 23.34 79.0346 24.036C79.8746 24.708 80.9306 25.044 82.2026 25.044C83.4746 25.044 84.5186 24.708 85.3346 24.036C86.1506 23.34 86.5586 22.368 86.5586 21.12C86.5586 19.896 86.1506 18.948 85.3346 18.276C84.5186 17.58 83.4746 17.232 82.2026 17.232ZM122.124 30.732C121.164 30.924 120.204 31.08 119.244 31.2C118.308 31.296 117.312 31.368 116.256 31.416C115.2 31.464 114.048 31.5 112.8 31.524C111.552 31.548 110.136 31.56 108.552 31.56H105.996V20.76H115.788V17.628H105.96V13.812H120.468V24.288H110.712V27.744C111.888 27.744 112.968 27.732 113.952 27.708C114.936 27.66 115.86 27.612 116.724 27.564C117.588 27.516 118.416 27.444 119.208 27.348C120.024 27.228 120.84 27.096 121.656 26.952L122.124 30.732ZM109.776 33.864H132.456V45.132H127.704V37.644H109.776V33.864ZM132.456 11.94V32.388H127.704V27.384H122.376V23.604H127.704V20.328H122.376V16.512H127.704V11.976L132.456 11.94Z" fill="black"/>
<rect y="36" width="130" height="10" fill="#00B1EA" fill-opacity="0.3"/>
</svg>
