<svg width="182" height="65" viewBox="0 0 182 65" fill="none" xmlns="http://www.w3.org/2000/svg">
<path d="M31.572 37.572V41.46H1.548V37.572H14.148V32.64H5.004V21.408H23.508V17.844H4.968V14.064H28.188V25.116H9.72V28.824H28.944V32.64H18.9V37.572H31.572ZM55.1492 18.78H36.6812V15H59.9012V18.924C59.9012 20.076 59.8892 21.24 59.8652 22.416C59.8652 23.592 59.8292 24.828 59.7572 26.124C59.6852 27.396 59.5652 28.752 59.3972 30.192C59.2292 31.632 58.9892 33.204 58.6772 34.908L53.9612 34.476C54.2492 32.892 54.4772 31.404 54.6452 30.012C54.8132 28.62 54.9332 27.288 55.0052 26.016C55.0772 24.744 55.1132 23.532 55.1132 22.38C55.1372 21.204 55.1492 20.052 55.1492 18.924V18.78ZM63.5732 36.888V40.776H33.5852V36.888H63.5732ZM93.1624 35.772H88.3744V11.976H93.1624V35.772ZM70.7344 22.488C70.7344 23.832 71.1544 24.888 71.9944 25.656C72.8584 26.4 73.9024 26.772 75.1264 26.772C76.3744 26.772 77.4064 26.4 78.2224 25.656C79.0624 24.888 79.4824 23.832 79.4824 22.488C79.4824 21.12 79.0624 20.064 78.2224 19.32C77.4064 18.552 76.3744 18.168 75.1264 18.168C73.9024 18.168 72.8584 18.552 71.9944 19.32C71.1544 20.064 70.7344 21.12 70.7344 22.488ZM84.1264 22.488C84.1264 23.688 83.8984 24.804 83.4424 25.836C82.9864 26.868 82.3504 27.756 81.5344 28.5C80.7184 29.244 79.7584 29.832 78.6544 30.264C77.5744 30.672 76.3984 30.876 75.1264 30.876C73.8544 30.876 72.6664 30.672 71.5624 30.264C70.4584 29.832 69.4984 29.244 68.6824 28.5C67.8904 27.756 67.2544 26.868 66.7744 25.836C66.3184 24.804 66.0904 23.688 66.0904 22.488C66.0904 21.264 66.3184 20.136 66.7744 19.104C67.2544 18.072 67.8904 17.184 68.6824 16.44C69.4984 15.696 70.4584 15.12 71.5624 14.712C72.6664 14.28 73.8544 14.064 75.1264 14.064C76.3984 14.064 77.5744 14.28 78.6544 14.712C79.7584 15.12 80.7184 15.696 81.5344 16.44C82.3504 17.184 82.9864 18.072 83.4424 19.104C83.8984 20.136 84.1264 21.264 84.1264 22.488ZM93.9904 40.74V44.52H71.0944V33.432H75.8464V40.74H93.9904Z" fill="black"/>
<rect y="36" width="97" height="10" fill="#00B1EA" fill-opacity="0.3"/>
</svg>
