<svg width="59" height="59" viewBox="0 0 59 59" fill="none" xmlns="http://www.w3.org/2000/svg">
<path d="M35.867 19.6666L29.5 26.0337L23.1329 19.6666L19.6666 23.1329L26.0337 29.5L19.6666 35.867L23.1329 39.3333L29.5 32.9662L35.867 39.3333L39.3333 35.867L32.9662 29.5L39.3333 23.1329L35.867 19.6666ZM29.5 4.91663C15.9054 4.91663 4.91663 15.9054 4.91663 29.5C4.91663 43.0945 15.9054 54.0833 29.5 54.0833C43.0945 54.0833 54.0833 43.0945 54.0833 29.5C54.0833 15.9054 43.0945 4.91663 29.5 4.91663ZM29.5 49.1666C18.6587 49.1666 9.83329 40.3412 9.83329 29.5C9.83329 18.6587 18.6587 9.83329 29.5 9.83329C40.3412 9.83329 49.1666 18.6587 49.1666 29.5C49.1666 40.3412 40.3412 49.1666 29.5 49.1666Z" fill="black" fill-opacity="0.54"/>
</svg>
