<?xml version="1.0" standalone="no"?>
<!DOCTYPE svg PUBLIC "-//W3C//DTD SVG 20010904//EN"
 "http://www.w3.org/TR/2001/REC-SVG-20010904/DTD/svg10.dtd">
<svg version="1.0" xmlns="http://www.w3.org/2000/svg"
 width="233.000000pt" height="205.000000pt" viewBox="0 0 233.000000 205.000000"
 preserveAspectRatio="xMidYMid meet">

<g transform="translate(0.000000,205.000000) scale(0.100000,-0.100000)"
fill="#000000" stroke="none">
<path d="M0 1809 c1 -211 3 -240 16 -235 9 3 24 6 35 6 10 0 19 4 19 10 0 5
-14 7 -33 4 -24 -4 -28 -3 -17 5 23 16 73 14 67 -3 -4 -9 3 -16 19 -19 13 -2
24 0 24 4 0 5 10 9 21 9 18 0 19 -2 9 -15 -10 -12 -24 -14 -60 -9 -36 5 -54 2
-74 -11 l-26 -17 0 -769 0 -769 1160 0 1160 0 0 1025 0 1025 -1160 0 -1161 0
1 -241z m663 -206 c-7 -2 -19 -2 -25 0 -7 3 -2 5 12 5 14 0 19 -2 13 -5z m44
1 c-3 -3 -12 -4 -19 -1 -8 3 -5 6 6 6 11 1 17 -2 13 -5z m-100 -10 c-3 -3 -12
-4 -19 -1 -8 3 -5 6 6 6 11 1 17 -2 13 -5z m78 -24 c7 -12 -22 -12 -50 0 -17
7 -15 9 12 9 17 1 35 -3 38 -9z m42 -22 c-3 -8 -6 -5 -6 6 -1 11 2 17 5 13 3
-3 4 -12 1 -19z m-660 6 c-3 -3 -12 -4 -19 -1 -8 3 -5 6 6 6 11 1 17 -2 13 -5z
m23 -23 c0 -4 -11 -6 -25 -3 -32 6 -32 12 0 12 14 0 25 -4 25 -9z m30 -1 c0
-5 -5 -10 -11 -10 -5 0 -7 5 -4 10 3 6 8 10 11 10 2 0 4 -4 4 -10z m88 -7
c-10 -2 -26 -2 -35 0 -10 3 -2 5 17 5 19 0 27 -2 18 -5z m497 -13 c3 -5 1 -10
-4 -10 -6 0 -11 5 -11 10 0 6 2 10 4 10 3 0 8 -4 11 -10z m-412 -27 c-7 -2
-19 -2 -25 0 -7 3 -2 5 12 5 14 0 19 -2 13 -5z m417 -12 c0 -4 -11 -6 -25 -3
-14 2 -25 6 -25 8 0 2 11 4 25 4 14 0 25 -4 25 -9z m-456 -10 c4 -5 -3 -7 -14
-4 -23 6 -26 13 -6 13 8 0 17 -4 20 -9z m114 -28 c-10 -2 -26 -2 -35 0 -10 3
-2 5 17 5 19 0 27 -2 18 -5z m219 -87 c66 -14 117 -15 159 -5 32 8 48 9 56 1
8 -8 5 -9 -11 -5 -13 3 -21 1 -21 -7 0 -7 -7 -10 -16 -6 -8 3 -12 2 -9 -4 7
-11 -170 -2 -195 10 -8 4 -48 8 -89 9 -40 1 -83 6 -94 10 -24 9 176 6 220 -3z
m60 8 c-3 -3 -12 -4 -19 -1 -8 3 -5 6 6 6 11 1 17 -2 13 -5z m-428 -46 c28
-15 45 -19 48 -12 4 13 62 9 77 -6 6 -6 30 -10 55 -11 l46 -1 -40 -9 c-32 -8
-46 -6 -72 8 -28 15 -38 16 -65 5 -21 -8 -36 -8 -42 -2 -6 6 -21 10 -34 10
-20 0 -22 3 -13 14 10 11 8 15 -6 19 -10 3 -13 5 -8 6 6 1 30 -9 54 -21z m512
-22 c-9 -11 -20 -12 -49 -4 -60 15 -60 16 2 17 49 1 57 -1 47 -13z m49 4 c0
-5 -7 -10 -15 -10 -8 0 -15 5 -15 10 0 6 7 10 15 10 8 0 15 -4 15 -10z m69 -6
c2 -2 -7 -4 -22 -4 -14 0 -29 5 -32 10 -6 10 42 4 54 -6z m58 0 c-3 -3 -12 -4
-19 -1 -8 3 -5 6 6 6 11 1 17 -2 13 -5z m88 -14 c7 -12 -32 -12 -60 0 -16 7
-13 9 17 9 20 1 40 -3 43 -9z m-500 -10 c3 -5 -1 -10 -10 -10 -9 0 -13 5 -10
10 3 6 8 10 10 10 2 0 7 -4 10 -10z m55 0 c0 -5 -7 -10 -15 -10 -8 0 -15 5
-15 10 0 6 7 10 15 10 8 0 15 -4 15 -10z m100 0 c28 -17 1 -22 -42 -7 l-43 15
35 1 c19 0 42 -3 50 -9z m473 3 c-13 -2 -33 -2 -45 0 -13 2 -3 4 22 4 25 0 35
-2 23 -4z m-364 -8 c-8 -7 -78 -9 -85 -2 -4 4 14 7 41 7 27 0 46 -2 44 -5z
m108 -1 c-3 -3 -12 -4 -19 -1 -8 3 -5 6 6 6 11 1 17 -2 13 -5z m113 -10 l35
-14 -35 6 c-19 3 -51 10 -70 14 l-35 8 35 0 c19 0 51 -6 70 -14z m73 -11 c-7
-2 -19 -2 -25 0 -7 3 -2 5 12 5 14 0 19 -2 13 -5z"/>
</g>
</svg>
