<svg width="299" height="50" viewBox="0 0 299 50" fill="none" xmlns="http://www.w3.org/2000/svg">
<path d="M68.0378 21.28C67.0245 21.28 66.0845 21.1133 65.2178 20.78C64.3511 20.4467 63.5978 19.96 62.9578 19.32C62.3311 18.68 61.8378 17.8867 61.4778 16.94C61.1178 15.9933 60.9378 14.9 60.9378 13.66C60.9378 12.4467 61.1245 11.36 61.4978 10.4C61.8711 9.44 62.3778 8.62667 63.0178 7.96C63.6578 7.29333 64.4045 6.78667 65.2578 6.44C66.1245 6.09333 67.0511 5.92 68.0378 5.92C69.1045 5.92 70.0111 6.11333 70.7578 6.5C71.5178 6.88667 72.1378 7.32667 72.6178 7.82L71.0378 9.7C70.6778 9.35333 70.2711 9.06 69.8178 8.82C69.3778 8.58 68.8178 8.46 68.1378 8.46C67.5245 8.46 66.9578 8.58 66.4378 8.82C65.9311 9.04667 65.4911 9.38 65.1178 9.82C64.7578 10.26 64.4711 10.7933 64.2578 11.42C64.0578 12.0467 63.9578 12.76 63.9578 13.56C63.9578 15.1733 64.3245 16.44 65.0578 17.36C65.7911 18.2667 66.8845 18.72 68.3378 18.72C68.6978 18.72 69.0445 18.6733 69.3778 18.58C69.7111 18.4867 69.9845 18.3467 70.1978 18.16V15.24H67.5778V12.82H72.8378V19.5C72.3311 19.9933 71.6645 20.4133 70.8378 20.76C70.0111 21.1067 69.0778 21.28 68.0378 21.28ZM79.8338 21.28C78.8338 21.28 77.8604 21.0933 76.9138 20.72C75.9804 20.3467 75.1538 19.8133 74.4338 19.12L76.1338 17.08C76.6671 17.5733 77.2604 17.9733 77.9138 18.28C78.5804 18.5733 79.2404 18.72 79.8938 18.72C80.6671 18.72 81.2538 18.5667 81.6538 18.26C82.0538 17.9533 82.2538 17.54 82.2538 17.02C82.2538 16.74 82.2004 16.5067 82.0938 16.32C81.9871 16.1333 81.8338 15.9667 81.6338 15.82C81.4471 15.6733 81.2138 15.54 80.9338 15.42C80.6671 15.3 80.3671 15.1667 80.0338 15.02L78.0538 14.18C77.6804 14.02 77.3138 13.8267 76.9538 13.6C76.5938 13.3733 76.2738 13.1 75.9938 12.78C75.7138 12.4467 75.4871 12.0733 75.3138 11.66C75.1404 11.2333 75.0538 10.7467 75.0538 10.2C75.0538 9.6 75.1804 9.04 75.4338 8.52C75.6871 7.98667 76.0404 7.53333 76.4938 7.16C76.9471 6.77333 77.4871 6.47333 78.1138 6.26C78.7404 6.03333 79.4271 5.92 80.1738 5.92C81.0404 5.92 81.8804 6.08667 82.6938 6.42C83.5071 6.74 84.2138 7.20667 84.8138 7.82L83.3138 9.68C82.8471 9.29333 82.3604 8.99333 81.8538 8.78C81.3471 8.56667 80.7871 8.46 80.1738 8.46C79.5204 8.46 79.0004 8.6 78.6138 8.88C78.2271 9.14667 78.0338 9.52667 78.0338 10.02C78.0338 10.2867 78.0938 10.5133 78.2138 10.7C78.3471 10.8867 78.5138 11.0533 78.7138 11.2C78.9271 11.3467 79.1738 11.48 79.4538 11.6C79.7338 11.72 80.0338 11.84 80.3538 11.96L82.2938 12.78C82.7471 12.9667 83.1538 13.18 83.5138 13.42C83.8871 13.66 84.2004 13.94 84.4538 14.26C84.7204 14.58 84.9204 14.9533 85.0538 15.38C85.2004 15.7933 85.2738 16.2667 85.2738 16.8C85.2738 17.4 85.1471 17.9733 84.8937 18.52C84.6538 19.0667 84.3004 19.5467 83.8338 19.96C83.3671 20.36 82.7938 20.68 82.1138 20.92C81.4471 21.16 80.6871 21.28 79.8338 21.28ZM87.2942 6.2H90.5742L93.0942 13.12C93.2542 13.5867 93.4075 14.06 93.5542 14.54C93.7009 15.02 93.8475 15.5 93.9942 15.98H94.0942C94.2542 15.5 94.4009 15.02 94.5342 14.54C94.6809 14.06 94.8342 13.5867 94.9942 13.12L97.4542 6.2H100.734V21H98.0342V14.82C98.0342 14.4733 98.0475 14.0933 98.0742 13.68C98.1009 13.2533 98.1275 12.8267 98.1542 12.4C98.1942 11.96 98.2342 11.5333 98.2742 11.12C98.3142 10.6933 98.3542 10.3067 98.3942 9.96H98.3142L97.1142 13.44L94.8342 19.66H93.1342L90.8342 13.44L89.6542 9.96H89.5742C89.6142 10.3067 89.6542 10.6933 89.6942 11.12C89.7342 11.5333 89.7742 11.96 89.8142 12.4C89.8542 12.8267 89.8875 13.2533 89.9142 13.68C89.9409 14.0933 89.9542 14.4733 89.9542 14.82V21H87.2942V6.2ZM122.676 4.28V22.7H120.176V13.5H118.676V21.88H116.216V16.54L114.736 18.52C113.909 18.08 113.222 17.5 112.676 16.78C112.142 16.06 111.709 15.24 111.376 14.32C111.069 15.3867 110.642 16.34 110.096 17.18C109.549 18.02 108.842 18.6933 107.976 19.2L106.396 17.2C107.076 16.8 107.649 16.3067 108.116 15.72C108.582 15.12 108.956 14.46 109.236 13.74C109.516 13.0067 109.716 12.22 109.836 11.38C109.956 10.54 110.016 9.68 110.016 8.8V8.3H106.996V6.16H115.336V8.3H112.576V8.8C112.576 9.6 112.636 10.3867 112.756 11.16C112.889 11.9333 113.096 12.66 113.376 13.34C113.656 14.0067 114.029 14.6133 114.496 15.16C114.962 15.6933 115.536 16.14 116.216 16.5V4.58H118.676V11.34H120.176V4.28H122.676ZM135.374 8H124.534V5.92H128.614V4.2H131.274V5.92H135.374V8ZM127.954 11.96C127.954 12.4267 128.134 12.78 128.494 13.02C128.868 13.2467 129.354 13.36 129.954 13.36C130.554 13.36 131.034 13.2467 131.394 13.02C131.768 12.78 131.954 12.4267 131.954 11.96C131.954 11.4933 131.768 11.1467 131.394 10.92C131.034 10.6933 130.554 10.58 129.954 10.58C129.354 10.58 128.868 10.6933 128.494 10.92C128.134 11.1467 127.954 11.4933 127.954 11.96ZM134.474 11.96C134.474 12.4667 134.361 12.9267 134.134 13.34C133.921 13.7533 133.614 14.1133 133.214 14.42C132.814 14.7133 132.334 14.9467 131.774 15.12C131.228 15.28 130.621 15.36 129.954 15.36C129.288 15.36 128.674 15.28 128.114 15.12C127.568 14.9467 127.094 14.7133 126.694 14.42C126.294 14.1133 125.981 13.7533 125.754 13.34C125.541 12.9267 125.434 12.4667 125.434 11.96C125.434 11.4667 125.541 11.0133 125.754 10.6C125.981 10.1733 126.294 9.81333 126.694 9.52C127.094 9.22667 127.568 9 128.114 8.84C128.674 8.66667 129.288 8.58 129.954 8.58C130.621 8.58 131.228 8.66667 131.774 8.84C132.334 9 132.814 9.22667 133.214 9.52C133.614 9.81333 133.921 10.1733 134.134 10.6C134.361 11.0133 134.474 11.4667 134.474 11.96ZM126.754 16.6H139.034V22.74H136.394V18.72H126.754V16.6ZM141.474 11.22H139.034V15.84H136.394V4.3H139.034V9.04H141.474V11.22ZM154.093 14.98H151.633V4.64H154.093V8.78H155.533V4.3H158.033V15.56H155.533V10.9H154.093V14.98ZM150.213 14.48C149.453 14.1733 148.806 13.76 148.273 13.24C147.739 12.72 147.306 12.1267 146.973 11.46C146.639 12.2467 146.186 12.9533 145.613 13.58C145.039 14.2067 144.326 14.7 143.473 15.06L142.073 13.02C142.713 12.74 143.259 12.3933 143.713 11.98C144.166 11.5667 144.533 11.12 144.813 10.64C145.106 10.16 145.319 9.65333 145.453 9.12C145.586 8.58667 145.653 8.06 145.653 7.54V5.4H148.193V7.54C148.193 8.03333 148.253 8.52667 148.373 9.02C148.506 9.5 148.713 9.96 148.993 10.4C149.273 10.8267 149.626 11.22 150.053 11.58C150.493 11.94 151.013 12.24 151.613 12.48L150.213 14.48ZM151.793 20.74C152.979 20.74 153.886 20.62 154.513 20.38C155.153 20.14 155.473 19.7733 155.473 19.28C155.473 18.7867 155.153 18.42 154.513 18.18C153.886 17.94 152.979 17.82 151.793 17.82C150.579 17.82 149.653 17.94 149.013 18.18C148.386 18.42 148.073 18.7867 148.073 19.28C148.073 19.7733 148.386 20.14 149.013 20.38C149.653 20.62 150.579 20.74 151.793 20.74ZM151.793 15.84C152.753 15.84 153.619 15.92 154.393 16.08C155.179 16.24 155.846 16.4667 156.393 16.76C156.953 17.0533 157.379 17.4133 157.673 17.84C157.966 18.2667 158.113 18.7467 158.113 19.28C158.113 19.8267 157.966 20.3133 157.673 20.74C157.379 21.1667 156.953 21.5267 156.393 21.82C155.846 22.1133 155.179 22.34 154.393 22.5C153.619 22.66 152.753 22.74 151.793 22.74C150.819 22.74 149.939 22.66 149.153 22.5C148.379 22.34 147.713 22.1133 147.153 21.82C146.606 21.5267 146.179 21.1667 145.873 20.74C145.579 20.3133 145.433 19.8267 145.433 19.28C145.433 18.7467 145.579 18.2667 145.873 17.84C146.179 17.4133 146.606 17.0533 147.153 16.76C147.713 16.4667 148.379 16.24 149.153 16.08C149.939 15.92 150.819 15.84 151.793 15.84ZM167.311 14.46C167.524 13.14 167.658 11.98 167.711 10.98C167.764 9.96667 167.791 9.04667 167.791 8.22H160.911V6.12H170.391V7.62C170.391 8.51333 170.371 9.53333 170.331 10.68C170.291 11.8267 170.144 13.16 169.891 14.68L167.311 14.46ZM165.871 16.76C166.764 16.7333 167.651 16.6933 168.531 16.64C169.424 16.5733 170.291 16.4867 171.131 16.38L171.271 18.28C170.338 18.44 169.384 18.5667 168.411 18.66C167.451 18.7533 166.491 18.8267 165.531 18.88C164.584 18.9333 163.658 18.9733 162.751 19C161.858 19.0133 161.011 19.02 160.211 19.02L159.971 16.86C160.478 16.86 161.004 16.86 161.551 16.86C162.111 16.86 162.684 16.8533 163.271 16.84V11.4H165.871V16.76ZM177.091 13.9H174.611V22.7H171.971V4.28H174.611V11.7H177.091V13.9ZM182.561 9.22C184.227 9.1 185.521 8.81333 186.441 8.36C187.361 7.89333 187.954 7.38 188.221 6.82H183.381V4.78H197.001V6.82H192.141C192.407 7.39333 192.994 7.90667 193.901 8.36C194.821 8.81333 196.121 9.1 197.801 9.22L196.961 11.2C195.187 11.0533 193.734 10.7 192.601 10.14C191.467 9.58 190.661 8.87333 190.181 8.02C189.701 8.86 188.894 9.56667 187.761 10.14C186.627 10.7133 185.181 11.0667 183.421 11.2L182.561 9.22ZM186.401 20.62H196.961V22.58H183.781V17.78H193.881V16.78H183.761V14.86H196.481V19.58H186.401V20.62ZM198.501 11.88V13.94H181.861V11.88H188.841V10.22H191.481V11.88H198.501ZM212.439 18.76H205.479V20.42H212.439V18.76ZM212.439 15H215.059V22.5H202.859V15H205.479V16.76H212.439V15ZM204.739 11.66C205.419 11.66 205.979 11.4667 206.419 11.08C206.859 10.6933 207.079 10.1533 207.079 9.46C207.079 8.76667 206.859 8.22667 206.419 7.84C205.979 7.45333 205.419 7.26 204.739 7.26C204.059 7.26 203.499 7.45333 203.059 7.84C202.633 8.22667 202.419 8.76667 202.419 9.46C202.419 10.1533 202.633 10.6933 203.059 11.08C203.499 11.4667 204.059 11.66 204.739 11.66ZM215.059 4.3V14.2H212.419V10.5H209.499C209.379 11.0067 209.173 11.4667 208.879 11.88C208.586 12.28 208.233 12.6333 207.819 12.94C207.406 13.2333 206.939 13.46 206.419 13.62C205.899 13.78 205.339 13.86 204.739 13.86C204.046 13.86 203.406 13.7533 202.819 13.54C202.233 13.3133 201.719 13.0067 201.279 12.62C200.853 12.2333 200.513 11.7733 200.259 11.24C200.019 10.6933 199.899 10.1 199.899 9.46C199.899 8.82 200.019 8.23333 200.259 7.7C200.513 7.15333 200.853 6.68667 201.279 6.3C201.719 5.91333 202.233 5.61333 202.819 5.4C203.406 5.17333 204.046 5.06 204.739 5.06C205.326 5.06 205.879 5.14 206.399 5.3C206.919 5.46 207.386 5.68667 207.799 5.98C208.213 6.27333 208.559 6.62 208.839 7.02C209.133 7.42 209.346 7.86667 209.479 8.36H212.419V4.3H215.059ZM229.218 14.98H226.758V4.64H229.218V8.78H230.658V4.3H233.158V15.56H230.658V10.9H229.218V14.98ZM225.338 14.48C224.578 14.1733 223.931 13.76 223.398 13.24C222.864 12.72 222.431 12.1267 222.098 11.46C221.764 12.2467 221.311 12.9533 220.738 13.58C220.164 14.2067 219.451 14.7 218.598 15.06L217.198 13.02C217.838 12.74 218.384 12.3933 218.838 11.98C219.291 11.5667 219.658 11.12 219.938 10.64C220.231 10.16 220.444 9.65333 220.578 9.12C220.711 8.58667 220.778 8.06 220.778 7.54V5.4H223.318V7.54C223.318 8.03333 223.378 8.52667 223.498 9.02C223.631 9.5 223.838 9.96 224.118 10.4C224.398 10.8267 224.751 11.22 225.178 11.58C225.618 11.94 226.138 12.24 226.738 12.48L225.338 14.48ZM226.918 20.74C228.104 20.74 229.011 20.62 229.638 20.38C230.278 20.14 230.598 19.7733 230.598 19.28C230.598 18.7867 230.278 18.42 229.638 18.18C229.011 17.94 228.104 17.82 226.918 17.82C225.704 17.82 224.778 17.94 224.138 18.18C223.511 18.42 223.198 18.7867 223.198 19.28C223.198 19.7733 223.511 20.14 224.138 20.38C224.778 20.62 225.704 20.74 226.918 20.74ZM226.918 15.84C227.878 15.84 228.744 15.92 229.518 16.08C230.304 16.24 230.971 16.4667 231.518 16.76C232.078 17.0533 232.504 17.4133 232.798 17.84C233.091 18.2667 233.238 18.7467 233.238 19.28C233.238 19.8267 233.091 20.3133 232.798 20.74C232.504 21.1667 232.078 21.5267 231.518 21.82C230.971 22.1133 230.304 22.34 229.518 22.5C228.744 22.66 227.878 22.74 226.918 22.74C225.944 22.74 225.064 22.66 224.278 22.5C223.504 22.34 222.838 22.1133 222.278 21.82C221.731 21.5267 221.304 21.1667 220.998 20.74C220.704 20.3133 220.558 19.8267 220.558 19.28C220.558 18.7467 220.704 18.2667 220.998 17.84C221.304 17.4133 221.731 17.0533 222.278 16.76C222.838 16.4667 223.504 16.24 224.278 16.08C225.064 15.92 225.944 15.84 226.918 15.84ZM235.596 18.84H238.356L236.876 23.02H234.776L235.596 18.84ZM49.6117 43.14C50.9184 43.1267 52.1451 43.08 53.2917 43C54.4384 42.9067 55.6051 42.76 56.7917 42.56L57.0517 44.74C56.3584 44.86 55.6717 44.96 54.9917 45.04C54.3251 45.12 53.6451 45.1867 52.9517 45.24C52.2717 45.28 51.5651 45.3067 50.8317 45.32C50.1117 45.3333 49.3517 45.34 48.5517 45.34H46.9717V33H55.5717V35.14H49.6117V43.14ZM63.3717 40.28H60.6917V49.76H58.0517V31.3H60.6917V38.1H63.3717V40.28ZM78.8414 35.04H67.9814V32.96H72.0814V31.18H74.7414V32.96H78.8414V35.04ZM71.4214 38.9C71.4214 39.3667 71.6014 39.7133 71.9614 39.94C72.3347 40.1667 72.8214 40.28 73.4214 40.28C74.0214 40.28 74.5014 40.1667 74.8614 39.94C75.2347 39.7133 75.4214 39.3667 75.4214 38.9C75.4214 38.4467 75.2347 38.1067 74.8614 37.88C74.5014 37.6533 74.0214 37.54 73.4214 37.54C72.8214 37.54 72.3347 37.6533 71.9614 37.88C71.6014 38.1067 71.4214 38.4467 71.4214 38.9ZM77.9414 38.9C77.9414 39.4067 77.8281 39.8667 77.6014 40.28C77.3881 40.68 77.0814 41.0267 76.6814 41.32C76.2814 41.6 75.8014 41.82 75.2414 41.98C74.6947 42.14 74.0881 42.22 73.4214 42.22C72.7547 42.22 72.1414 42.14 71.5814 41.98C71.0347 41.82 70.5614 41.6 70.1614 41.32C69.7614 41.0267 69.4481 40.68 69.2214 40.28C69.0081 39.8667 68.9014 39.4067 68.9014 38.9C68.9014 38.4067 69.0081 37.96 69.2214 37.56C69.4481 37.16 69.7614 36.8133 70.1614 36.52C70.5614 36.2267 71.0347 36 71.5814 35.84C72.1414 35.68 72.7547 35.6 73.4214 35.6C74.0881 35.6 74.6947 35.68 75.2414 35.84C75.8014 36 76.2814 36.2267 76.6814 36.52C77.0814 36.8133 77.3881 37.16 77.6014 37.56C77.8281 37.96 77.9414 38.4067 77.9414 38.9ZM73.1214 47.44H79.9214V45.28H73.1214V47.44ZM70.5214 43.2H82.5014V49.5H70.5214V43.2ZM84.9414 38H82.5014V42.4H79.8614V31.32H82.5014V35.84H84.9414V38ZM90.2799 33.38C90.2799 34.5533 90.2465 35.6933 90.1799 36.8C90.1132 37.8933 89.9798 38.96 89.7799 40C89.5799 41.04 89.2999 42.0467 88.9398 43.02C88.5798 43.9933 88.1132 44.94 87.5399 45.86L85.5198 44.74C85.9732 44.02 86.3532 43.3067 86.6598 42.6C86.9665 41.88 87.2132 41.1467 87.3998 40.4C87.5999 39.64 87.7465 38.86 87.8399 38.06C87.9332 37.26 87.9932 36.4133 88.0199 35.52H86.1198V33.38H90.2799ZM95.7199 31.7H98.1599V48.92H95.7199V40.34H93.9599C93.7732 41.4733 93.4932 42.5733 93.1199 43.64C92.7599 44.7067 92.2665 45.74 91.6399 46.74L89.6199 45.62C90.1265 44.8333 90.5399 44.04 90.8598 43.24C91.1799 42.44 91.4265 41.6267 91.5998 40.8C91.7865 39.9733 91.9132 39.1267 91.9799 38.26C92.0599 37.38 92.1132 36.4667 92.1399 35.52H90.8198V33.38H94.3799C94.3799 34.22 94.3665 35.04 94.3399 35.84C94.3132 36.6267 94.2665 37.42 94.1999 38.22H95.7199V31.7ZM101.78 31.3V49.74H99.2599V31.3H101.78ZM122.57 41.88C120.943 41.5867 119.55 41.04 118.39 40.24C117.243 39.4267 116.37 38.4467 115.77 37.3C115.17 38.4333 114.296 39.4067 113.15 40.22C112.003 41.0333 110.623 41.5867 109.01 41.88L107.93 39.7C108.97 39.5267 109.89 39.2333 110.69 38.82C111.49 38.4067 112.163 37.9267 112.71 37.38C113.256 36.82 113.67 36.22 113.95 35.58C114.23 34.9267 114.37 34.28 114.37 33.64V32.32H117.19V33.64C117.19 34.2933 117.33 34.9467 117.61 35.6C117.89 36.2533 118.303 36.8533 118.85 37.4C119.396 37.9467 120.07 38.4267 120.87 38.84C121.67 39.24 122.596 39.5267 123.65 39.7L122.57 41.88ZM124.21 45.42V47.54H107.53V45.42H114.47V41.3H117.11V45.42H124.21ZM133.608 47.8C134.901 47.8 135.848 47.7133 136.448 47.54C137.048 47.3667 137.348 47.0867 137.348 46.7C137.348 46.3133 137.048 46.04 136.448 45.88C135.848 45.7067 134.901 45.62 133.608 45.62C132.328 45.62 131.388 45.7067 130.788 45.88C130.188 46.04 129.888 46.3133 129.888 46.7C129.888 47.0867 130.188 47.3667 130.788 47.54C131.388 47.7133 132.328 47.8 133.608 47.8ZM133.608 43.68C135.648 43.68 137.221 43.9333 138.328 44.44C139.448 44.9467 140.008 45.7 140.008 46.7C140.008 47.6867 139.448 48.4333 138.328 48.94C137.221 49.46 135.648 49.72 133.608 49.72C131.581 49.72 130.008 49.46 128.888 48.94C127.781 48.4333 127.228 47.6867 127.228 46.7C127.228 45.7 127.781 44.9467 128.888 44.44C130.008 43.9333 131.581 43.68 133.608 43.68ZM141.968 40.8V42.86H125.308V40.8H132.308V39.66H127.388V31.78H140.068V33.78H130.008V34.74H139.648V36.66H130.008V37.66H140.208V39.66H134.948V40.8H141.968ZM148.446 43.8C149.073 43.8 149.586 43.6067 149.986 43.22C150.386 42.82 150.586 42.26 150.586 41.54C150.586 40.8467 150.386 40.3 149.986 39.9C149.586 39.5 149.073 39.3 148.446 39.3C147.82 39.3 147.3 39.5 146.886 39.9C146.486 40.3 146.286 40.8533 146.286 41.56C146.286 42.2667 146.486 42.82 146.886 43.22C147.3 43.6067 147.82 43.8 148.446 43.8ZM148.446 37.16C149.113 37.16 149.726 37.2667 150.286 37.48C150.86 37.6933 151.353 38 151.766 38.4C152.18 38.7867 152.5 39.2467 152.726 39.78C152.966 40.3133 153.086 40.9 153.086 41.54C153.086 42.1933 152.966 42.7933 152.726 43.34C152.5 43.8733 152.18 44.34 151.766 44.74C151.353 45.1267 150.86 45.4267 150.286 45.64C149.726 45.8533 149.113 45.96 148.446 45.96C147.78 45.96 147.16 45.8533 146.586 45.64C146.013 45.4267 145.513 45.1267 145.086 44.74C144.673 44.34 144.346 43.8733 144.106 43.34C143.88 42.7933 143.766 42.1933 143.766 41.54C143.766 40.9 143.88 40.3133 144.106 39.78C144.346 39.2467 144.673 38.7867 145.086 38.4C145.513 38 146.013 37.6933 146.586 37.48C147.16 37.2667 147.78 37.16 148.446 37.16ZM149.746 34.02H153.746V36.12H143.026V34.02H147.106V31.62H149.746V34.02ZM160.226 40.68H157.586V49.72H154.946V31.3H157.586V38.5H160.226V40.68ZM175.765 38.38H162.985V31.96H165.625V36.28H175.765V38.38ZM165.465 47.22H175.865V49.34H162.805V43.84H165.465V47.22ZM177.605 40.26V42.38H160.925V40.26H177.605ZM192.015 33.06C192.015 34.4733 191.901 35.8333 191.675 37.14C191.461 38.4333 191.055 39.6667 190.455 40.84C189.855 42 189.028 43.0933 187.975 44.12C186.935 45.1333 185.588 46.0733 183.935 46.94L182.495 44.94C183.935 44.18 185.108 43.3733 186.015 42.52C186.935 41.6667 187.661 40.7333 188.195 39.72L182.935 40.2L182.595 37.98L188.995 37.62C189.088 37.2333 189.168 36.84 189.235 36.44C189.301 36.0267 189.355 35.6 189.395 35.16H183.575V33.06H192.015ZM198.055 31.3V49.72H195.415V40.5H191.975V38.36H195.415V31.3H198.055ZM212.553 34.26H204.973V37.52H212.553V34.26ZM215.133 39.6H202.373V32.16H215.133V39.6ZM217.133 43.66H213.393V49.78H210.753V43.66H206.893V49.78H204.273V43.66H200.453V41.56H217.133V43.66ZM221.831 42.92C223.045 42.8933 224.298 42.82 225.591 42.7C226.885 42.58 228.211 42.3867 229.571 42.12L229.851 44.32C228.278 44.6533 226.738 44.88 225.231 45C223.725 45.12 222.265 45.18 220.851 45.18H219.211V33.04H221.831V42.92ZM233.631 31.28V49.7H230.991V31.28H233.631ZM239.67 43.44C240.35 43.44 241.003 43.4333 241.63 43.42C242.27 43.3933 242.89 43.36 243.49 43.32C244.103 43.28 244.71 43.2333 245.31 43.18C245.91 43.1133 246.523 43.0333 247.15 42.94L247.39 45.04C246.67 45.1467 245.963 45.2333 245.27 45.3C244.577 45.3667 243.877 45.42 243.17 45.46C242.463 45.5 241.737 45.5267 240.99 45.54C240.243 45.5533 239.457 45.56 238.63 45.56H237.03V32.82H246.35V34.96H239.67V37.96H245.59V40.02H239.67V43.44ZM251.39 31.3V49.74H248.73V31.3H251.39Z" fill="#444A59"/>
</svg>
