<svg width="340" height="50" viewBox="0 0 340 50" fill="none" xmlns="http://www.w3.org/2000/svg">
<rect width="340" height="50" rx="5" fill="#41AFE5"/>
<path d="M146.963 19.92C146.963 20.6027 147.037 21.2747 147.187 21.936C147.336 22.5973 147.56 23.216 147.859 23.792C148.157 24.368 148.536 24.8853 148.995 25.344C149.453 25.792 149.997 26.1493 150.627 26.416L149.427 28.128C148.573 27.744 147.859 27.2053 147.283 26.512C146.717 25.808 146.269 25.0027 145.939 24.096C145.608 25.088 145.144 25.9627 144.547 26.72C143.949 27.4773 143.208 28.064 142.323 28.48L141.059 26.736C141.699 26.4587 142.259 26.0853 142.739 25.616C143.219 25.136 143.613 24.5973 143.923 24C144.232 23.392 144.461 22.7413 144.611 22.048C144.771 21.344 144.851 20.6347 144.851 19.92V17.776H146.963V19.92ZM153.459 16.624V31.408H151.347V16.624H153.459ZM163.697 25.008C162.897 24.752 162.22 24.3787 161.665 23.888C161.111 23.3867 160.673 22.8107 160.353 22.16C160.023 22.8747 159.569 23.504 158.993 24.048C158.417 24.592 157.703 25.0027 156.849 25.28L155.745 23.632C156.343 23.44 156.86 23.184 157.297 22.864C157.735 22.544 158.092 22.192 158.369 21.808C158.657 21.4133 158.871 20.992 159.009 20.544C159.148 20.096 159.223 19.6427 159.233 19.184H156.305V17.504H164.273V19.184H161.393C161.404 19.6107 161.479 20.032 161.617 20.448C161.756 20.864 161.959 21.2587 162.225 21.632C162.503 22.0053 162.849 22.3413 163.265 22.64C163.692 22.9387 164.193 23.184 164.769 23.376L163.697 25.008ZM157.729 26.176H167.569V31.392H165.457V27.856H157.729V26.176ZM169.521 21.936H167.569V25.52H165.457V16.64H167.569V20.192H169.521V21.936ZM174.944 26.64C175.445 26.64 175.856 26.4853 176.176 26.176C176.496 25.856 176.656 25.408 176.656 24.832C176.656 24.2773 176.496 23.84 176.176 23.52C175.856 23.2 175.445 23.04 174.944 23.04C174.443 23.04 174.027 23.2 173.696 23.52C173.376 23.84 173.216 24.2827 173.216 24.848C173.216 25.4133 173.376 25.856 173.696 26.176C174.027 26.4853 174.443 26.64 174.944 26.64ZM174.944 21.328C175.477 21.328 175.968 21.4133 176.416 21.584C176.875 21.7547 177.269 22 177.6 22.32C177.931 22.6293 178.187 22.9973 178.368 23.424C178.56 23.8507 178.656 24.32 178.656 24.832C178.656 25.3547 178.56 25.8347 178.368 26.272C178.187 26.6987 177.931 27.072 177.6 27.392C177.269 27.7013 176.875 27.9413 176.416 28.112C175.968 28.2827 175.477 28.368 174.944 28.368C174.411 28.368 173.915 28.2827 173.456 28.112C172.997 27.9413 172.597 27.7013 172.256 27.392C171.925 27.072 171.664 26.6987 171.472 26.272C171.291 25.8347 171.2 25.3547 171.2 24.832C171.2 24.32 171.291 23.8507 171.472 23.424C171.664 22.9973 171.925 22.6293 172.256 22.32C172.597 22 172.997 21.7547 173.456 21.584C173.915 21.4133 174.411 21.328 174.944 21.328ZM175.984 18.816H179.184V20.496H170.608V18.816H173.872V16.896H175.984V18.816ZM184.368 24.144H182.256V31.376H180.144V16.64H182.256V22.4H184.368V24.144ZM193.295 18.16C193.295 19.2907 193.188 20.368 192.975 21.392C192.761 22.4053 192.393 23.3653 191.871 24.272C191.359 25.168 190.671 26.0053 189.807 26.784C188.943 27.552 187.855 28.2507 186.543 28.88L185.439 27.216C186.377 26.768 187.188 26.2827 187.871 25.76C188.553 25.2373 189.124 24.6773 189.583 24.08C190.041 23.472 190.393 22.8213 190.639 22.128C190.895 21.424 191.06 20.6613 191.135 19.84H186.223V18.16H193.295ZM197.679 16.624V31.36H195.551V16.624H197.679Z" fill="white"/>
</svg>
