<svg width="249" height="132" viewBox="0 0 249 132" fill="none" xmlns="http://www.w3.org/2000/svg">
<path d="M21.06 18.6H1.548V14.856H8.892V11.76H13.68V14.856H21.06V18.6ZM7.704 25.728C7.704 26.568 8.028 27.204 8.676 27.636C9.348 28.044 10.224 28.248 11.304 28.248C12.384 28.248 13.248 28.044 13.896 27.636C14.568 27.204 14.904 26.568 14.904 25.728C14.904 24.888 14.568 24.264 13.896 23.856C13.248 23.448 12.384 23.244 11.304 23.244C10.224 23.244 9.348 23.448 8.676 23.856C8.028 24.264 7.704 24.888 7.704 25.728ZM19.44 25.728C19.44 26.64 19.236 27.468 18.828 28.212C18.444 28.956 17.892 29.604 17.172 30.156C16.452 30.684 15.588 31.104 14.58 31.416C13.596 31.704 12.504 31.848 11.304 31.848C10.104 31.848 9 31.704 7.992 31.416C7.008 31.104 6.156 30.684 5.436 30.156C4.716 29.604 4.152 28.956 3.744 28.212C3.36 27.468 3.168 26.64 3.168 25.728C3.168 24.84 3.36 24.024 3.744 23.28C4.152 22.512 4.716 21.864 5.436 21.336C6.156 20.808 7.008 20.4 7.992 20.112C9 19.8 10.104 19.644 11.304 19.644C12.504 19.644 13.596 19.8 14.58 20.112C15.588 20.4 16.452 20.808 17.172 21.336C17.892 21.864 18.444 22.512 18.828 23.28C19.236 24.024 19.44 24.84 19.44 25.728ZM5.544 34.08H27.648V45.132H22.896V37.896H5.544V34.08ZM32.04 24.396H27.648V32.712H22.896V11.94H27.648V20.472H32.04V24.396ZM54.7532 31.164H50.3252V12.552H54.7532V20.004H57.3452V11.94H61.8452V32.208H57.3452V23.82H54.7532V31.164ZM47.7692 30.264C46.4012 29.712 45.2372 28.968 44.2772 28.032C43.3172 27.096 42.5372 26.028 41.9372 24.828C41.3372 26.244 40.5212 27.516 39.4892 28.644C38.4572 29.772 37.1732 30.66 35.6372 31.308L33.1172 27.636C34.2692 27.132 35.2532 26.508 36.0692 25.764C36.8852 25.02 37.5452 24.216 38.0492 23.352C38.5772 22.488 38.9612 21.576 39.2012 20.616C39.4412 19.656 39.5612 18.708 39.5612 17.772V13.92H44.1332V17.772C44.1332 18.66 44.2412 19.548 44.4572 20.436C44.6972 21.3 45.0692 22.128 45.5732 22.92C46.0772 23.688 46.7132 24.396 47.4812 25.044C48.2732 25.692 49.2092 26.232 50.2892 26.664L47.7692 30.264ZM50.6132 41.532C52.7492 41.532 54.3812 41.316 55.5092 40.884C56.6612 40.452 57.2372 39.792 57.2372 38.904C57.2372 38.016 56.6612 37.356 55.5092 36.924C54.3812 36.492 52.7492 36.276 50.6132 36.276C48.4292 36.276 46.7612 36.492 45.6092 36.924C44.4812 37.356 43.9172 38.016 43.9172 38.904C43.9172 39.792 44.4812 40.452 45.6092 40.884C46.7612 41.316 48.4292 41.532 50.6132 41.532ZM50.6132 32.712C52.3412 32.712 53.9012 32.856 55.2932 33.144C56.7092 33.432 57.9092 33.84 58.8932 34.368C59.9012 34.896 60.6692 35.544 61.1972 36.312C61.7252 37.08 61.9892 37.944 61.9892 38.904C61.9892 39.888 61.7252 40.764 61.1972 41.532C60.6692 42.3 59.9012 42.948 58.8932 43.476C57.9092 44.004 56.7092 44.412 55.2932 44.7C53.9012 44.988 52.3412 45.132 50.6132 45.132C48.8612 45.132 47.2772 44.988 45.8612 44.7C44.4692 44.412 43.2692 44.004 42.2612 43.476C41.2772 42.948 40.5092 42.3 39.9572 41.532C39.4292 40.764 39.1652 39.888 39.1652 38.904C39.1652 37.944 39.4292 37.08 39.9572 36.312C40.5092 35.544 41.2772 34.896 42.2612 34.368C43.2692 33.84 44.4692 33.432 45.8612 33.144C47.2772 32.856 48.8612 32.712 50.6132 32.712ZM100.239 35.772H95.4506V11.976H100.239V35.772ZM77.8106 22.488C77.8106 23.832 78.2306 24.888 79.0706 25.656C79.9346 26.4 80.9786 26.772 82.2026 26.772C83.4506 26.772 84.4826 26.4 85.2986 25.656C86.1386 24.888 86.5586 23.832 86.5586 22.488C86.5586 21.12 86.1386 20.064 85.2986 19.32C84.4826 18.552 83.4506 18.168 82.2026 18.168C80.9786 18.168 79.9346 18.552 79.0706 19.32C78.2306 20.064 77.8106 21.12 77.8106 22.488ZM91.2026 22.488C91.2026 23.688 90.9746 24.804 90.5186 25.836C90.0626 26.868 89.4266 27.756 88.6106 28.5C87.7946 29.244 86.8346 29.832 85.7306 30.264C84.6506 30.672 83.4746 30.876 82.2026 30.876C80.9306 30.876 79.7426 30.672 78.6386 30.264C77.5346 29.832 76.5746 29.244 75.7586 28.5C74.9666 27.756 74.3306 26.868 73.8506 25.836C73.3946 24.804 73.1666 23.688 73.1666 22.488C73.1666 21.264 73.3946 20.136 73.8506 19.104C74.3306 18.072 74.9666 17.184 75.7586 16.44C76.5746 15.696 77.5346 15.12 78.6386 14.712C79.7426 14.28 80.9306 14.064 82.2026 14.064C83.4746 14.064 84.6506 14.28 85.7306 14.712C86.8346 15.12 87.7946 15.696 88.6106 16.44C89.4266 17.184 90.0626 18.072 90.5186 19.104C90.9746 20.136 91.2026 21.264 91.2026 22.488ZM101.067 40.74V44.52H78.1706V33.432H82.9226V40.74H101.067ZM106.032 22.272C107.592 22.128 108.972 21.9 110.172 21.588C111.372 21.252 112.392 20.868 113.232 20.436C114.072 19.98 114.744 19.488 115.248 18.96C115.752 18.408 116.1 17.844 116.292 17.268H107.472V13.488H131.988V17.268H123.132C123.324 17.844 123.672 18.408 124.176 18.96C124.68 19.488 125.352 19.98 126.192 20.436C127.032 20.868 128.052 21.252 129.252 21.588C130.452 21.9 131.844 22.128 133.428 22.272L131.772 25.98C128.628 25.692 126.048 25.008 124.032 23.928C122.016 22.848 120.576 21.516 119.712 19.932C118.824 21.516 117.372 22.848 115.356 23.928C113.34 25.008 110.76 25.692 107.616 25.98L106.032 22.272ZM119.64 41.46C124.104 41.46 126.336 40.62 126.336 38.94C126.336 38.076 125.772 37.452 124.644 37.068C123.54 36.66 121.872 36.456 119.64 36.456C117.408 36.456 115.728 36.66 114.6 37.068C113.496 37.452 112.944 38.076 112.944 38.94C112.944 40.62 115.176 41.46 119.64 41.46ZM119.64 32.784C121.44 32.784 123.048 32.928 124.464 33.216C125.88 33.48 127.08 33.876 128.064 34.404C129.072 34.932 129.84 35.58 130.368 36.348C130.896 37.116 131.16 37.98 131.16 38.94C131.16 39.924 130.896 40.8 130.368 41.568C129.84 42.336 129.072 42.984 128.064 43.512C127.08 44.04 125.88 44.436 124.464 44.7C123.048 44.988 121.44 45.132 119.64 45.132C117.84 45.132 116.232 44.988 114.816 44.7C113.4 44.436 112.2 44.04 111.216 43.512C110.232 42.984 109.476 42.336 108.948 41.568C108.42 40.8 108.156 39.924 108.156 38.94C108.156 37.98 108.42 37.116 108.948 36.348C109.476 35.58 110.232 34.932 111.216 34.404C112.2 33.876 113.4 33.48 114.816 33.216C116.232 32.928 117.84 32.784 119.64 32.784ZM134.688 27.24V30.984H104.736V27.24H134.688Z" fill="black"/>
<rect y="36" width="130" height="10" fill="#00B1EA" fill-opacity="0.3"/>
<path d="M5.088 95.72C5.088 96.3813 5.152 97.016 5.28 97.624C5.408 98.232 5.6 98.7973 5.856 99.32C6.112 99.832 6.432 100.296 6.816 100.712C7.2 101.117 7.648 101.453 8.16 101.72L7.392 102.728C6.688 102.333 6.09067 101.805 5.6 101.144C5.10933 100.472 4.736 99.7093 4.48 98.856C4.23467 99.8373 3.86133 100.701 3.36 101.448C2.86933 102.195 2.25067 102.787 1.504 103.224L0.704 102.232C1.216 101.944 1.664 101.581 2.048 101.144C2.44267 100.696 2.768 100.195 3.024 99.64C3.29067 99.0747 3.488 98.4613 3.616 97.8C3.75467 97.1387 3.824 96.4453 3.824 95.72V94.6H1.04V93.528H7.696V94.6H5.088V95.72ZM13.088 91.816V106.184H11.824V98.712H9.936V105.48H8.704V92.152H9.936V97.624H11.824V91.816H13.088ZM23.5988 94.408H15.1348V93.352H18.7028V91.752H20.0148V93.352H23.5988V94.408ZM17.1828 97.752C17.1828 98.232 17.3801 98.616 17.7748 98.904C18.1694 99.1813 18.6974 99.32 19.3588 99.32C20.0201 99.32 20.5481 99.176 20.9428 98.888C21.3481 98.6 21.5508 98.216 21.5508 97.736C21.5508 97.256 21.3481 96.8773 20.9428 96.6C20.5481 96.312 20.0201 96.168 19.3588 96.168C18.6974 96.168 18.1694 96.312 17.7748 96.6C17.3801 96.888 17.1828 97.272 17.1828 97.752ZM22.7988 97.752C22.7988 98.1467 22.7134 98.504 22.5428 98.824C22.3828 99.1333 22.1481 99.4 21.8388 99.624C21.5401 99.848 21.1774 100.024 20.7508 100.152C20.3348 100.269 19.8708 100.328 19.3588 100.328C18.8468 100.328 18.3828 100.269 17.9668 100.152C17.5508 100.024 17.1881 99.848 16.8788 99.624C16.5801 99.4 16.3454 99.128 16.1748 98.808C16.0148 98.488 15.9348 98.1307 15.9348 97.736C15.9348 97.3413 16.0148 96.984 16.1748 96.664C16.3454 96.344 16.5801 96.072 16.8788 95.848C17.1881 95.624 17.5508 95.4533 17.9668 95.336C18.3828 95.208 18.8468 95.144 19.3588 95.144C19.8708 95.144 20.3348 95.208 20.7508 95.336C21.1774 95.4533 21.5401 95.6293 21.8388 95.864C22.1481 96.088 22.3828 96.36 22.5428 96.68C22.7134 97 22.7988 97.3573 22.7988 97.752ZM16.9108 101.592H26.2228V106.2H24.9108V102.664H16.9108V101.592ZM28.3508 96.888H26.2228V100.808H24.9108V91.848H26.2228V95.8H28.3508V96.888ZM36.4775 97.224C35.5335 97.224 34.7815 97.976 34.7815 98.92C34.7815 99.864 35.5335 100.616 36.4775 100.616C37.4215 100.616 38.1735 99.864 38.1735 98.92C38.1735 97.976 37.4215 97.224 36.4775 97.224ZM45.5175 96.136C46.1362 96.0827 46.7335 95.976 47.3095 95.816C47.8962 95.656 48.4135 95.4533 48.8615 95.208C49.3202 94.9627 49.6935 94.6853 49.9815 94.376C50.2695 94.056 50.4348 93.7147 50.4775 93.352H46.0295V92.312H56.6535V93.352H52.2055C52.2482 93.7147 52.4135 94.056 52.7015 94.376C52.9895 94.6853 53.3575 94.9627 53.8055 95.208C54.2535 95.4533 54.7655 95.656 55.3415 95.816C55.9175 95.976 56.5148 96.0827 57.1335 96.136L56.7175 97.128C56.1202 97.064 55.5388 96.9627 54.9735 96.824C54.4082 96.6747 53.8908 96.4827 53.4215 96.248C52.9522 96.0133 52.5362 95.7413 52.1735 95.432C51.8108 95.1227 51.5335 94.776 51.3415 94.392C51.1495 94.776 50.8722 95.1227 50.5095 95.432C50.1575 95.7413 49.7415 96.0133 49.2615 96.248C48.7922 96.4827 48.2748 96.6747 47.7095 96.824C47.1442 96.9627 46.5575 97.064 45.9495 97.128L45.5175 96.136ZM47.7255 105.016H56.5895V106.024H46.4455V102.648H54.8615V101.336H46.3975V100.344H56.1575V103.624H47.7255V105.016ZM57.8215 98.12V99.176H44.8295V98.12H50.6855V96.376H51.9975V98.12H57.8215ZM69.5963 103.08H63.0203V104.936H69.5963V103.08ZM69.5963 100.248H70.9083V105.992H61.7243V100.248H63.0203V102.056H69.5963V100.248ZM63.0043 98.056C63.3563 98.056 63.6816 98.0027 63.9803 97.896C64.2896 97.7787 64.5509 97.624 64.7643 97.432C64.9776 97.2293 65.1429 96.9947 65.2603 96.728C65.3883 96.4507 65.4523 96.1467 65.4523 95.816C65.4523 95.4853 65.3883 95.1867 65.2603 94.92C65.1429 94.6427 64.9776 94.408 64.7643 94.216C64.5509 94.0133 64.2896 93.8587 63.9803 93.752C63.6816 93.6453 63.3563 93.592 63.0043 93.592C62.6523 93.592 62.3216 93.6453 62.0123 93.752C61.7136 93.8587 61.4576 94.0133 61.2443 94.216C61.0309 94.408 60.8603 94.6427 60.7323 94.92C60.6149 95.1867 60.5563 95.4853 60.5563 95.816C60.5563 96.1467 60.6149 96.4507 60.7323 96.728C60.8603 96.9947 61.0309 97.2293 61.2443 97.432C61.4576 97.624 61.7136 97.7787 62.0123 97.896C62.3216 98.0027 62.6523 98.056 63.0043 98.056ZM70.9083 91.848V99.544H69.5803V96.328H66.6683C66.6043 96.7547 66.4709 97.144 66.2683 97.496C66.0656 97.8373 65.8043 98.1307 65.4843 98.376C65.1643 98.6213 64.7909 98.8133 64.3643 98.952C63.9483 99.08 63.4949 99.144 63.0043 99.144C62.4709 99.144 61.9749 99.064 61.5163 98.904C61.0683 98.744 60.6789 98.52 60.3483 98.232C60.0176 97.9333 59.7616 97.5813 59.5803 97.176C59.3989 96.7707 59.3083 96.3173 59.3083 95.816C59.3083 95.3253 59.3989 94.8773 59.5803 94.472C59.7616 94.0667 60.0176 93.72 60.3483 93.432C60.6789 93.1333 61.0683 92.904 61.5163 92.744C61.9749 92.584 62.4709 92.504 63.0043 92.504C63.4843 92.504 63.9323 92.5733 64.3483 92.712C64.7643 92.84 65.1323 93.0267 65.4523 93.272C65.7723 93.5067 66.0336 93.7947 66.2363 94.136C66.4496 94.4667 66.5883 94.84 66.6523 95.256H69.5803V91.848H70.9083ZM86.9331 99.576V96.12H83.6211C83.6851 96.3973 83.7331 96.6907 83.7651 97C83.8078 97.2987 83.8291 97.6133 83.8291 97.944C83.8291 98.2427 83.8131 98.5307 83.7811 98.808C83.7598 99.0747 83.7225 99.3307 83.6691 99.576H86.9331ZM80.2611 101.784C80.6025 101.784 80.9118 101.693 81.1891 101.512C81.4771 101.331 81.7225 101.075 81.9251 100.744C82.1385 100.403 82.3038 99.9973 82.4211 99.528C82.5385 99.0587 82.5971 98.5307 82.5971 97.944C82.5971 97.368 82.5385 96.8453 82.4211 96.376C82.3038 95.896 82.1385 95.4907 81.9251 95.16C81.7225 94.8293 81.4771 94.5733 81.1891 94.392C80.9118 94.2107 80.6025 94.12 80.2611 94.12C79.9198 94.12 79.6051 94.2107 79.3171 94.392C79.0291 94.5733 78.7785 94.8293 78.5651 95.16C78.3625 95.4907 78.2025 95.896 78.0851 96.376C77.9785 96.8453 77.9251 97.368 77.9251 97.944C77.9251 98.5307 77.9785 99.0587 78.0851 99.528C78.2025 99.9973 78.3625 100.403 78.5651 100.744C78.7785 101.075 79.0291 101.331 79.3171 101.512C79.6051 101.693 79.9198 101.784 80.2611 101.784ZM88.2451 91.832V106.216H86.9331V100.648H83.3491C83.0505 101.384 82.6345 101.955 82.1011 102.36C81.5678 102.755 80.9545 102.952 80.2611 102.952C79.7385 102.952 79.2585 102.835 78.8211 102.6C78.3838 102.365 78.0051 102.029 77.6851 101.592C77.3651 101.155 77.1145 100.632 76.9331 100.024C76.7625 99.4053 76.6771 98.712 76.6771 97.944C76.6771 97.176 76.7625 96.488 76.9331 95.88C77.1145 95.2613 77.3651 94.7333 77.6851 94.296C78.0051 93.8587 78.3838 93.5227 78.8211 93.288C79.2585 93.0533 79.7385 92.936 80.2611 92.936C80.9331 92.936 81.5198 93.1227 82.0211 93.496C82.5331 93.8587 82.9438 94.376 83.2531 95.048H86.9331V91.832H88.2451ZM100.708 95.432H93.5879V97.544H100.708V95.432ZM102.02 98.616H92.2919V92.408H93.5879V94.376H100.708V92.408H102.02V98.616ZM103.668 101.4H97.7799V106.2H96.4679V101.4H90.6439V100.344H103.668V101.4ZM116.525 94.136H108.285V93.144H111.757V91.736H113.069V93.144H116.525V94.136ZM110.301 96.792C110.301 97.1653 110.487 97.464 110.861 97.688C111.245 97.912 111.762 98.024 112.413 98.024C113.053 98.024 113.559 97.912 113.933 97.688C114.317 97.464 114.509 97.1653 114.509 96.792C114.509 96.4187 114.317 96.1253 113.933 95.912C113.559 95.688 113.053 95.576 112.413 95.576C111.762 95.576 111.245 95.688 110.861 95.912C110.487 96.1253 110.301 96.4187 110.301 96.792ZM117.053 100.488C116.285 100.627 115.501 100.733 114.701 100.808C113.911 100.883 113.127 100.936 112.349 100.968C111.581 101 110.834 101.021 110.109 101.032C109.383 101.043 108.706 101.048 108.077 101.048L107.933 99.992C108.509 99.992 109.117 99.992 109.757 99.992C110.397 99.9813 111.063 99.9653 111.757 99.944V98.904C110.925 98.8187 110.263 98.5947 109.773 98.232C109.293 97.8693 109.053 97.3893 109.053 96.792C109.053 96.4613 109.133 96.168 109.293 95.912C109.453 95.6453 109.677 95.4213 109.965 95.24C110.263 95.0587 110.615 94.92 111.021 94.824C111.437 94.7173 111.901 94.664 112.413 94.664C112.914 94.664 113.367 94.7173 113.773 94.824C114.189 94.92 114.541 95.0587 114.829 95.24C115.127 95.4213 115.357 95.6453 115.517 95.912C115.677 96.168 115.757 96.4613 115.757 96.792C115.757 97.3787 115.517 97.8587 115.037 98.232C114.557 98.5947 113.901 98.8187 113.069 98.904V99.896C113.73 99.864 114.386 99.8213 115.037 99.768C115.687 99.7147 116.327 99.64 116.957 99.544L117.053 100.488ZM109.677 102.184H119.117V106.184H117.805V103.224H109.677V102.184ZM121.229 97.272H119.117V101.464H117.805V91.848H119.117V96.184H121.229V97.272ZM134.011 102.328H132.699V91.848H134.011V102.328ZM123.851 96.36C123.851 96.712 123.91 97.0373 124.027 97.336C124.155 97.6347 124.326 97.8907 124.539 98.104C124.763 98.3173 125.025 98.4827 125.323 98.6C125.622 98.7173 125.947 98.776 126.299 98.776C126.651 98.776 126.977 98.7173 127.275 98.6C127.585 98.4827 127.851 98.3173 128.075 98.104C128.299 97.8907 128.47 97.6347 128.587 97.336C128.715 97.0373 128.779 96.712 128.779 96.36C128.779 96.008 128.715 95.688 128.587 95.4C128.47 95.112 128.299 94.8613 128.075 94.648C127.851 94.4347 127.585 94.2693 127.275 94.152C126.977 94.0347 126.651 93.976 126.299 93.976C125.947 93.976 125.622 94.0347 125.323 94.152C125.025 94.2693 124.763 94.4347 124.539 94.648C124.326 94.8613 124.155 95.112 124.027 95.4C123.91 95.688 123.851 96.008 123.851 96.36ZM130.059 96.36C130.059 96.8827 129.963 97.3627 129.771 97.8C129.579 98.2267 129.313 98.6 128.971 98.92C128.641 99.2293 128.246 99.4747 127.787 99.656C127.329 99.8267 126.833 99.912 126.299 99.912C125.766 99.912 125.27 99.8267 124.811 99.656C124.363 99.4747 123.969 99.2293 123.627 98.92C123.297 98.6 123.035 98.2267 122.843 97.8C122.662 97.3627 122.571 96.8827 122.571 96.36C122.571 95.848 122.662 95.3787 122.843 94.952C123.035 94.5147 123.297 94.1413 123.627 93.832C123.969 93.512 124.363 93.2667 124.811 93.096C125.27 92.9253 125.766 92.84 126.299 92.84C126.833 92.84 127.329 92.9253 127.787 93.096C128.246 93.2667 128.641 93.512 128.971 93.832C129.313 94.1413 129.579 94.5147 129.771 94.952C129.963 95.3787 130.059 95.848 130.059 96.36ZM134.443 104.792V105.864H124.779V101.256H126.091V104.792H134.443ZM142.954 93.064C141.77 93.064 140.858 93.1973 140.218 93.464C139.578 93.72 139.258 94.088 139.258 94.568C139.258 95.048 139.578 95.4213 140.218 95.688C140.858 95.944 141.77 96.072 142.954 96.072C144.138 96.072 145.05 95.944 145.69 95.688C146.33 95.4213 146.65 95.048 146.65 94.568C146.65 94.088 146.33 93.72 145.69 93.464C145.05 93.1973 144.138 93.064 142.954 93.064ZM142.954 97.048C141.376 97.048 140.138 96.84 139.242 96.424C138.357 95.9973 137.914 95.3787 137.914 94.568C137.914 93.7573 138.357 93.1387 139.242 92.712C140.138 92.2853 141.376 92.072 142.954 92.072C144.533 92.072 145.765 92.2853 146.65 92.712C147.546 93.1387 147.994 93.7573 147.994 94.568C147.994 95.3787 147.546 95.9973 146.65 96.424C145.765 96.84 144.533 97.048 142.954 97.048ZM139.354 105H148.218V106.024H138.074V102.584H146.49V101.304H138.026V100.312H147.786V103.544H139.354V105ZM149.45 98.024V99.08H136.458V98.024H149.45ZM158.515 93.592C158.163 93.592 157.838 93.64 157.539 93.736C157.251 93.8213 157 93.9493 156.787 94.12C156.574 94.28 156.408 94.4773 156.291 94.712C156.174 94.936 156.115 95.1867 156.115 95.464C156.115 95.7413 156.174 95.9973 156.291 96.232C156.408 96.456 156.574 96.6533 156.787 96.824C157 96.984 157.251 97.112 157.539 97.208C157.838 97.2933 158.163 97.336 158.515 97.336C159.219 97.336 159.79 97.1653 160.227 96.824C160.675 96.4827 160.899 96.0293 160.899 95.464C160.899 94.8987 160.675 94.4453 160.227 94.104C159.79 93.7627 159.219 93.592 158.515 93.592ZM158.515 98.408C157.982 98.408 157.491 98.3387 157.043 98.2C156.595 98.0507 156.206 97.848 155.875 97.592C155.555 97.336 155.304 97.0267 155.123 96.664C154.942 96.3013 154.851 95.9013 154.851 95.464C154.851 95.0267 154.942 94.6267 155.123 94.264C155.304 93.9013 155.555 93.592 155.875 93.336C156.206 93.0693 156.595 92.8667 157.043 92.728C157.491 92.5787 157.982 92.504 158.515 92.504C159.048 92.504 159.539 92.5787 159.987 92.728C160.435 92.8667 160.819 93.0693 161.139 93.336C161.459 93.592 161.71 93.9013 161.891 94.264C162.072 94.6267 162.163 95.0267 162.163 95.464C162.163 95.9013 162.072 96.3013 161.891 96.664C161.71 97.0267 161.459 97.336 161.139 97.592C160.819 97.848 160.435 98.0507 159.987 98.2C159.539 98.3387 159.048 98.408 158.515 98.408ZM163.347 100.088C161.992 100.323 160.622 100.483 159.235 100.568V105.736H157.923V100.648C157.208 100.68 156.515 100.701 155.843 100.712C155.182 100.723 154.552 100.728 153.955 100.728L153.779 99.624C154.451 99.624 155.171 99.6187 155.939 99.608C156.718 99.5973 157.512 99.576 158.323 99.544C159.144 99.512 159.971 99.464 160.803 99.4C161.635 99.3253 162.446 99.2293 163.235 99.112L163.347 100.088ZM165.587 91.848V106.2H164.275V91.848H165.587ZM171.602 101.768C171.879 101.768 172.135 101.715 172.37 101.608C172.605 101.501 172.802 101.352 172.962 101.16C173.133 100.957 173.266 100.723 173.362 100.456C173.458 100.189 173.506 99.896 173.506 99.576C173.506 99.2667 173.458 98.9787 173.362 98.712C173.266 98.4453 173.133 98.216 172.962 98.024C172.802 97.832 172.605 97.6827 172.37 97.576C172.135 97.4693 171.879 97.416 171.602 97.416C171.037 97.416 170.578 97.6187 170.226 98.024C169.874 98.4293 169.698 98.9467 169.698 99.576C169.698 99.896 169.741 100.189 169.826 100.456C169.922 100.723 170.055 100.957 170.226 101.16C170.397 101.352 170.599 101.501 170.834 101.608C171.069 101.715 171.325 101.768 171.602 101.768ZM171.602 96.312C172.05 96.312 172.461 96.392 172.834 96.552C173.207 96.712 173.527 96.936 173.794 97.224C174.071 97.512 174.285 97.8587 174.434 98.264C174.594 98.6587 174.674 99.096 174.674 99.576C174.674 100.067 174.594 100.515 174.434 100.92C174.285 101.315 174.071 101.656 173.794 101.944C173.527 102.232 173.207 102.456 172.834 102.616C172.461 102.776 172.05 102.856 171.602 102.856C171.154 102.856 170.743 102.776 170.37 102.616C169.997 102.456 169.671 102.232 169.394 101.944C169.127 101.656 168.914 101.315 168.754 100.92C168.605 100.515 168.53 100.067 168.53 99.576C168.53 99.096 168.605 98.6587 168.754 98.264C168.914 97.8587 169.127 97.512 169.394 97.224C169.671 96.936 169.997 96.712 170.37 96.552C170.743 96.392 171.154 96.312 171.602 96.312ZM172.242 94.28H175.154V95.352H168.034V94.28H170.946V92.248H172.242V94.28ZM180.21 91.816V106.168H178.946V98.952H177.106V105.48H175.874V92.152H177.106V97.88H178.946V91.816H180.21ZM9.36 119.408H0.896V118.352H4.464V116.752H5.776V118.352H9.36V119.408ZM2.944 122.752C2.944 123.232 3.14133 123.616 3.536 123.904C3.93067 124.181 4.45867 124.32 5.12 124.32C5.78133 124.32 6.30933 124.176 6.704 123.888C7.10933 123.6 7.312 123.216 7.312 122.736C7.312 122.256 7.10933 121.877 6.704 121.6C6.30933 121.312 5.78133 121.168 5.12 121.168C4.45867 121.168 3.93067 121.312 3.536 121.6C3.14133 121.888 2.944 122.272 2.944 122.752ZM8.56 122.752C8.56 123.147 8.47467 123.504 8.304 123.824C8.144 124.133 7.90933 124.4 7.6 124.624C7.30133 124.848 6.93867 125.024 6.512 125.152C6.096 125.269 5.632 125.328 5.12 125.328C4.608 125.328 4.144 125.269 3.728 125.152C3.312 125.024 2.94933 124.848 2.64 124.624C2.34133 124.4 2.10667 124.128 1.936 123.808C1.776 123.488 1.696 123.131 1.696 122.736C1.696 122.341 1.776 121.984 1.936 121.664C2.10667 121.344 2.34133 121.072 2.64 120.848C2.94933 120.624 3.312 120.453 3.728 120.336C4.144 120.208 4.608 120.144 5.12 120.144C5.632 120.144 6.096 120.208 6.512 120.336C6.93867 120.453 7.30133 120.629 7.6 120.864C7.90933 121.088 8.144 121.36 8.304 121.68C8.47467 122 8.56 122.357 8.56 122.752ZM2.672 126.592H11.984V131.2H10.672V127.664H2.672V126.592ZM14.112 121.888H11.984V125.808H10.672V116.848H11.984V120.8H14.112V121.888ZM25.2308 119.344H16.4308V118.272H26.5428V119.856C26.5428 120.315 26.5374 120.779 26.5268 121.248C26.5268 121.717 26.5108 122.213 26.4788 122.736C26.4468 123.248 26.3934 123.792 26.3188 124.368C26.2548 124.944 26.1588 125.568 26.0308 126.24L24.7348 126.08C24.9801 124.8 25.1241 123.664 25.1668 122.672C25.2094 121.68 25.2308 120.741 25.2308 119.856V119.344ZM28.0628 128.096V129.168H15.0868V128.096H18.2708V123.344H19.5668V128.096H21.8228V123.344H23.1188V128.096H28.0628ZM44.1676 116.832V131.216H42.8556V116.832H44.1676ZM36.5996 117.936C37.133 117.936 37.6236 118.053 38.0716 118.288C38.5196 118.523 38.9036 118.859 39.2236 119.296C39.5436 119.733 39.7943 120.261 39.9756 120.88C40.157 121.488 40.2476 122.176 40.2476 122.944C40.2476 123.712 40.157 124.405 39.9756 125.024C39.7943 125.632 39.5436 126.155 39.2236 126.592C38.9036 127.029 38.5196 127.365 38.0716 127.6C37.6236 127.835 37.133 127.952 36.5996 127.952C36.0663 127.952 35.5756 127.835 35.1276 127.6C34.6796 127.365 34.2956 127.029 33.9756 126.592C33.6556 126.155 33.405 125.632 33.2236 125.024C33.0423 124.405 32.9516 123.712 32.9516 122.944C32.9516 122.176 33.0423 121.488 33.2236 120.88C33.405 120.261 33.6556 119.733 33.9756 119.296C34.2956 118.859 34.6796 118.523 35.1276 118.288C35.5756 118.053 36.0663 117.936 36.5996 117.936ZM36.5996 119.12C36.2476 119.12 35.9223 119.211 35.6236 119.392C35.3356 119.573 35.085 119.829 34.8716 120.16C34.6583 120.491 34.493 120.896 34.3756 121.376C34.2583 121.845 34.1996 122.368 34.1996 122.944C34.1996 123.531 34.2583 124.059 34.3756 124.528C34.493 124.997 34.6583 125.403 34.8716 125.744C35.085 126.075 35.3356 126.331 35.6236 126.512C35.9223 126.693 36.2476 126.784 36.5996 126.784C36.9516 126.784 37.2716 126.693 37.5596 126.512C37.8476 126.331 38.0983 126.075 38.3116 125.744C38.525 125.403 38.6903 124.997 38.8076 124.528C38.925 124.059 38.9836 123.531 38.9836 122.944C38.9836 122.368 38.925 121.845 38.8076 121.376C38.6903 120.896 38.525 120.491 38.3116 120.16C38.0983 119.829 37.8476 119.573 37.5596 119.392C37.2716 119.211 36.9516 119.12 36.5996 119.12ZM51.4144 119.536H48.4064V126.288H51.4144V119.536ZM54.7584 117.152H56.0064V130.464H54.7584V123.328H52.6304V127.328H47.1744V118.496H52.6304V122.24H54.7584V117.152ZM58.8544 116.832V131.168H57.6064V116.832H58.8544ZM72.6771 124.192H71.3651V116.832H72.6771V124.192ZM62.5011 120.544C62.5011 120.853 62.5598 121.136 62.6771 121.392C62.8051 121.648 62.9758 121.872 63.1891 122.064C63.4131 122.245 63.6691 122.389 63.9571 122.496C64.2558 122.603 64.5811 122.656 64.9331 122.656C65.2851 122.656 65.6105 122.603 65.9091 122.496C66.2078 122.389 66.4638 122.245 66.6771 122.064C66.8905 121.872 67.0558 121.648 67.1731 121.392C67.3011 121.136 67.3651 120.853 67.3651 120.544C67.3651 120.235 67.3011 119.952 67.1731 119.696C67.0558 119.429 66.8905 119.205 66.6771 119.024C66.4638 118.832 66.2078 118.683 65.9091 118.576C65.6105 118.469 65.2851 118.416 64.9331 118.416C64.5811 118.416 64.2558 118.469 63.9571 118.576C63.6691 118.683 63.4131 118.832 63.1891 119.024C62.9758 119.205 62.8051 119.429 62.6771 119.696C62.5598 119.952 62.5011 120.235 62.5011 120.544ZM68.6451 120.544C68.6451 121.013 68.5491 121.445 68.3571 121.84C68.1758 122.224 67.9198 122.555 67.5891 122.832C67.2585 123.109 66.8638 123.328 66.4051 123.488C65.9571 123.637 65.4665 123.712 64.9331 123.712C64.3998 123.712 63.9038 123.637 63.4451 123.488C62.9971 123.328 62.6078 123.109 62.2771 122.832C61.9465 122.555 61.6905 122.224 61.5091 121.84C61.3278 121.445 61.2371 121.013 61.2371 120.544C61.2371 120.064 61.3278 119.632 61.5091 119.248C61.6905 118.853 61.9465 118.517 62.2771 118.24C62.6078 117.952 62.9971 117.733 63.4451 117.584C63.9038 117.424 64.3998 117.344 64.9331 117.344C65.4665 117.344 65.9571 117.424 66.4051 117.584C66.8638 117.733 67.2585 117.952 67.5891 118.24C67.9198 118.517 68.1758 118.853 68.3571 119.248C68.5491 119.632 68.6451 120.064 68.6451 120.544ZM73.1571 129.952V130.992H63.4131V127.392H71.3811V125.936H63.3811V124.896H72.6771V128.368H64.7091V129.952H73.1571ZM88.1639 128.336V129.408H75.1239V128.336H80.9639V125.632H76.7559V121.2H85.2679V118.96H76.7239V117.888H86.5479V122.256H78.0519V124.576H86.8839V125.632H82.2919V128.336H88.1639ZM104.253 127.328H102.941V116.848H104.253V127.328ZM94.0928 121.36C94.0928 121.712 94.1514 122.037 94.2688 122.336C94.3968 122.635 94.5674 122.891 94.7808 123.104C95.0048 123.317 95.2661 123.483 95.5648 123.6C95.8634 123.717 96.1888 123.776 96.5408 123.776C96.8928 123.776 97.2181 123.717 97.5168 123.6C97.8261 123.483 98.0928 123.317 98.3168 123.104C98.5408 122.891 98.7114 122.635 98.8288 122.336C98.9568 122.037 99.0208 121.712 99.0208 121.36C99.0208 121.008 98.9568 120.688 98.8288 120.4C98.7114 120.112 98.5408 119.861 98.3168 119.648C98.0928 119.435 97.8261 119.269 97.5168 119.152C97.2181 119.035 96.8928 118.976 96.5408 118.976C96.1888 118.976 95.8634 119.035 95.5648 119.152C95.2661 119.269 95.0048 119.435 94.7808 119.648C94.5674 119.861 94.3968 120.112 94.2688 120.4C94.1514 120.688 94.0928 121.008 94.0928 121.36ZM100.301 121.36C100.301 121.883 100.205 122.363 100.013 122.8C99.8208 123.227 99.5541 123.6 99.2128 123.92C98.8821 124.229 98.4874 124.475 98.0288 124.656C97.5701 124.827 97.0741 124.912 96.5408 124.912C96.0074 124.912 95.5114 124.827 95.0528 124.656C94.6048 124.475 94.2101 124.229 93.8688 123.92C93.5381 123.6 93.2768 123.227 93.0848 122.8C92.9034 122.363 92.8128 121.883 92.8128 121.36C92.8128 120.848 92.9034 120.379 93.0848 119.952C93.2768 119.515 93.5381 119.141 93.8688 118.832C94.2101 118.512 94.6048 118.267 95.0528 118.096C95.5114 117.925 96.0074 117.84 96.5408 117.84C97.0741 117.84 97.5701 117.925 98.0288 118.096C98.4874 118.267 98.8821 118.512 99.2128 118.832C99.5541 119.141 99.8208 119.515 100.013 119.952C100.205 120.379 100.301 120.848 100.301 121.36ZM104.685 129.792V130.864H95.0208V126.256H96.3328V129.792H104.685ZM107.452 121.744C108.092 121.68 108.7 121.557 109.276 121.376C109.862 121.184 110.38 120.955 110.828 120.688C111.286 120.411 111.649 120.101 111.916 119.76C112.193 119.408 112.342 119.029 112.364 118.624H107.916V117.568H118.524V118.624H114.06C114.07 119.029 114.214 119.408 114.492 119.76C114.769 120.101 115.132 120.411 115.58 120.688C116.038 120.955 116.556 121.184 117.132 121.376C117.718 121.557 118.332 121.68 118.972 121.744L118.508 122.784C117.921 122.709 117.35 122.592 116.796 122.432C116.241 122.272 115.729 122.069 115.26 121.824C114.801 121.568 114.39 121.28 114.028 120.96C113.676 120.64 113.404 120.283 113.212 119.888C113.009 120.283 112.726 120.64 112.364 120.96C112.012 121.28 111.601 121.568 111.132 121.824C110.673 122.069 110.166 122.272 109.612 122.432C109.068 122.592 108.502 122.709 107.916 122.784L107.452 121.744ZM113.196 130.128C114.326 130.128 115.206 129.995 115.836 129.728C116.465 129.461 116.78 129.072 116.78 128.56C116.78 128.059 116.465 127.675 115.836 127.408C115.206 127.131 114.326 126.992 113.196 126.992C112.065 126.992 111.185 127.131 110.556 127.408C109.926 127.675 109.612 128.059 109.612 128.56C109.612 129.072 109.926 129.461 110.556 129.728C111.185 129.995 112.065 130.128 113.196 130.128ZM113.196 125.968C113.964 125.968 114.646 126.027 115.244 126.144C115.852 126.251 116.369 126.416 116.796 126.64C117.222 126.864 117.548 127.136 117.772 127.456C117.996 127.776 118.108 128.144 118.108 128.56C118.108 128.976 117.996 129.349 117.772 129.68C117.548 130 117.222 130.272 116.796 130.496C116.369 130.72 115.852 130.885 115.244 130.992C114.646 131.109 113.964 131.168 113.196 131.168C111.66 131.168 110.454 130.944 109.58 130.496C108.716 130.048 108.284 129.403 108.284 128.56C108.284 127.728 108.716 127.088 109.58 126.64C110.454 126.192 111.66 125.968 113.196 125.968ZM119.692 123.664V124.72H106.716V123.664H119.692ZM128.804 119.536H125.796V126.288H128.804V119.536ZM132.148 117.152H133.396V130.464H132.148V123.328H130.02V127.328H124.564V118.496H130.02V122.24H132.148V117.152ZM136.244 116.832V131.168H134.996V116.832H136.244ZM150.067 124.192H148.755V116.832H150.067V124.192ZM139.891 120.544C139.891 120.853 139.95 121.136 140.067 121.392C140.195 121.648 140.366 121.872 140.579 122.064C140.803 122.245 141.059 122.389 141.347 122.496C141.646 122.603 141.971 122.656 142.323 122.656C142.675 122.656 143 122.603 143.299 122.496C143.598 122.389 143.854 122.245 144.067 122.064C144.28 121.872 144.446 121.648 144.563 121.392C144.691 121.136 144.755 120.853 144.755 120.544C144.755 120.235 144.691 119.952 144.563 119.696C144.446 119.429 144.28 119.205 144.067 119.024C143.854 118.832 143.598 118.683 143.299 118.576C143 118.469 142.675 118.416 142.323 118.416C141.971 118.416 141.646 118.469 141.347 118.576C141.059 118.683 140.803 118.832 140.579 119.024C140.366 119.205 140.195 119.429 140.067 119.696C139.95 119.952 139.891 120.235 139.891 120.544ZM146.035 120.544C146.035 121.013 145.939 121.445 145.747 121.84C145.566 122.224 145.31 122.555 144.979 122.832C144.648 123.109 144.254 123.328 143.795 123.488C143.347 123.637 142.856 123.712 142.323 123.712C141.79 123.712 141.294 123.637 140.835 123.488C140.387 123.328 139.998 123.109 139.667 122.832C139.336 122.555 139.08 122.224 138.899 121.84C138.718 121.445 138.627 121.013 138.627 120.544C138.627 120.064 138.718 119.632 138.899 119.248C139.08 118.853 139.336 118.517 139.667 118.24C139.998 117.952 140.387 117.733 140.835 117.584C141.294 117.424 141.79 117.344 142.323 117.344C142.856 117.344 143.347 117.424 143.795 117.584C144.254 117.733 144.648 117.952 144.979 118.24C145.31 118.517 145.566 118.853 145.747 119.248C145.939 119.632 146.035 120.064 146.035 120.544ZM150.547 129.952V130.992H140.803V127.392H148.771V125.936H140.771V124.896H150.067V128.368H142.099V129.952H150.547ZM159.01 118.064C157.826 118.064 156.914 118.197 156.274 118.464C155.634 118.72 155.314 119.088 155.314 119.568C155.314 120.048 155.634 120.421 156.274 120.688C156.914 120.944 157.826 121.072 159.01 121.072C160.194 121.072 161.106 120.944 161.746 120.688C162.386 120.421 162.706 120.048 162.706 119.568C162.706 119.088 162.386 118.72 161.746 118.464C161.106 118.197 160.194 118.064 159.01 118.064ZM159.01 122.048C157.431 122.048 156.194 121.84 155.298 121.424C154.413 120.997 153.97 120.379 153.97 119.568C153.97 118.757 154.413 118.139 155.298 117.712C156.194 117.285 157.431 117.072 159.01 117.072C160.589 117.072 161.821 117.285 162.706 117.712C163.602 118.139 164.05 118.757 164.05 119.568C164.05 120.379 163.602 120.997 162.706 121.424C161.821 121.84 160.589 122.048 159.01 122.048ZM155.41 130H164.274V131.024H154.13V127.584H162.546V126.304H154.082V125.312H163.842V128.544H155.41V130ZM165.506 123.024V124.08H152.514V123.024H165.506ZM180.363 120.8V116.848H181.691V127.36H180.363V121.872H177.483V120.8H180.363ZM177.675 125.2C176.875 124.912 176.176 124.485 175.579 123.92C174.981 123.344 174.528 122.688 174.219 121.952C173.909 122.773 173.44 123.499 172.811 124.128C172.181 124.747 171.445 125.211 170.603 125.52L169.915 124.496C170.448 124.304 170.933 124.048 171.371 123.728C171.819 123.397 172.203 123.029 172.523 122.624C172.843 122.208 173.088 121.76 173.259 121.28C173.44 120.8 173.531 120.304 173.531 119.792V119.072H170.331V118H177.995V119.072H174.843V119.776C174.843 120.245 174.928 120.704 175.099 121.152C175.269 121.6 175.504 122.016 175.803 122.4C176.112 122.784 176.48 123.131 176.907 123.44C177.333 123.749 177.808 123.995 178.331 124.176L177.675 125.2ZM182.091 129.792V130.864H172.507V126.432H173.835V129.792H182.091ZM195.802 122.592C195.258 122.496 194.719 122.357 194.186 122.176C193.663 121.995 193.172 121.771 192.714 121.504C192.255 121.237 191.839 120.933 191.466 120.592C191.103 120.24 190.81 119.861 190.586 119.456C190.362 119.861 190.068 120.24 189.706 120.592C189.343 120.933 188.932 121.237 188.474 121.504C188.015 121.771 187.519 121.995 186.986 122.176C186.463 122.357 185.93 122.496 185.386 122.592L184.89 121.552C185.53 121.467 186.148 121.307 186.746 121.072C187.354 120.837 187.892 120.549 188.362 120.208C188.831 119.867 189.204 119.483 189.482 119.056C189.77 118.629 189.914 118.176 189.914 117.696V117.056H191.258V117.696C191.258 118.176 191.396 118.629 191.674 119.056C191.962 119.483 192.34 119.867 192.81 120.208C193.29 120.549 193.828 120.837 194.426 121.072C195.034 121.307 195.658 121.467 196.298 121.552L195.802 122.592ZM190.586 130.16C191.727 130.16 192.607 130.037 193.226 129.792C193.855 129.536 194.17 129.168 194.17 128.688C194.17 128.208 193.855 127.845 193.226 127.6C192.607 127.344 191.727 127.216 190.586 127.216C189.444 127.216 188.559 127.344 187.93 127.6C187.311 127.845 187.002 128.208 187.002 128.688C187.002 129.168 187.311 129.536 187.93 129.792C188.559 130.037 189.444 130.16 190.586 130.16ZM190.586 126.208C192.122 126.208 193.322 126.421 194.186 126.848C195.06 127.275 195.498 127.888 195.498 128.688C195.498 129.488 195.06 130.101 194.186 130.528C193.322 130.955 192.122 131.168 190.586 131.168C189.05 131.168 187.844 130.955 186.97 130.528C186.106 130.101 185.674 129.488 185.674 128.688C185.674 127.888 186.106 127.275 186.97 126.848C187.844 126.421 189.05 126.208 190.586 126.208ZM197.082 123.952V125.008H184.106V123.952H189.93V121.84H191.242V123.952H197.082ZM206.856 119.36H198.392V118.304H201.96V116.688H203.272V118.304H206.856V119.36ZM200.44 122.544C200.44 123.024 200.638 123.397 201.032 123.664C201.427 123.931 201.955 124.064 202.616 124.064C203.278 124.064 203.806 123.931 204.2 123.664C204.606 123.397 204.808 123.024 204.808 122.544C204.808 122.075 204.606 121.707 204.2 121.44C203.806 121.163 203.278 121.024 202.616 121.024C201.955 121.024 201.427 121.163 201.032 121.44C200.638 121.707 200.44 122.075 200.44 122.544ZM206.056 122.544C206.056 122.928 205.971 123.275 205.8 123.584C205.64 123.893 205.406 124.16 205.096 124.384C204.798 124.597 204.435 124.763 204.008 124.88C203.592 124.997 203.128 125.056 202.616 125.056C202.104 125.056 201.635 124.997 201.208 124.88C200.792 124.763 200.435 124.597 200.136 124.384C199.838 124.16 199.603 123.893 199.432 123.584C199.272 123.275 199.192 122.928 199.192 122.544C199.192 122.16 199.272 121.819 199.432 121.52C199.603 121.211 199.838 120.949 200.136 120.736C200.435 120.512 200.792 120.341 201.208 120.224C201.635 120.107 202.104 120.048 202.616 120.048C203.128 120.048 203.592 120.107 204.008 120.224C204.435 120.341 204.798 120.512 205.096 120.736C205.406 120.949 205.64 121.211 205.8 121.52C205.971 121.819 206.056 122.16 206.056 122.544ZM208.184 128.352H201.752V129.936H208.184V128.352ZM208.184 125.808H209.48V130.992H200.456V125.808H201.752V127.328H208.184V125.808ZM211.608 121.584H209.48V125.168H208.168V116.832H209.48V120.48H211.608V121.584ZM214.791 126.352C215.879 126.352 216.978 126.304 218.087 126.208C219.207 126.101 220.364 125.925 221.559 125.68L221.703 126.8C220.444 127.056 219.244 127.232 218.103 127.328C216.962 127.424 215.815 127.472 214.663 127.472H213.479V118.224H214.791V126.352ZM224.343 116.832V131.168H223.031V116.832H224.343ZM228.742 126.512C229.382 126.512 229.979 126.507 230.534 126.496C231.088 126.475 231.627 126.448 232.15 126.416C232.672 126.373 233.179 126.325 233.67 126.272C234.171 126.208 234.683 126.128 235.206 126.032L235.35 127.12C234.806 127.227 234.272 127.312 233.75 127.376C233.227 127.44 232.694 127.493 232.15 127.536C231.606 127.568 231.04 127.595 230.454 127.616C229.867 127.627 229.238 127.632 228.566 127.632H227.43V118.208H234.102V119.296H228.742V126.512ZM240.23 123.584H237.862V131.216H236.55V116.832H237.862V122.496H240.23V123.584ZM242.436 130.208C242.148 130.208 241.898 130.107 241.684 129.904C241.482 129.701 241.38 129.435 241.38 129.104C241.38 128.773 241.482 128.501 241.684 128.288C241.898 128.075 242.148 127.968 242.436 127.968C242.724 127.968 242.97 128.075 243.172 128.288C243.386 128.501 243.492 128.773 243.492 129.104C243.492 129.435 243.386 129.701 243.172 129.904C242.97 130.107 242.724 130.208 242.436 130.208Z" fill="black"/>
</svg>
