<svg width="9" height="10" viewBox="0 0 9 10" fill="none" xmlns="http://www.w3.org/2000/svg">
<path d="M8.22039 2.29H0.720391V1.3H3.83039V0.579999H5.15039V1.3H8.22039V2.29ZM2.59039 8.78H6.36039V8.05H2.59039V8.78ZM1.30039 7.08H7.66039V9.75H1.30039V7.08ZM2.82039 3.83C2.82039 3.98333 2.95372 4.09333 3.22039 4.16C3.49372 4.22667 3.91706 4.26 4.49039 4.26C5.07039 4.26 5.49372 4.22667 5.76039 4.16C6.02706 4.09333 6.16039 3.98333 6.16039 3.83C6.16039 3.67667 6.02706 3.57 5.76039 3.51C5.49372 3.44333 5.07039 3.41 4.49039 3.41C3.91706 3.41 3.49372 3.44333 3.22039 3.51C2.95372 3.57 2.82039 3.67667 2.82039 3.83ZM8.66039 5.58V6.6H0.320391V5.58H3.83039V5.12C3.05039 5.07333 2.45039 4.94333 2.03039 4.73C1.61706 4.51667 1.41039 4.21667 1.41039 3.83C1.41039 3.39 1.67372 3.06333 2.20039 2.85C2.73372 2.63 3.49706 2.52 4.49039 2.52C5.48372 2.52 6.24706 2.63 6.78039 2.85C7.31372 3.06333 7.58039 3.39 7.58039 3.83C7.58039 4.21667 7.37039 4.51667 6.95039 4.73C6.53706 4.94333 5.93706 5.07333 5.15039 5.12V5.58H8.66039Z" fill="#41AFE5"/>
</svg>
