<svg width="110" height="20" viewBox="0 0 110 20" fill="none" xmlns="http://www.w3.org/2000/svg">
<path d="M7.604 18.42C6.584 18.42 5.612 18.264 4.688 17.952C3.776 17.64 2.972 17.166 2.276 16.53C1.58 15.906 1.028 15.12 0.62 14.172C0.212 13.212 0.00800003 12.096 0.00800003 10.824C0.00800003 9.42 0.248 8.142 0.728 6.99C1.208 5.838 1.856 4.854 2.672 4.038C3.5 3.21 4.46 2.574 5.552 2.13C6.644 1.686 7.802 1.464 9.026 1.464C10.106 1.464 11.084 1.638 11.96 1.986C12.836 2.334 13.58 2.826 14.192 3.462C14.816 4.086 15.29 4.836 15.614 5.712C15.95 6.588 16.118 7.548 16.118 8.592C16.118 9.516 15.98 10.326 15.704 11.022C15.428 11.718 15.074 12.3 14.642 12.768C14.21 13.224 13.724 13.572 13.184 13.812C12.656 14.04 12.134 14.154 11.618 14.154C11.042 14.154 10.538 14.022 10.106 13.758C9.686 13.494 9.428 13.11 9.332 12.606H9.296C9.152 12.81 8.978 12.996 8.774 13.164C8.582 13.332 8.378 13.476 8.162 13.596C7.946 13.716 7.724 13.812 7.496 13.884C7.268 13.944 7.046 13.974 6.83 13.974C6.05 13.974 5.414 13.704 4.922 13.164C4.442 12.624 4.202 11.886 4.202 10.95C4.202 10.35 4.304 9.756 4.508 9.168C4.712 8.58 4.994 8.052 5.354 7.584C5.714 7.116 6.14 6.738 6.632 6.45C7.136 6.162 7.682 6.018 8.27 6.018C8.618 6.018 8.924 6.102 9.188 6.27C9.452 6.426 9.668 6.678 9.836 7.026H9.872L10.16 6.18H11.798L10.916 10.572C10.604 11.856 10.928 12.498 11.888 12.498C12.2 12.498 12.506 12.408 12.806 12.228C13.106 12.048 13.376 11.796 13.616 11.472C13.856 11.136 14.048 10.734 14.192 10.266C14.336 9.798 14.408 9.27 14.408 8.682C14.408 7.926 14.3 7.212 14.084 6.54C13.868 5.856 13.532 5.262 13.076 4.758C12.62 4.242 12.038 3.84 11.33 3.552C10.634 3.252 9.794 3.102 8.81 3.102C7.922 3.102 7.058 3.282 6.218 3.642C5.39 4.002 4.646 4.518 3.986 5.19C3.326 5.85 2.798 6.654 2.402 7.602C2.006 8.538 1.808 9.588 1.808 10.752C1.808 11.76 1.964 12.642 2.276 13.398C2.6 14.142 3.032 14.766 3.572 15.27C4.124 15.774 4.766 16.152 5.498 16.404C6.23 16.656 7.004 16.782 7.82 16.782C8.372 16.782 8.924 16.704 9.476 16.548C10.04 16.392 10.538 16.194 10.97 15.954L11.564 17.43C10.952 17.778 10.316 18.03 9.656 18.186C9.008 18.342 8.324 18.42 7.604 18.42ZM7.388 12.3C7.628 12.3 7.862 12.222 8.09 12.066C8.33 11.91 8.594 11.652 8.882 11.292L9.404 8.412C9.14 7.968 8.786 7.746 8.342 7.746C8.018 7.746 7.724 7.848 7.46 8.052C7.196 8.244 6.968 8.49 6.776 8.79C6.596 9.09 6.452 9.42 6.344 9.78C6.248 10.14 6.2 10.482 6.2 10.806C6.2 11.31 6.308 11.688 6.524 11.94C6.752 12.18 7.04 12.3 7.388 12.3ZM26.1692 19.374C25.5692 19.374 25.0112 19.32 24.4952 19.212C23.9912 19.116 23.5472 18.96 23.1632 18.744C22.7912 18.528 22.4972 18.258 22.2812 17.934C22.0652 17.61 21.9572 17.226 21.9572 16.782C21.9572 16.362 22.0832 15.972 22.3352 15.612C22.5872 15.264 22.9412 14.958 23.3972 14.694V14.604C23.1332 14.436 22.9112 14.22 22.7312 13.956C22.5632 13.68 22.4792 13.332 22.4792 12.912C22.4792 12.528 22.5872 12.174 22.8032 11.85C23.0312 11.514 23.2952 11.238 23.5952 11.022V10.95C23.2472 10.698 22.9352 10.344 22.6592 9.888C22.3952 9.432 22.2632 8.91 22.2632 8.322C22.2632 7.734 22.3712 7.212 22.5872 6.756C22.8152 6.3 23.1152 5.916 23.4872 5.604C23.8712 5.292 24.3032 5.058 24.7832 4.902C25.2752 4.746 25.7912 4.668 26.3312 4.668C26.6072 4.668 26.8772 4.692 27.1412 4.74C27.4052 4.788 27.6392 4.848 27.8432 4.92H31.4792V6.864H29.7512C29.8832 7.032 29.9912 7.254 30.0752 7.53C30.1712 7.794 30.2192 8.082 30.2192 8.394C30.2192 8.958 30.1172 9.456 29.9132 9.888C29.7092 10.308 29.4332 10.662 29.0852 10.95C28.7372 11.238 28.3232 11.454 27.8432 11.598C27.3752 11.742 26.8712 11.814 26.3312 11.814C26.1272 11.814 25.9112 11.796 25.6832 11.76C25.4672 11.712 25.2512 11.652 25.0352 11.58C24.8912 11.7 24.7832 11.826 24.7112 11.958C24.6392 12.078 24.6032 12.24 24.6032 12.444C24.6032 12.72 24.7172 12.93 24.9452 13.074C25.1732 13.206 25.5872 13.272 26.1872 13.272H27.8972C29.1212 13.272 30.0512 13.47 30.6872 13.866C31.3232 14.262 31.6412 14.904 31.6412 15.792C31.6412 16.296 31.5152 16.764 31.2632 17.196C31.0112 17.64 30.6452 18.024 30.1652 18.348C29.6972 18.672 29.1212 18.924 28.4372 19.104C27.7652 19.284 27.0092 19.374 26.1692 19.374ZM26.3312 10.176C26.7752 10.176 27.1472 10.02 27.4472 9.708C27.7472 9.384 27.8972 8.922 27.8972 8.322C27.8972 7.722 27.7472 7.266 27.4472 6.954C27.1592 6.63 26.7872 6.468 26.3312 6.468C25.8752 6.468 25.4972 6.63 25.1972 6.954C24.8972 7.266 24.7472 7.722 24.7472 8.322C24.7472 8.922 24.8972 9.384 25.1972 9.708C25.5092 10.02 25.8872 10.176 26.3312 10.176ZM26.5652 17.7C27.3212 17.7 27.9332 17.556 28.4012 17.268C28.8812 16.98 29.1212 16.638 29.1212 16.242C29.1212 15.882 28.9772 15.642 28.6892 15.522C28.4012 15.402 27.9872 15.342 27.4472 15.342H26.2232C25.9112 15.342 25.6412 15.33 25.4132 15.306C25.1972 15.282 24.9992 15.246 24.8192 15.198C24.3752 15.558 24.1532 15.948 24.1532 16.368C24.1532 16.788 24.3692 17.112 24.8012 17.34C25.2332 17.58 25.8212 17.7 26.5652 17.7ZM36.2434 15.252C35.5594 15.252 34.8754 15.12 34.1914 14.856C33.5074 14.592 32.9134 14.25 32.4094 13.83L33.6154 12.174C34.0714 12.522 34.5154 12.792 34.9474 12.984C35.3914 13.176 35.8474 13.272 36.3154 13.272C36.8194 13.272 37.1854 13.176 37.4134 12.984C37.6534 12.78 37.7734 12.522 37.7734 12.21C37.7734 12.018 37.7134 11.856 37.5934 11.724C37.4734 11.58 37.3114 11.448 37.1074 11.328C36.9154 11.208 36.6934 11.1 36.4414 11.004C36.1894 10.908 35.9314 10.806 35.6674 10.698C35.3434 10.578 35.0194 10.44 34.6954 10.284C34.3714 10.116 34.0774 9.918 33.8134 9.69C33.5494 9.45 33.3334 9.174 33.1654 8.862C32.9974 8.55 32.9134 8.184 32.9134 7.764C32.9134 7.308 33.0034 6.894 33.1834 6.522C33.3634 6.138 33.6154 5.808 33.9394 5.532C34.2634 5.256 34.6534 5.046 35.1094 4.902C35.5774 4.746 36.0934 4.668 36.6574 4.668C37.4014 4.668 38.0554 4.8 38.6194 5.064C39.1834 5.316 39.6754 5.598 40.0954 5.91L38.9074 7.512C38.5474 7.26 38.1874 7.056 37.8274 6.9C37.4794 6.732 37.1134 6.648 36.7294 6.648C36.2734 6.648 35.9374 6.738 35.7214 6.918C35.5054 7.098 35.3974 7.332 35.3974 7.62C35.3974 7.8 35.4514 7.956 35.5594 8.088C35.6794 8.22 35.8354 8.34 36.0274 8.448C36.2194 8.556 36.4354 8.658 36.6754 8.754C36.9274 8.838 37.1854 8.928 37.4494 9.024C37.7854 9.156 38.1154 9.3 38.4394 9.456C38.7754 9.612 39.0754 9.804 39.3394 10.032C39.6154 10.26 39.8374 10.542 40.0054 10.878C40.1734 11.202 40.2574 11.598 40.2574 12.066C40.2574 12.51 40.1674 12.924 39.9874 13.308C39.8194 13.692 39.5674 14.028 39.2314 14.316C38.8954 14.604 38.4754 14.832 37.9714 15C37.4794 15.168 36.9034 15.252 36.2434 15.252ZM42.2755 4.92H44.4355L44.6155 6.27H44.6875C45.1075 5.826 45.5635 5.448 46.0555 5.136C46.5475 4.824 47.1235 4.668 47.7835 4.668C48.5035 4.668 49.0855 4.824 49.5295 5.136C49.9735 5.436 50.3155 5.868 50.5555 6.432C51.0115 5.94 51.4915 5.526 51.9955 5.19C52.5115 4.842 53.0995 4.668 53.7595 4.668C54.8395 4.668 55.6315 5.028 56.1355 5.748C56.6395 6.456 56.8915 7.446 56.8915 8.718V15H54.2455V9.042C54.2455 8.262 54.1315 7.716 53.9035 7.404C53.6755 7.092 53.3215 6.936 52.8415 6.936C52.2655 6.936 51.6175 7.314 50.8975 8.07V15H48.2515V9.042C48.2515 8.262 48.1375 7.716 47.9095 7.404C47.6815 7.092 47.3275 6.936 46.8475 6.936C46.2715 6.936 45.6235 7.314 44.9035 8.07V15H42.2755V4.92ZM61.1191 15.252C60.6511 15.252 60.2611 15.09 59.9491 14.766C59.6371 14.43 59.4811 14.016 59.4811 13.524C59.4811 13.032 59.6371 12.624 59.9491 12.3C60.2611 11.964 60.6511 11.796 61.1191 11.796C61.5991 11.796 61.9951 11.964 62.3071 12.3C62.6191 12.624 62.7751 13.032 62.7751 13.524C62.7751 14.016 62.6191 14.43 62.3071 14.766C61.9951 15.09 61.5991 15.252 61.1191 15.252ZM65.4786 0.635999H68.1066V4.254L67.9986 6.144C68.4066 5.76 68.8626 5.418 69.3666 5.118C69.8826 4.818 70.4826 4.668 71.1666 4.668C72.2586 4.668 73.0506 5.028 73.5426 5.748C74.0346 6.456 74.2806 7.446 74.2806 8.718V15H71.6346V9.042C71.6346 8.262 71.5206 7.716 71.2926 7.404C71.0766 7.092 70.7166 6.936 70.2126 6.936C69.7926 6.936 69.4326 7.032 69.1326 7.224C68.8326 7.416 68.4906 7.698 68.1066 8.07V15H65.4786V0.635999ZM79.8723 15.252C79.1883 15.252 78.5043 15.12 77.8203 14.856C77.1363 14.592 76.5423 14.25 76.0383 13.83L77.2443 12.174C77.7003 12.522 78.1443 12.792 78.5763 12.984C79.0203 13.176 79.4763 13.272 79.9443 13.272C80.4483 13.272 80.8143 13.176 81.0423 12.984C81.2823 12.78 81.4023 12.522 81.4023 12.21C81.4023 12.018 81.3423 11.856 81.2223 11.724C81.1023 11.58 80.9403 11.448 80.7363 11.328C80.5443 11.208 80.3223 11.1 80.0703 11.004C79.8183 10.908 79.5603 10.806 79.2963 10.698C78.9723 10.578 78.6483 10.44 78.3243 10.284C78.0003 10.116 77.7063 9.918 77.4423 9.69C77.1783 9.45 76.9623 9.174 76.7943 8.862C76.6263 8.55 76.5423 8.184 76.5423 7.764C76.5423 7.308 76.6323 6.894 76.8123 6.522C76.9923 6.138 77.2443 5.808 77.5683 5.532C77.8923 5.256 78.2823 5.046 78.7383 4.902C79.2063 4.746 79.7223 4.668 80.2863 4.668C81.0303 4.668 81.6843 4.8 82.2483 5.064C82.8123 5.316 83.3043 5.598 83.7243 5.91L82.5363 7.512C82.1763 7.26 81.8163 7.056 81.4563 6.9C81.1083 6.732 80.7423 6.648 80.3583 6.648C79.9023 6.648 79.5663 6.738 79.3503 6.918C79.1343 7.098 79.0263 7.332 79.0263 7.62C79.0263 7.8 79.0803 7.956 79.1883 8.088C79.3083 8.22 79.4643 8.34 79.6563 8.448C79.8483 8.556 80.0643 8.658 80.3043 8.754C80.5563 8.838 80.8143 8.928 81.0783 9.024C81.4143 9.156 81.7443 9.3 82.0683 9.456C82.4043 9.612 82.7043 9.804 82.9683 10.032C83.2443 10.26 83.4663 10.542 83.6343 10.878C83.8023 11.202 83.8863 11.598 83.8863 12.066C83.8863 12.51 83.7963 12.924 83.6163 13.308C83.4483 13.692 83.1963 14.028 82.8603 14.316C82.5243 14.604 82.1043 14.832 81.6003 15C81.1083 15.168 80.5323 15.252 79.8723 15.252ZM87.3984 15.252C86.9304 15.252 86.5404 15.09 86.2284 14.766C85.9164 14.43 85.7604 14.016 85.7604 13.524C85.7604 13.032 85.9164 12.624 86.2284 12.3C86.5404 11.964 86.9304 11.796 87.3984 11.796C87.8784 11.796 88.2744 11.964 88.5864 12.3C88.8984 12.624 89.0544 13.032 89.0544 13.524C89.0544 14.016 88.8984 14.43 88.5864 14.766C88.2744 15.09 87.8784 15.252 87.3984 15.252ZM91.7579 0.635999H94.3319V9.276H94.4039L97.8959 4.92H100.776L97.2839 9.042L101.1 15H98.2379L95.7899 10.824L94.3319 12.48V15H91.7579V0.635999ZM102.656 4.92H104.816L104.996 6.702H105.068C105.44 6.042 105.878 5.538 106.382 5.19C106.886 4.842 107.402 4.668 107.93 4.668C108.206 4.668 108.434 4.692 108.614 4.74C108.794 4.776 108.962 4.824 109.118 4.884L108.65 7.17C108.482 7.11 108.314 7.068 108.146 7.044C107.99 7.02 107.81 7.008 107.606 7.008C107.21 7.008 106.796 7.158 106.364 7.458C105.932 7.746 105.572 8.256 105.284 8.988V15H102.656V4.92Z" fill="black"/>
</svg>
