<svg width="182" height="65" viewBox="0 0 182 65" fill="none" xmlns="http://www.w3.org/2000/svg">
<path d="M18.684 15.324C18.684 17.82 18.432 20.22 17.928 22.524C17.424 24.804 16.584 26.964 15.408 29.004C14.256 31.02 12.732 32.904 10.836 34.656C8.964 36.408 6.648 37.98 3.888 39.372L1.224 35.736C5.088 33.744 8.052 31.416 10.116 28.752C12.204 26.064 13.464 22.872 13.896 19.176H3.06V15.324H18.684ZM32.148 28.5H27.504V45.024H22.752V11.904H27.504V24.576H32.148V28.5ZM61.1252 11.94V29.76H56.3372V11.94H61.1252ZM43.8092 31.2V34.296H56.4092V31.2H61.1252V44.7H39.0932V31.2H43.8092ZM43.8092 40.956H56.4092V37.932H43.8092V40.956ZM43.0892 13.308C44.3852 13.308 45.5732 13.5 46.6532 13.884C47.7572 14.268 48.7052 14.808 49.4972 15.504C50.3132 16.2 50.9492 17.028 51.4052 17.988C51.8612 18.948 52.0892 19.992 52.0892 21.12C52.0892 22.272 51.8612 23.328 51.4052 24.288C50.9492 25.248 50.3132 26.076 49.4972 26.772C48.7052 27.468 47.7572 28.008 46.6532 28.392C45.5732 28.776 44.3852 28.968 43.0892 28.968C41.7932 28.968 40.5932 28.776 39.4892 28.392C38.4092 28.008 37.4612 27.468 36.6452 26.772C35.8292 26.076 35.1932 25.248 34.7372 24.288C34.2812 23.328 34.0532 22.272 34.0532 21.12C34.0532 19.992 34.2812 18.948 34.7372 17.988C35.1932 17.028 35.8292 16.2 36.6452 15.504C37.4612 14.808 38.4092 14.268 39.4892 13.884C40.5932 13.5 41.7932 13.308 43.0892 13.308ZM43.0892 17.232C41.8172 17.232 40.7612 17.58 39.9212 18.276C39.1052 18.948 38.6972 19.896 38.6972 21.12C38.6972 22.368 39.1052 23.34 39.9212 24.036C40.7612 24.708 41.8172 25.044 43.0892 25.044C44.3612 25.044 45.4052 24.708 46.2212 24.036C47.0372 23.34 47.4452 22.368 47.4452 21.12C47.4452 19.896 47.0372 18.948 46.2212 18.276C45.4052 17.58 44.3612 17.232 43.0892 17.232ZM78.7466 20.004C78.7466 21.012 79.0946 21.792 79.7906 22.344C80.4866 22.896 81.4106 23.172 82.5626 23.172C83.7146 23.172 84.6506 22.896 85.3706 22.344C86.0906 21.792 86.4506 21.012 86.4506 20.004C86.4506 18.996 86.0906 18.216 85.3706 17.664C84.6506 17.112 83.7146 16.836 82.5626 16.836C81.4106 16.836 80.4866 17.112 79.7906 17.664C79.0946 18.216 78.7466 18.996 78.7466 20.004ZM92.7866 31.56C91.1066 31.872 89.3906 32.124 87.6386 32.316C85.9106 32.484 84.1946 32.616 82.4906 32.712C80.8106 32.808 79.1786 32.868 77.5946 32.892C76.0106 32.916 74.5346 32.928 73.1666 32.928L72.5906 29.148C73.7426 29.148 74.9546 29.148 76.2266 29.148C77.5226 29.148 78.8546 29.124 80.2226 29.076V26.52C78.4466 26.136 77.0186 25.368 75.9386 24.216C74.8586 23.064 74.3186 21.66 74.3186 20.004C74.3186 19.02 74.5226 18.12 74.9306 17.304C75.3386 16.464 75.9026 15.756 76.6226 15.18C77.3666 14.58 78.2426 14.112 79.2506 13.776C80.2586 13.44 81.3626 13.272 82.5626 13.272C83.7626 13.272 84.8666 13.44 85.8746 13.776C86.9066 14.112 87.7826 14.58 88.5026 15.18C89.2466 15.756 89.8226 16.464 90.2306 17.304C90.6386 18.12 90.8426 19.02 90.8426 20.004C90.8426 21.636 90.3026 23.028 89.2226 24.18C88.1666 25.332 86.7506 26.112 84.9746 26.52V28.896C86.2706 28.824 87.5426 28.74 88.7906 28.644C90.0626 28.548 91.2986 28.404 92.4986 28.212L92.7866 31.56ZM81.6626 40.74H100.095V44.52H76.9106V35.088H81.6626V40.74ZM103.155 22.344V26.268H98.9786V37.248H94.2266V11.94H98.9786V22.344H103.155ZM117.012 37.572H122.808V32.532H117.012V37.572ZM134.76 37.572V41.46H104.7V37.572H112.332V32.532H108.192V21.372H126.696V17.844H108.156V14.064H131.376V25.08H112.908V28.716H132.132V32.532H127.488V37.572H134.76Z" fill="black"/>
<rect y="34" width="130" height="10" fill="#00B1EA" fill-opacity="0.3"/>
</svg>
