<svg width="139" height="40" viewBox="0 0 139 40" fill="none" xmlns="http://www.w3.org/2000/svg">
<path d="M17.1839 39.672C14.7519 39.672 12.4959 39.272 10.4159 38.472C8.33587 37.672 6.52787 36.504 4.99187 34.968C3.48787 33.432 2.30387 31.528 1.43987 29.256C0.575872 26.984 0.143872 24.36 0.143872 21.384C0.143872 18.472 0.591872 15.864 1.48787 13.56C2.38387 11.256 3.59987 9.304 5.13587 7.704C6.67187 6.104 8.46387 4.888 10.5119 4.056C12.5919 3.224 14.8159 2.808 17.1839 2.808C19.7439 2.808 21.9199 3.272 23.7119 4.2C25.5359 5.128 27.0239 6.184 28.1759 7.368L24.3839 11.88C23.5199 11.048 22.5439 10.344 21.4559 9.768C20.3999 9.192 19.0559 8.904 17.4239 8.904C15.9519 8.904 14.5919 9.192 13.3439 9.768C12.1279 10.312 11.0719 11.112 10.1759 12.168C9.31187 13.224 8.62387 14.504 8.11187 16.008C7.63187 17.512 7.39187 19.224 7.39187 21.144C7.39187 25.016 8.27187 28.056 10.0319 30.264C11.7919 32.44 14.4159 33.528 17.9039 33.528C18.7679 33.528 19.5999 33.416 20.3999 33.192C21.1999 32.968 21.8559 32.632 22.3679 32.184V25.176H16.0799V19.368H28.7039V35.4C27.4879 36.584 25.8879 37.592 23.9039 38.424C21.9199 39.256 19.6799 39.672 17.1839 39.672ZM45.4941 39.672C43.0941 39.672 40.7581 39.224 38.4861 38.328C36.2461 37.432 34.2621 36.152 32.5341 34.488L36.6141 29.592C37.8941 30.776 39.3181 31.736 40.8861 32.472C42.4861 33.176 44.0701 33.528 45.6381 33.528C47.4941 33.528 48.9021 33.16 49.8621 32.424C50.8221 31.688 51.3021 30.696 51.3021 29.448C51.3021 28.776 51.1741 28.216 50.9181 27.768C50.6621 27.32 50.2941 26.92 49.8141 26.568C49.3661 26.216 48.8061 25.896 48.1341 25.608C47.4941 25.32 46.7741 25 45.9741 24.648L41.2221 22.632C40.3261 22.248 39.4461 21.784 38.5821 21.24C37.7181 20.696 36.9501 20.04 36.2781 19.272C35.6061 18.472 35.0621 17.576 34.6461 16.584C34.2301 15.56 34.0221 14.392 34.0221 13.08C34.0221 11.64 34.3261 10.296 34.9341 9.048C35.5421 7.768 36.3901 6.68 37.4781 5.784C38.5661 4.856 39.8621 4.136 41.3661 3.624C42.8701 3.08 44.5181 2.808 46.3101 2.808C48.3901 2.808 50.4061 3.208 52.3581 4.008C54.3101 4.776 56.0061 5.896 57.4461 7.368L53.8461 11.832C52.7261 10.904 51.5581 10.184 50.3421 9.672C49.1261 9.16 47.7821 8.904 46.3101 8.904C44.7421 8.904 43.4941 9.24 42.5661 9.912C41.6381 10.552 41.1741 11.464 41.1741 12.648C41.1741 13.288 41.3181 13.832 41.6061 14.28C41.9261 14.728 42.3261 15.128 42.8061 15.48C43.3181 15.832 43.9101 16.152 44.5821 16.44C45.2541 16.728 45.9741 17.016 46.7421 17.304L51.3981 19.272C52.4861 19.72 53.4621 20.232 54.3261 20.808C55.2221 21.384 55.9741 22.056 56.5821 22.824C57.2221 23.592 57.7021 24.488 58.0221 25.512C58.3741 26.504 58.5501 27.64 58.5501 28.92C58.5501 30.36 58.2461 31.736 57.6381 33.048C57.0621 34.36 56.2141 35.512 55.0941 36.504C53.9741 37.464 52.5981 38.232 50.9661 38.808C49.3661 39.384 47.5421 39.672 45.4941 39.672ZM63.3993 3.48H71.2713L77.3193 20.088C77.7033 21.208 78.0713 22.344 78.4233 23.496C78.7753 24.648 79.1273 25.8 79.4793 26.952H79.7193C80.1033 25.8 80.4553 24.648 80.7753 23.496C81.1273 22.344 81.4953 21.208 81.8793 20.088L87.7833 3.48H95.6553V39H89.1753V24.168C89.1753 23.336 89.2073 22.424 89.2713 21.432C89.3353 20.408 89.3993 19.384 89.4633 18.36C89.5593 17.304 89.6553 16.28 89.7513 15.288C89.8473 14.264 89.9433 13.336 90.0393 12.504H89.8473L86.9673 20.856L81.4953 35.784H77.4153L71.8953 20.856L69.0633 12.504H68.8713C68.9673 13.336 69.0633 14.264 69.1593 15.288C69.2553 16.28 69.3513 17.304 69.4473 18.36C69.5433 19.384 69.6233 20.408 69.6873 21.432C69.7513 22.424 69.7833 23.336 69.7833 24.168V39H63.3993V3.48Z" fill="black"/>
<path d="M102.352 12.12H109.36V39H102.352V12.12ZM105.904 7.8C104.688 7.8 103.68 7.448 102.88 6.744C102.08 6.008 101.68 5.08 101.68 3.96C101.68 2.808 102.08 1.88 102.88 1.176C103.68 0.471997 104.688 0.119997 105.904 0.119997C107.12 0.119997 108.112 0.471997 108.88 1.176C109.68 1.88 110.08 2.808 110.08 3.96C110.08 5.08 109.68 6.008 108.88 6.744C108.112 7.448 107.12 7.8 105.904 7.8ZM115.49 12.12H121.25L121.73 15.672H121.922C123.106 14.52 124.402 13.528 125.81 12.696C127.218 11.864 128.834 11.448 130.658 11.448C133.57 11.448 135.682 12.408 136.994 14.328C138.306 16.216 138.962 18.856 138.962 22.248V39H131.906V23.112C131.906 21.032 131.602 19.576 130.994 18.744C130.418 17.912 129.458 17.496 128.114 17.496C126.994 17.496 126.034 17.752 125.234 18.264C124.434 18.776 123.522 19.528 122.498 20.52V39H115.49V12.12Z" fill="#41AFE5"/>
</svg>
