<svg width="210" height="43" viewBox="0 0 210 43" fill="none" xmlns="http://www.w3.org/2000/svg">
<path d="M13.202 11.994H11.726V0.204H13.202V11.994ZM1.772 5.28C1.772 5.676 1.838 6.042 1.97 6.378C2.114 6.714 2.306 7.002 2.546 7.242C2.798 7.482 3.092 7.668 3.428 7.8C3.764 7.932 4.13 7.998 4.526 7.998C4.922 7.998 5.288 7.932 5.624 7.8C5.972 7.668 6.272 7.482 6.524 7.242C6.776 7.002 6.968 6.714 7.1 6.378C7.244 6.042 7.316 5.676 7.316 5.28C7.316 4.884 7.244 4.524 7.1 4.2C6.968 3.876 6.776 3.594 6.524 3.354C6.272 3.114 5.972 2.928 5.624 2.796C5.288 2.664 4.922 2.598 4.526 2.598C4.13 2.598 3.764 2.664 3.428 2.796C3.092 2.928 2.798 3.114 2.546 3.354C2.306 3.594 2.114 3.876 1.97 4.2C1.838 4.524 1.772 4.884 1.772 5.28ZM8.756 5.28C8.756 5.868 8.648 6.408 8.432 6.9C8.216 7.38 7.916 7.8 7.532 8.16C7.16 8.508 6.716 8.784 6.2 8.988C5.684 9.18 5.126 9.276 4.526 9.276C3.926 9.276 3.368 9.18 2.852 8.988C2.348 8.784 1.904 8.508 1.52 8.16C1.148 7.8 0.854 7.38 0.638 6.9C0.434 6.408 0.332 5.868 0.332 5.28C0.332 4.704 0.434 4.176 0.638 3.696C0.854 3.204 1.148 2.784 1.52 2.436C1.904 2.076 2.348 1.8 2.852 1.608C3.368 1.416 3.926 1.32 4.526 1.32C5.126 1.32 5.684 1.416 6.2 1.608C6.716 1.8 7.16 2.076 7.532 2.436C7.916 2.784 8.216 3.204 8.432 3.696C8.648 4.176 8.756 4.704 8.756 5.28ZM13.688 14.766V15.972H2.816V10.788H4.292V14.766H13.688ZM17.3406 5.712C18.0606 5.64 18.7446 5.502 19.3926 5.298C20.0526 5.082 20.6346 4.824 21.1386 4.524C21.6546 4.212 22.0626 3.864 22.3626 3.48C22.6746 3.084 22.8426 2.658 22.8666 2.202H17.8626V1.014H29.7966V2.202H24.7746C24.7866 2.658 24.9486 3.084 25.2606 3.48C25.5726 3.864 25.9806 4.212 26.4846 4.524C27.0006 4.824 27.5826 5.082 28.2306 5.298C28.8906 5.502 29.5806 5.64 30.3006 5.712L29.7786 6.882C29.1186 6.798 28.4766 6.666 27.8526 6.486C27.2286 6.306 26.6526 6.078 26.1246 5.802C25.6086 5.514 25.1466 5.19 24.7386 4.83C24.3426 4.47 24.0366 4.068 23.8206 3.624C23.5926 4.068 23.2746 4.47 22.8666 4.83C22.4706 5.19 22.0086 5.514 21.4806 5.802C20.9646 6.078 20.3946 6.306 19.7706 6.486C19.1586 6.666 18.5226 6.798 17.8626 6.882L17.3406 5.712ZM23.8026 15.144C25.0746 15.144 26.0646 14.994 26.7726 14.694C27.4806 14.394 27.8346 13.956 27.8346 13.38C27.8346 12.816 27.4806 12.384 26.7726 12.084C26.0646 11.772 25.0746 11.616 23.8026 11.616C22.5306 11.616 21.5406 11.772 20.8326 12.084C20.1246 12.384 19.7706 12.816 19.7706 13.38C19.7706 13.956 20.1246 14.394 20.8326 14.694C21.5406 14.994 22.5306 15.144 23.8026 15.144ZM23.8026 10.464C24.6666 10.464 25.4346 10.53 26.1066 10.662C26.7906 10.782 27.3726 10.968 27.8526 11.22C28.3326 11.472 28.6986 11.778 28.9506 12.138C29.2026 12.498 29.3286 12.912 29.3286 13.38C29.3286 13.848 29.2026 14.268 28.9506 14.64C28.6986 15 28.3326 15.306 27.8526 15.558C27.3726 15.81 26.7906 15.996 26.1066 16.116C25.4346 16.248 24.6666 16.314 23.8026 16.314C22.0746 16.314 20.7186 16.062 19.7346 15.558C18.7626 15.054 18.2766 14.328 18.2766 13.38C18.2766 12.444 18.7626 11.724 19.7346 11.22C20.7186 10.716 22.0746 10.464 23.8026 10.464ZM31.1106 7.872V9.06H16.5126V7.872H31.1106ZM42.4426 3.228H39.0586V10.824H42.4426V3.228ZM46.2046 0.545999H47.6086V15.522H46.2046V7.494H43.8106V11.994H37.6726V2.058H43.8106V6.27H46.2046V0.545999ZM50.8126 0.186V16.314H49.4086V0.186H50.8126ZM66.9032 8.466H65.4272V0.186H66.9032V8.466ZM55.4552 4.362C55.4552 4.71 55.5212 5.028 55.6532 5.316C55.7972 5.604 55.9892 5.856 56.2292 6.072C56.4812 6.276 56.7692 6.438 57.0932 6.558C57.4292 6.678 57.7952 6.738 58.1912 6.738C58.5872 6.738 58.9532 6.678 59.2892 6.558C59.6252 6.438 59.9132 6.276 60.1532 6.072C60.3932 5.856 60.5792 5.604 60.7112 5.316C60.8552 5.028 60.9272 4.71 60.9272 4.362C60.9272 4.014 60.8552 3.696 60.7112 3.408C60.5792 3.108 60.3932 2.856 60.1532 2.652C59.9132 2.436 59.6252 2.268 59.2892 2.148C58.9532 2.028 58.5872 1.968 58.1912 1.968C57.7952 1.968 57.4292 2.028 57.0932 2.148C56.7692 2.268 56.4812 2.436 56.2292 2.652C55.9892 2.856 55.7972 3.108 55.6532 3.408C55.5212 3.696 55.4552 4.014 55.4552 4.362ZM62.3672 4.362C62.3672 4.89 62.2592 5.376 62.0432 5.82C61.8392 6.252 61.5512 6.624 61.1792 6.936C60.8072 7.248 60.3632 7.494 59.8472 7.674C59.3432 7.842 58.7912 7.926 58.1912 7.926C57.5912 7.926 57.0332 7.842 56.5172 7.674C56.0132 7.494 55.5752 7.248 55.2032 6.936C54.8312 6.624 54.5432 6.252 54.3392 5.82C54.1352 5.376 54.0332 4.89 54.0332 4.362C54.0332 3.822 54.1352 3.336 54.3392 2.904C54.5432 2.46 54.8312 2.082 55.2032 1.77C55.5752 1.446 56.0132 1.2 56.5172 1.032C57.0332 0.852 57.5912 0.762 58.1912 0.762C58.7912 0.762 59.3432 0.852 59.8472 1.032C60.3632 1.2 60.8072 1.446 61.1792 1.77C61.5512 2.082 61.8392 2.46 62.0432 2.904C62.2592 3.336 62.3672 3.822 62.3672 4.362ZM67.4432 14.946V16.116H56.4812V12.066H65.4452V10.428H56.4452V9.258H66.9032V13.164H57.9392V14.946H67.4432ZM83.4258 0.186V16.368H81.9498V0.186H83.4258ZM74.9118 1.428C75.5118 1.428 76.0638 1.56 76.5678 1.824C77.0718 2.088 77.5038 2.466 77.8638 2.958C78.2238 3.45 78.5058 4.044 78.7098 4.74C78.9138 5.424 79.0158 6.198 79.0158 7.062C79.0158 7.926 78.9138 8.706 78.7098 9.402C78.5058 10.086 78.2238 10.674 77.8638 11.166C77.5038 11.658 77.0718 12.036 76.5678 12.3C76.0638 12.564 75.5118 12.696 74.9118 12.696C74.3118 12.696 73.7598 12.564 73.2558 12.3C72.7518 12.036 72.3198 11.658 71.9598 11.166C71.5998 10.674 71.3178 10.086 71.1138 9.402C70.9098 8.706 70.8078 7.926 70.8078 7.062C70.8078 6.198 70.9098 5.424 71.1138 4.74C71.3178 4.044 71.5998 3.45 71.9598 2.958C72.3198 2.466 72.7518 2.088 73.2558 1.824C73.7598 1.56 74.3118 1.428 74.9118 1.428ZM74.9118 2.76C74.5158 2.76 74.1498 2.862 73.8138 3.066C73.4898 3.27 73.2078 3.558 72.9678 3.93C72.7278 4.302 72.5418 4.758 72.4098 5.298C72.2778 5.826 72.2118 6.414 72.2118 7.062C72.2118 7.722 72.2778 8.316 72.4098 8.844C72.5418 9.372 72.7278 9.828 72.9678 10.212C73.2078 10.584 73.4898 10.872 73.8138 11.076C74.1498 11.28 74.5158 11.382 74.9118 11.382C75.3078 11.382 75.6678 11.28 75.9918 11.076C76.3158 10.872 76.5978 10.584 76.8378 10.212C77.0778 9.828 77.2638 9.372 77.3958 8.844C77.5278 8.316 77.5938 7.722 77.5938 7.062C77.5938 6.414 77.5278 5.826 77.3958 5.298C77.2638 4.758 77.0778 4.302 76.8378 3.93C76.5978 3.558 76.3158 3.27 75.9918 3.066C75.6678 2.862 75.3078 2.76 74.9118 2.76ZM97.4938 4.308H92.9218V6.72H97.4938V4.308ZM98.9337 7.908H91.4638V0.852H92.9218V3.174H97.4938V0.852H98.9337V7.908ZM94.5598 14.982H103.92V16.152H93.1198V12.12H101.868V10.464H93.0658V9.294H103.326V13.218H94.5598V14.982ZM105.72 3.66V4.884H103.326V8.538H101.85V0.204H103.326V3.66H105.72ZM120.514 6.666C119.902 6.558 119.296 6.402 118.696 6.198C118.108 5.994 117.556 5.742 117.04 5.442C116.524 5.142 116.056 4.8 115.636 4.416C115.228 4.02 114.898 3.594 114.646 3.138C114.394 3.594 114.064 4.02 113.656 4.416C113.248 4.8 112.786 5.142 112.27 5.442C111.754 5.742 111.196 5.994 110.596 6.198C110.008 6.402 109.408 6.558 108.796 6.666L108.238 5.496C108.958 5.4 109.654 5.22 110.326 4.956C111.01 4.692 111.616 4.368 112.144 3.984C112.672 3.6 113.092 3.168 113.404 2.688C113.728 2.208 113.89 1.698 113.89 1.158V0.438H115.402V1.158C115.402 1.698 115.558 2.208 115.87 2.688C116.194 3.168 116.62 3.6 117.148 3.984C117.688 4.368 118.294 4.692 118.966 4.956C119.65 5.22 120.352 5.4 121.072 5.496L120.514 6.666ZM114.646 15.18C115.93 15.18 116.92 15.042 117.616 14.766C118.324 14.478 118.678 14.064 118.678 13.524C118.678 12.984 118.324 12.576 117.616 12.3C116.92 12.012 115.93 11.868 114.646 11.868C113.362 11.868 112.366 12.012 111.658 12.3C110.962 12.576 110.614 12.984 110.614 13.524C110.614 14.064 110.962 14.478 111.658 14.766C112.366 15.042 113.362 15.18 114.646 15.18ZM114.646 10.734C116.374 10.734 117.724 10.974 118.696 11.454C119.68 11.934 120.172 12.624 120.172 13.524C120.172 14.424 119.68 15.114 118.696 15.594C117.724 16.074 116.374 16.314 114.646 16.314C112.918 16.314 111.562 16.074 110.578 15.594C109.606 15.114 109.12 14.424 109.12 13.524C109.12 12.624 109.606 11.934 110.578 11.454C111.562 10.974 112.918 10.734 114.646 10.734ZM121.954 8.196V9.384H107.356V8.196H113.908V5.82H115.384V8.196H121.954ZM129.981 11.508C130.761 11.472 131.535 11.43 132.303 11.382C133.071 11.334 133.815 11.262 134.535 11.166L134.661 12.246C133.773 12.378 132.873 12.486 131.961 12.57C131.049 12.654 130.143 12.72 129.243 12.768C128.355 12.804 127.485 12.828 126.633 12.84C125.781 12.852 124.971 12.858 124.203 12.858L124.023 11.616C124.719 11.616 125.439 11.616 126.183 11.616C126.939 11.604 127.713 11.586 128.505 11.562V8.358H125.211V1.698H133.383V2.922H126.669V7.152H133.455V8.358H129.981V11.508ZM137.073 0.167999V16.368H135.597V0.167999H137.073ZM144.866 2.328C144.482 2.328 144.122 2.394 143.786 2.526C143.462 2.646 143.18 2.82 142.94 3.048C142.7 3.276 142.508 3.546 142.364 3.858C142.232 4.158 142.166 4.494 142.166 4.866C142.166 5.238 142.232 5.586 142.364 5.91C142.508 6.222 142.7 6.492 142.94 6.72C143.18 6.948 143.462 7.128 143.786 7.26C144.122 7.38 144.482 7.44 144.866 7.44C145.262 7.44 145.628 7.38 145.964 7.26C146.3 7.128 146.588 6.948 146.828 6.72C147.068 6.492 147.254 6.222 147.386 5.91C147.53 5.586 147.602 5.238 147.602 4.866C147.602 4.494 147.53 4.158 147.386 3.858C147.254 3.546 147.068 3.276 146.828 3.048C146.588 2.82 146.3 2.646 145.964 2.526C145.628 2.394 145.262 2.328 144.866 2.328ZM148.97 5.442C148.898 5.922 148.748 6.36 148.52 6.756C148.292 7.152 147.998 7.494 147.638 7.782C147.278 8.058 146.864 8.274 146.396 8.43C145.928 8.586 145.418 8.664 144.866 8.664C144.266 8.664 143.714 8.574 143.21 8.394C142.718 8.202 142.286 7.944 141.914 7.62C141.542 7.284 141.254 6.882 141.05 6.414C140.846 5.946 140.744 5.43 140.744 4.866C140.744 4.314 140.846 3.81 141.05 3.354C141.254 2.886 141.542 2.49 141.914 2.166C142.286 1.83 142.718 1.572 143.21 1.392C143.714 1.2 144.266 1.104 144.866 1.104C145.406 1.104 145.91 1.182 146.378 1.338C146.846 1.482 147.254 1.692 147.602 1.968C147.962 2.244 148.256 2.574 148.484 2.958C148.724 3.342 148.88 3.768 148.952 4.236H152.282V0.204H153.776V9.384H152.282V5.442H148.97ZM152.012 10.968C152.012 11.388 152.084 11.802 152.228 12.21C152.372 12.618 152.582 13.002 152.858 13.362C153.146 13.722 153.488 14.046 153.884 14.334C154.292 14.622 154.754 14.856 155.27 15.036L154.532 16.134C153.74 15.834 153.068 15.42 152.516 14.892C151.964 14.364 151.55 13.758 151.274 13.074C151.022 13.734 150.65 14.352 150.158 14.928C149.678 15.504 149.06 15.954 148.304 16.278C147.524 15.966 146.888 15.534 146.396 14.982C145.904 14.43 145.538 13.812 145.298 13.128C145.01 13.776 144.596 14.364 144.056 14.892C143.516 15.42 142.868 15.834 142.112 16.134L141.374 15.036C141.878 14.844 142.328 14.598 142.724 14.298C143.132 13.998 143.474 13.668 143.75 13.308C144.038 12.948 144.254 12.57 144.398 12.174C144.542 11.766 144.614 11.364 144.614 10.968V10.014H146.036V10.968C146.036 11.688 146.222 12.402 146.594 13.11C146.966 13.818 147.53 14.394 148.286 14.838C148.67 14.598 149.006 14.322 149.294 14.01C149.582 13.686 149.816 13.356 149.996 13.02C150.188 12.672 150.332 12.324 150.428 11.976C150.524 11.616 150.572 11.28 150.572 10.968V10.014H152.012V10.968ZM170.262 6.414C169.638 6.318 169.026 6.168 168.426 5.964C167.826 5.76 167.262 5.514 166.734 5.226C166.218 4.926 165.75 4.59 165.33 4.218C164.922 3.834 164.592 3.414 164.34 2.958C164.088 3.414 163.752 3.834 163.332 4.218C162.924 4.59 162.456 4.926 161.928 5.226C161.412 5.514 160.848 5.76 160.236 5.964C159.636 6.168 159.024 6.318 158.4 6.414L157.86 5.226C158.58 5.142 159.282 4.974 159.966 4.722C160.662 4.47 161.274 4.164 161.802 3.804C162.342 3.432 162.774 3.018 163.098 2.562C163.422 2.094 163.584 1.602 163.584 1.086V0.366H165.096V1.086C165.096 1.59 165.258 2.07 165.582 2.526C165.906 2.982 166.332 3.396 166.86 3.768C167.4 4.14 168.012 4.458 168.696 4.722C169.38 4.974 170.082 5.142 170.802 5.226L170.262 6.414ZM168.264 12.876H160.326V14.928H168.264V12.876ZM168.264 9.852H169.722V16.116H158.868V9.852H160.326V11.742H168.264V9.852ZM171.63 7.548V8.736H157.014V7.548H171.63ZM176.075 10.896C177.299 10.896 178.535 10.842 179.783 10.734C181.043 10.614 182.345 10.416 183.689 10.14L183.851 11.4C182.435 11.688 181.085 11.886 179.801 11.994C178.517 12.102 177.227 12.156 175.931 12.156H174.599V1.752H176.075V10.896ZM186.821 0.186V16.314H185.345V0.186H186.821ZM192.309 11.076C193.029 11.076 193.701 11.07 194.325 11.058C194.949 11.034 195.555 11.004 196.143 10.968C196.731 10.92 197.301 10.866 197.853 10.806C198.417 10.734 198.993 10.644 199.581 10.536L199.743 11.76C199.131 11.88 198.531 11.976 197.943 12.048C197.355 12.12 196.755 12.18 196.143 12.228C195.531 12.264 194.895 12.294 194.235 12.318C193.575 12.33 192.867 12.336 192.111 12.336H190.833V1.734H198.339V2.958H192.309V11.076ZM205.233 7.782H202.569V16.368H201.093V0.186H202.569V6.558H205.233V7.782ZM207.878 3.39L207.824 1.518H209.498L209.444 3.39L209.228 11.022H208.094L207.878 3.39ZM208.652 15.234C208.328 15.234 208.046 15.12 207.806 14.892C207.578 14.664 207.464 14.364 207.464 13.992C207.464 13.62 207.578 13.314 207.806 13.074C208.046 12.834 208.328 12.714 208.652 12.714C208.988 12.714 209.27 12.834 209.498 13.074C209.726 13.314 209.84 13.62 209.84 13.992C209.84 14.364 209.726 14.664 209.498 14.892C209.27 15.12 208.988 15.234 208.652 15.234ZM56.9198 27.572C55.5878 27.572 54.5618 27.722 53.8418 28.022C53.1218 28.31 52.7618 28.724 52.7618 29.264C52.7618 29.804 53.1218 30.224 53.8418 30.524C54.5618 30.812 55.5878 30.956 56.9198 30.956C58.2518 30.956 59.2778 30.812 59.9978 30.524C60.7178 30.224 61.0778 29.804 61.0778 29.264C61.0778 28.724 60.7178 28.31 59.9978 28.022C59.2778 27.722 58.2518 27.572 56.9198 27.572ZM56.9198 32.054C55.1438 32.054 53.7518 31.82 52.7438 31.352C51.7478 30.872 51.2498 30.176 51.2498 29.264C51.2498 28.352 51.7478 27.656 52.7438 27.176C53.7518 26.696 55.1438 26.456 56.9198 26.456C58.6958 26.456 60.0818 26.696 61.0778 27.176C62.0858 27.656 62.5898 28.352 62.5898 29.264C62.5898 30.176 62.0858 30.872 61.0778 31.352C60.0818 31.82 58.6958 32.054 56.9198 32.054ZM52.8698 41H62.8418V42.152H51.4298V38.282H60.8978V36.842H51.3758V35.726H62.3558V39.362H52.8698V41ZM64.2278 33.152V34.34H49.6118V33.152H64.2278ZM79.8078 28.778H70.5378V27.662H74.4438V26.078H75.9198V27.662H79.8078V28.778ZM72.8058 31.766C72.8058 32.186 73.0158 32.522 73.4358 32.774C73.8678 33.026 74.4498 33.152 75.1818 33.152C75.9018 33.152 76.4718 33.026 76.8918 32.774C77.3238 32.522 77.5398 32.186 77.5398 31.766C77.5398 31.346 77.3238 31.016 76.8918 30.776C76.4718 30.524 75.9018 30.398 75.1818 30.398C74.4498 30.398 73.8678 30.524 73.4358 30.776C73.0158 31.016 72.8058 31.346 72.8058 31.766ZM80.4018 35.924C79.5378 36.08 78.6558 36.2 77.7558 36.284C76.8678 36.368 75.9858 36.428 75.1098 36.464C74.2458 36.5 73.4058 36.524 72.5898 36.536C71.7738 36.548 71.0118 36.554 70.3038 36.554L70.1418 35.366C70.7898 35.366 71.4738 35.366 72.1938 35.366C72.9138 35.354 73.6638 35.336 74.4438 35.312V34.142C73.5078 34.046 72.7638 33.794 72.2118 33.386C71.6718 32.978 71.4018 32.438 71.4018 31.766C71.4018 31.394 71.4918 31.064 71.6718 30.776C71.8518 30.476 72.1038 30.224 72.4278 30.02C72.7638 29.816 73.1598 29.66 73.6158 29.552C74.0838 29.432 74.6058 29.372 75.1818 29.372C75.7458 29.372 76.2558 29.432 76.7118 29.552C77.1798 29.66 77.5758 29.816 77.8998 30.02C78.2358 30.224 78.4938 30.476 78.6738 30.776C78.8538 31.064 78.9438 31.394 78.9438 31.766C78.9438 32.426 78.6738 32.966 78.1338 33.386C77.5938 33.794 76.8558 34.046 75.9198 34.142V35.258C76.6638 35.222 77.4018 35.174 78.1338 35.114C78.8658 35.054 79.5858 34.97 80.2938 34.862L80.4018 35.924ZM72.1038 37.832H82.7238V42.332H81.2478V39.002H72.1038V37.832ZM85.0998 32.306H82.7238V37.022H81.2478V26.204H82.7238V31.082H85.0998V32.306ZM100.02 37.994H98.5444V26.204H100.02V37.994ZM88.5904 31.28C88.5904 31.676 88.6564 32.042 88.7884 32.378C88.9324 32.714 89.1244 33.002 89.3644 33.242C89.6164 33.482 89.9104 33.668 90.2464 33.8C90.5824 33.932 90.9484 33.998 91.3444 33.998C91.7404 33.998 92.1064 33.932 92.4424 33.8C92.7904 33.668 93.0904 33.482 93.3424 33.242C93.5944 33.002 93.7864 32.714 93.9184 32.378C94.0624 32.042 94.1344 31.676 94.1344 31.28C94.1344 30.884 94.0624 30.524 93.9184 30.2C93.7864 29.876 93.5944 29.594 93.3424 29.354C93.0904 29.114 92.7904 28.928 92.4424 28.796C92.1064 28.664 91.7404 28.598 91.3444 28.598C90.9484 28.598 90.5824 28.664 90.2464 28.796C89.9104 28.928 89.6164 29.114 89.3644 29.354C89.1244 29.594 88.9324 29.876 88.7884 30.2C88.6564 30.524 88.5904 30.884 88.5904 31.28ZM95.5744 31.28C95.5744 31.868 95.4664 32.408 95.2504 32.9C95.0344 33.38 94.7344 33.8 94.3504 34.16C93.9784 34.508 93.5344 34.784 93.0184 34.988C92.5024 35.18 91.9444 35.276 91.3444 35.276C90.7444 35.276 90.1864 35.18 89.6704 34.988C89.1664 34.784 88.7224 34.508 88.3384 34.16C87.9664 33.8 87.6724 33.38 87.4564 32.9C87.2524 32.408 87.1504 31.868 87.1504 31.28C87.1504 30.704 87.2524 30.176 87.4564 29.696C87.6724 29.204 87.9664 28.784 88.3384 28.436C88.7224 28.076 89.1664 27.8 89.6704 27.608C90.1864 27.416 90.7444 27.32 91.3444 27.32C91.9444 27.32 92.5024 27.416 93.0184 27.608C93.5344 27.8 93.9784 28.076 94.3504 28.436C94.7344 28.784 95.0344 29.204 95.2504 29.696C95.4664 30.176 95.5744 30.704 95.5744 31.28ZM100.506 40.766V41.972H89.6344V36.788H91.1104V40.766H100.506ZM107.327 37.364C107.639 37.364 107.927 37.304 108.191 37.184C108.455 37.064 108.677 36.896 108.857 36.68C109.049 36.452 109.199 36.188 109.307 35.888C109.415 35.588 109.469 35.258 109.469 34.898C109.469 34.55 109.415 34.226 109.307 33.926C109.199 33.626 109.049 33.368 108.857 33.152C108.677 32.936 108.455 32.768 108.191 32.648C107.927 32.528 107.639 32.468 107.327 32.468C106.691 32.468 106.175 32.696 105.779 33.152C105.383 33.608 105.185 34.19 105.185 34.898C105.185 35.258 105.233 35.588 105.329 35.888C105.437 36.188 105.587 36.452 105.779 36.68C105.971 36.896 106.199 37.064 106.463 37.184C106.727 37.304 107.015 37.364 107.327 37.364ZM107.327 31.226C107.831 31.226 108.293 31.316 108.713 31.496C109.133 31.676 109.493 31.928 109.793 32.252C110.105 32.576 110.345 32.966 110.513 33.422C110.693 33.866 110.783 34.358 110.783 34.898C110.783 35.45 110.693 35.954 110.513 36.41C110.345 36.854 110.105 37.238 109.793 37.562C109.493 37.886 109.133 38.138 108.713 38.318C108.293 38.498 107.831 38.588 107.327 38.588C106.823 38.588 106.361 38.498 105.941 38.318C105.521 38.138 105.155 37.886 104.843 37.562C104.543 37.238 104.303 36.854 104.123 36.41C103.955 35.954 103.871 35.45 103.871 34.898C103.871 34.358 103.955 33.866 104.123 33.422C104.303 32.966 104.543 32.576 104.843 32.252C105.155 31.928 105.521 31.676 105.941 31.496C106.361 31.316 106.823 31.226 107.327 31.226ZM108.047 28.94H111.323V30.146H103.313V28.94H106.589V26.654H108.047V28.94ZM117.011 26.168V42.314H115.589V34.196H113.519V41.54H112.133V26.546H113.519V32.99H115.589V26.168H117.011ZM124.797 32.864C125.493 32.756 126.177 32.57 126.849 32.306C127.521 32.03 128.121 31.7 128.649 31.316C129.177 30.92 129.597 30.482 129.909 30.002C130.233 29.51 130.395 29 130.395 28.472V28.382H125.301V27.194H137.091V28.382H132.033V28.472C132.033 29 132.189 29.51 132.501 30.002C132.825 30.482 133.251 30.92 133.779 31.316C134.307 31.7 134.907 32.03 135.579 32.306C136.263 32.57 136.959 32.756 137.667 32.864L137.091 34.034C136.467 33.926 135.855 33.764 135.255 33.548C134.655 33.332 134.097 33.068 133.581 32.756C133.065 32.432 132.603 32.072 132.195 31.676C131.787 31.268 131.463 30.824 131.223 30.344C130.971 30.824 130.641 31.268 130.233 31.676C129.825 32.072 129.363 32.432 128.847 32.756C128.343 33.068 127.791 33.332 127.191 33.548C126.591 33.764 125.979 33.926 125.355 34.034L124.797 32.864ZM138.531 36.59H131.925V42.332H130.449V36.59H123.933V35.384H138.513L138.531 36.59ZM145.262 30.74C145.262 31.388 145.334 32.036 145.478 32.684C145.634 33.332 145.85 33.95 146.126 34.538C146.414 35.126 146.762 35.666 147.17 36.158C147.59 36.638 148.064 37.04 148.592 37.364L147.746 38.516C146.978 38.048 146.324 37.412 145.784 36.608C145.256 35.792 144.848 34.892 144.56 33.908C144.272 34.988 143.84 35.96 143.264 36.824C142.7 37.688 142.016 38.372 141.212 38.876L140.294 37.76C140.846 37.436 141.338 37.022 141.77 36.518C142.214 36.014 142.586 35.456 142.886 34.844C143.198 34.22 143.432 33.566 143.588 32.882C143.756 32.186 143.84 31.49 143.84 30.794V27.716H145.262V30.74ZM149.51 26.546H150.896V41.54H149.51V33.206H146.846V31.982H149.51V26.546ZM154.19 26.186V42.332H152.786V26.186H154.19ZM162.09 39.038H166.59V35.24C165.882 35.408 165.126 35.492 164.322 35.492C163.53 35.492 162.786 35.408 162.09 35.24V39.038ZM164.322 28.364C163.674 28.364 163.074 28.436 162.522 28.58C161.982 28.724 161.514 28.928 161.118 29.192C160.734 29.444 160.428 29.756 160.2 30.128C159.984 30.5 159.876 30.908 159.876 31.352C159.876 31.808 159.984 32.222 160.2 32.594C160.428 32.954 160.734 33.266 161.118 33.53C161.514 33.782 161.982 33.98 162.522 34.124C163.074 34.268 163.674 34.34 164.322 34.34C164.97 34.34 165.564 34.268 166.104 34.124C166.656 33.98 167.13 33.782 167.526 33.53C167.922 33.266 168.228 32.954 168.444 32.594C168.672 32.222 168.786 31.808 168.786 31.352C168.786 30.908 168.672 30.5 168.444 30.128C168.228 29.756 167.922 29.444 167.526 29.192C167.13 28.928 166.656 28.724 166.104 28.58C165.564 28.436 164.97 28.364 164.322 28.364ZM171.684 39.038V40.262H157.014V39.038H160.614V34.682C159.93 34.334 159.396 33.878 159.012 33.314C158.64 32.738 158.454 32.084 158.454 31.352C158.454 30.728 158.598 30.164 158.886 29.66C159.174 29.144 159.576 28.706 160.092 28.346C160.62 27.986 161.244 27.71 161.964 27.518C162.684 27.314 163.47 27.212 164.322 27.212C165.186 27.212 165.972 27.314 166.68 27.518C167.4 27.71 168.018 27.986 168.534 28.346C169.062 28.706 169.47 29.144 169.758 29.66C170.046 30.164 170.19 30.728 170.19 31.352C170.19 32.084 170.004 32.732 169.632 33.296C169.26 33.86 168.738 34.316 168.066 34.664V39.038H171.684ZM175.139 41.234C174.815 41.234 174.533 41.12 174.293 40.892C174.065 40.664 173.951 40.364 173.951 39.992C173.951 39.62 174.065 39.314 174.293 39.074C174.533 38.834 174.815 38.714 175.139 38.714C175.463 38.714 175.739 38.834 175.967 39.074C176.207 39.314 176.327 39.62 176.327 39.992C176.327 40.364 176.207 40.664 175.967 40.892C175.739 41.12 175.463 41.234 175.139 41.234Z" fill="black"/>
<path d="M4.58 29.534H2.456V36.554H4.58V29.534ZM8.378 26.222H10.592V41.792H8.378V33.908H6.776V38.408H0.242V27.662H6.776V31.982H8.378V26.222ZM13.994 25.952V42.53H11.744V25.952H13.994ZM30.1026 34.268H27.7086V25.97H30.1026V34.268ZM18.8706 30.236C18.8706 30.836 19.0746 31.298 19.4826 31.622C19.8906 31.946 20.4006 32.108 21.0126 32.108C21.6246 32.108 22.1286 31.946 22.5246 31.622C22.9206 31.298 23.1186 30.836 23.1186 30.236C23.1186 29.648 22.9206 29.192 22.5246 28.868C22.1286 28.532 21.6246 28.364 21.0126 28.364C20.4006 28.364 19.8906 28.532 19.4826 28.868C19.0746 29.192 18.8706 29.648 18.8706 30.236ZM25.4226 30.236C25.4226 30.788 25.3086 31.298 25.0806 31.766C24.8646 32.234 24.5586 32.636 24.1626 32.972C23.7666 33.308 23.2986 33.572 22.7586 33.764C22.2186 33.944 21.6366 34.034 21.0126 34.034C20.3766 34.034 19.7886 33.944 19.2486 33.764C18.7086 33.572 18.2406 33.308 17.8446 32.972C17.4486 32.636 17.1366 32.234 16.9086 31.766C16.6806 31.298 16.5666 30.788 16.5666 30.236C16.5666 29.684 16.6806 29.18 16.9086 28.724C17.1366 28.256 17.4486 27.854 17.8446 27.518C18.2406 27.182 18.7086 26.924 19.2486 26.744C19.7886 26.552 20.3766 26.456 21.0126 26.456C21.6366 26.456 22.2186 26.552 22.7586 26.744C23.2986 26.924 23.7666 27.182 24.1626 27.518C24.5586 27.854 24.8646 28.256 25.0806 28.724C25.3086 29.18 25.4226 29.684 25.4226 30.236ZM30.5166 40.514V42.368H19.0686V37.778H27.7446V36.77H19.0506V34.952H30.1026V39.47H21.4266V40.514H30.5166ZM42.6472 29.336H32.8732V27.464H36.5632V25.862H38.9572V27.464H42.6472V29.336ZM35.9692 32.81C35.9692 33.23 36.1312 33.542 36.4552 33.746C36.7912 33.95 37.2292 34.052 37.7692 34.052C38.3092 34.052 38.7412 33.95 39.0652 33.746C39.4012 33.542 39.5692 33.23 39.5692 32.81C39.5692 32.402 39.4012 32.096 39.0652 31.892C38.7412 31.688 38.3092 31.586 37.7692 31.586C37.2292 31.586 36.7912 31.688 36.4552 31.892C36.1312 32.096 35.9692 32.402 35.9692 32.81ZM41.8372 32.81C41.8372 33.266 41.7352 33.68 41.5312 34.052C41.3392 34.412 41.0632 34.724 40.7032 34.988C40.3432 35.24 39.9112 35.438 39.4072 35.582C38.9152 35.726 38.3692 35.798 37.7692 35.798C37.1692 35.798 36.6172 35.726 36.1132 35.582C35.6212 35.438 35.1952 35.24 34.8352 34.988C34.4752 34.724 34.1932 34.412 33.9892 34.052C33.7972 33.68 33.7012 33.266 33.7012 32.81C33.7012 32.366 33.7972 31.964 33.9892 31.604C34.1932 31.244 34.4752 30.932 34.8352 30.668C35.1952 30.404 35.6212 30.2 36.1132 30.056C36.6172 29.912 37.1692 29.84 37.7692 29.84C38.3692 29.84 38.9152 29.912 39.4072 30.056C39.9112 30.2 40.3432 30.404 40.7032 30.668C41.0632 30.932 41.3392 31.244 41.5312 31.604C41.7352 31.964 41.8372 32.366 41.8372 32.81ZM37.4992 40.496H43.6192V38.552H37.4992V40.496ZM35.1592 36.68H45.9412V42.35H35.1592V36.68ZM48.1372 32H45.9412V35.96H43.5652V25.988H45.9412V30.056H48.1372V32Z" fill="#00B1EA"/>
</svg>
