<svg width="329" height="117" viewBox="0 0 329 117" fill="none" xmlns="http://www.w3.org/2000/svg">
<path d="M5.088 80.72C5.088 81.3813 5.152 82.016 5.28 82.624C5.408 83.232 5.6 83.7973 5.856 84.32C6.112 84.832 6.432 85.296 6.816 85.712C7.2 86.1173 7.648 86.4533 8.16 86.72L7.392 87.728C6.688 87.3333 6.09067 86.8053 5.6 86.144C5.10933 85.472 4.736 84.7093 4.48 83.856C4.23467 84.8373 3.86133 85.7013 3.36 86.448C2.86933 87.1947 2.25067 87.7867 1.504 88.224L0.704 87.232C1.216 86.944 1.664 86.5813 2.048 86.144C2.44267 85.696 2.768 85.1947 3.024 84.64C3.29067 84.0747 3.488 83.4613 3.616 82.8C3.75467 82.1387 3.824 81.4453 3.824 80.72V79.6H1.04V78.528H7.696V79.6H5.088V80.72ZM13.088 76.816V91.184H11.824V83.712H9.936V90.48H8.704V77.152H9.936V82.624H11.824V76.816H13.088ZM23.5988 79.408H15.1348V78.352H18.7028V76.752H20.0148V78.352H23.5988V79.408ZM17.1828 82.752C17.1828 83.232 17.3801 83.616 17.7748 83.904C18.1694 84.1813 18.6974 84.32 19.3588 84.32C20.0201 84.32 20.5481 84.176 20.9428 83.888C21.3481 83.6 21.5508 83.216 21.5508 82.736C21.5508 82.256 21.3481 81.8773 20.9428 81.6C20.5481 81.312 20.0201 81.168 19.3588 81.168C18.6974 81.168 18.1694 81.312 17.7748 81.6C17.3801 81.888 17.1828 82.272 17.1828 82.752ZM22.7988 82.752C22.7988 83.1467 22.7134 83.504 22.5428 83.824C22.3828 84.1333 22.1481 84.4 21.8388 84.624C21.5401 84.848 21.1774 85.024 20.7508 85.152C20.3348 85.2693 19.8708 85.328 19.3588 85.328C18.8468 85.328 18.3828 85.2693 17.9668 85.152C17.5508 85.024 17.1881 84.848 16.8788 84.624C16.5801 84.4 16.3454 84.128 16.1748 83.808C16.0148 83.488 15.9348 83.1307 15.9348 82.736C15.9348 82.3413 16.0148 81.984 16.1748 81.664C16.3454 81.344 16.5801 81.072 16.8788 80.848C17.1881 80.624 17.5508 80.4533 17.9668 80.336C18.3828 80.208 18.8468 80.144 19.3588 80.144C19.8708 80.144 20.3348 80.208 20.7508 80.336C21.1774 80.4533 21.5401 80.6293 21.8388 80.864C22.1481 81.088 22.3828 81.36 22.5428 81.68C22.7134 82 22.7988 82.3573 22.7988 82.752ZM16.9108 86.592H26.2228V91.2H24.9108V87.664H16.9108V86.592ZM28.3508 81.888H26.2228V85.808H24.9108V76.848H26.2228V80.8H28.3508V81.888ZM36.4775 82.224C35.5335 82.224 34.7815 82.976 34.7815 83.92C34.7815 84.864 35.5335 85.616 36.4775 85.616C37.4215 85.616 38.1735 84.864 38.1735 83.92C38.1735 82.976 37.4215 82.224 36.4775 82.224ZM45.5175 81.136C46.1362 81.0827 46.7335 80.976 47.3095 80.816C47.8962 80.656 48.4135 80.4533 48.8615 80.208C49.3202 79.9627 49.6935 79.6853 49.9815 79.376C50.2695 79.056 50.4348 78.7147 50.4775 78.352H46.0295V77.312H56.6535V78.352H52.2055C52.2482 78.7147 52.4135 79.056 52.7015 79.376C52.9895 79.6853 53.3575 79.9627 53.8055 80.208C54.2535 80.4533 54.7655 80.656 55.3415 80.816C55.9175 80.976 56.5148 81.0827 57.1335 81.136L56.7175 82.128C56.1202 82.064 55.5388 81.9627 54.9735 81.824C54.4082 81.6747 53.8908 81.4827 53.4215 81.248C52.9522 81.0133 52.5362 80.7413 52.1735 80.432C51.8108 80.1227 51.5335 79.776 51.3415 79.392C51.1495 79.776 50.8722 80.1227 50.5095 80.432C50.1575 80.7413 49.7415 81.0133 49.2615 81.248C48.7922 81.4827 48.2748 81.6747 47.7095 81.824C47.1442 81.9627 46.5575 82.064 45.9495 82.128L45.5175 81.136ZM47.7255 90.016H56.5895V91.024H46.4455V87.648H54.8615V86.336H46.3975V85.344H56.1575V88.624H47.7255V90.016ZM57.8215 83.12V84.176H44.8295V83.12H50.6855V81.376H51.9975V83.12H57.8215ZM69.5963 88.08H63.0203V89.936H69.5963V88.08ZM69.5963 85.248H70.9083V90.992H61.7243V85.248H63.0203V87.056H69.5963V85.248ZM63.0043 83.056C63.3563 83.056 63.6816 83.0027 63.9803 82.896C64.2896 82.7787 64.5509 82.624 64.7643 82.432C64.9776 82.2293 65.1429 81.9947 65.2603 81.728C65.3883 81.4507 65.4523 81.1467 65.4523 80.816C65.4523 80.4853 65.3883 80.1867 65.2603 79.92C65.1429 79.6427 64.9776 79.408 64.7643 79.216C64.5509 79.0133 64.2896 78.8587 63.9803 78.752C63.6816 78.6453 63.3563 78.592 63.0043 78.592C62.6523 78.592 62.3216 78.6453 62.0123 78.752C61.7136 78.8587 61.4576 79.0133 61.2443 79.216C61.0309 79.408 60.8603 79.6427 60.7323 79.92C60.6149 80.1867 60.5563 80.4853 60.5563 80.816C60.5563 81.1467 60.6149 81.4507 60.7323 81.728C60.8603 81.9947 61.0309 82.2293 61.2443 82.432C61.4576 82.624 61.7136 82.7787 62.0123 82.896C62.3216 83.0027 62.6523 83.056 63.0043 83.056ZM70.9083 76.848V84.544H69.5803V81.328H66.6683C66.6043 81.7547 66.4709 82.144 66.2683 82.496C66.0656 82.8373 65.8043 83.1307 65.4843 83.376C65.1643 83.6213 64.7909 83.8133 64.3643 83.952C63.9483 84.08 63.4949 84.144 63.0043 84.144C62.4709 84.144 61.9749 84.064 61.5163 83.904C61.0683 83.744 60.6789 83.52 60.3483 83.232C60.0176 82.9333 59.7616 82.5813 59.5803 82.176C59.3989 81.7707 59.3083 81.3173 59.3083 80.816C59.3083 80.3253 59.3989 79.8773 59.5803 79.472C59.7616 79.0667 60.0176 78.72 60.3483 78.432C60.6789 78.1333 61.0683 77.904 61.5163 77.744C61.9749 77.584 62.4709 77.504 63.0043 77.504C63.4843 77.504 63.9323 77.5733 64.3483 77.712C64.7643 77.84 65.1323 78.0267 65.4523 78.272C65.7723 78.5067 66.0336 78.7947 66.2363 79.136C66.4496 79.4667 66.5883 79.84 66.6523 80.256H69.5803V76.848H70.9083ZM86.9331 84.576V81.12H83.6211C83.6851 81.3973 83.7331 81.6907 83.7651 82C83.8078 82.2987 83.8291 82.6133 83.8291 82.944C83.8291 83.2427 83.8131 83.5307 83.7811 83.808C83.7598 84.0747 83.7225 84.3307 83.6691 84.576H86.9331ZM80.2611 86.784C80.6025 86.784 80.9118 86.6933 81.1891 86.512C81.4771 86.3307 81.7225 86.0747 81.9251 85.744C82.1385 85.4027 82.3038 84.9973 82.4211 84.528C82.5385 84.0587 82.5971 83.5307 82.5971 82.944C82.5971 82.368 82.5385 81.8453 82.4211 81.376C82.3038 80.896 82.1385 80.4907 81.9251 80.16C81.7225 79.8293 81.4771 79.5733 81.1891 79.392C80.9118 79.2107 80.6025 79.12 80.2611 79.12C79.9198 79.12 79.6051 79.2107 79.3171 79.392C79.0291 79.5733 78.7785 79.8293 78.5651 80.16C78.3625 80.4907 78.2025 80.896 78.0851 81.376C77.9785 81.8453 77.9251 82.368 77.9251 82.944C77.9251 83.5307 77.9785 84.0587 78.0851 84.528C78.2025 84.9973 78.3625 85.4027 78.5651 85.744C78.7785 86.0747 79.0291 86.3307 79.3171 86.512C79.6051 86.6933 79.9198 86.784 80.2611 86.784ZM88.2451 76.832V91.216H86.9331V85.648H83.3491C83.0505 86.384 82.6345 86.9547 82.1011 87.36C81.5678 87.7547 80.9545 87.952 80.2611 87.952C79.7385 87.952 79.2585 87.8347 78.8211 87.6C78.3838 87.3653 78.0051 87.0293 77.6851 86.592C77.3651 86.1547 77.1145 85.632 76.9331 85.024C76.7625 84.4053 76.6771 83.712 76.6771 82.944C76.6771 82.176 76.7625 81.488 76.9331 80.88C77.1145 80.2613 77.3651 79.7333 77.6851 79.296C78.0051 78.8587 78.3838 78.5227 78.8211 78.288C79.2585 78.0533 79.7385 77.936 80.2611 77.936C80.9331 77.936 81.5198 78.1227 82.0211 78.496C82.5331 78.8587 82.9438 79.376 83.2531 80.048H86.9331V76.832H88.2451ZM100.708 80.432H93.5879V82.544H100.708V80.432ZM102.02 83.616H92.2919V77.408H93.5879V79.376H100.708V77.408H102.02V83.616ZM103.668 86.4H97.7799V91.2H96.4679V86.4H90.6439V85.344H103.668V86.4ZM116.525 79.136H108.285V78.144H111.757V76.736H113.069V78.144H116.525V79.136ZM110.301 81.792C110.301 82.1653 110.487 82.464 110.861 82.688C111.245 82.912 111.762 83.024 112.413 83.024C113.053 83.024 113.559 82.912 113.933 82.688C114.317 82.464 114.509 82.1653 114.509 81.792C114.509 81.4187 114.317 81.1253 113.933 80.912C113.559 80.688 113.053 80.576 112.413 80.576C111.762 80.576 111.245 80.688 110.861 80.912C110.487 81.1253 110.301 81.4187 110.301 81.792ZM117.053 85.488C116.285 85.6267 115.501 85.7333 114.701 85.808C113.911 85.8827 113.127 85.936 112.349 85.968C111.581 86 110.834 86.0213 110.109 86.032C109.383 86.0427 108.706 86.048 108.077 86.048L107.933 84.992C108.509 84.992 109.117 84.992 109.757 84.992C110.397 84.9813 111.063 84.9653 111.757 84.944V83.904C110.925 83.8187 110.263 83.5947 109.773 83.232C109.293 82.8693 109.053 82.3893 109.053 81.792C109.053 81.4613 109.133 81.168 109.293 80.912C109.453 80.6453 109.677 80.4213 109.965 80.24C110.263 80.0587 110.615 79.92 111.021 79.824C111.437 79.7173 111.901 79.664 112.413 79.664C112.914 79.664 113.367 79.7173 113.773 79.824C114.189 79.92 114.541 80.0587 114.829 80.24C115.127 80.4213 115.357 80.6453 115.517 80.912C115.677 81.168 115.757 81.4613 115.757 81.792C115.757 82.3787 115.517 82.8587 115.037 83.232C114.557 83.5947 113.901 83.8187 113.069 83.904V84.896C113.73 84.864 114.386 84.8213 115.037 84.768C115.687 84.7147 116.327 84.64 116.957 84.544L117.053 85.488ZM109.677 87.184H119.117V91.184H117.805V88.224H109.677V87.184ZM121.229 82.272H119.117V86.464H117.805V76.848H119.117V81.184H121.229V82.272ZM134.011 87.328H132.699V76.848H134.011V87.328ZM123.851 81.36C123.851 81.712 123.91 82.0373 124.027 82.336C124.155 82.6347 124.326 82.8907 124.539 83.104C124.763 83.3173 125.025 83.4827 125.323 83.6C125.622 83.7173 125.947 83.776 126.299 83.776C126.651 83.776 126.977 83.7173 127.275 83.6C127.585 83.4827 127.851 83.3173 128.075 83.104C128.299 82.8907 128.47 82.6347 128.587 82.336C128.715 82.0373 128.779 81.712 128.779 81.36C128.779 81.008 128.715 80.688 128.587 80.4C128.47 80.112 128.299 79.8613 128.075 79.648C127.851 79.4347 127.585 79.2693 127.275 79.152C126.977 79.0347 126.651 78.976 126.299 78.976C125.947 78.976 125.622 79.0347 125.323 79.152C125.025 79.2693 124.763 79.4347 124.539 79.648C124.326 79.8613 124.155 80.112 124.027 80.4C123.91 80.688 123.851 81.008 123.851 81.36ZM130.059 81.36C130.059 81.8827 129.963 82.3627 129.771 82.8C129.579 83.2267 129.313 83.6 128.971 83.92C128.641 84.2293 128.246 84.4747 127.787 84.656C127.329 84.8267 126.833 84.912 126.299 84.912C125.766 84.912 125.27 84.8267 124.811 84.656C124.363 84.4747 123.969 84.2293 123.627 83.92C123.297 83.6 123.035 83.2267 122.843 82.8C122.662 82.3627 122.571 81.8827 122.571 81.36C122.571 80.848 122.662 80.3787 122.843 79.952C123.035 79.5147 123.297 79.1413 123.627 78.832C123.969 78.512 124.363 78.2667 124.811 78.096C125.27 77.9253 125.766 77.84 126.299 77.84C126.833 77.84 127.329 77.9253 127.787 78.096C128.246 78.2667 128.641 78.512 128.971 78.832C129.313 79.1413 129.579 79.5147 129.771 79.952C129.963 80.3787 130.059 80.848 130.059 81.36ZM134.443 89.792V90.864H124.779V86.256H126.091V89.792H134.443ZM142.954 78.064C141.77 78.064 140.858 78.1973 140.218 78.464C139.578 78.72 139.258 79.088 139.258 79.568C139.258 80.048 139.578 80.4213 140.218 80.688C140.858 80.944 141.77 81.072 142.954 81.072C144.138 81.072 145.05 80.944 145.69 80.688C146.33 80.4213 146.65 80.048 146.65 79.568C146.65 79.088 146.33 78.72 145.69 78.464C145.05 78.1973 144.138 78.064 142.954 78.064ZM142.954 82.048C141.376 82.048 140.138 81.84 139.242 81.424C138.357 80.9973 137.914 80.3787 137.914 79.568C137.914 78.7573 138.357 78.1387 139.242 77.712C140.138 77.2853 141.376 77.072 142.954 77.072C144.533 77.072 145.765 77.2853 146.65 77.712C147.546 78.1387 147.994 78.7573 147.994 79.568C147.994 80.3787 147.546 80.9973 146.65 81.424C145.765 81.84 144.533 82.048 142.954 82.048ZM139.354 90H148.218V91.024H138.074V87.584H146.49V86.304H138.026V85.312H147.786V88.544H139.354V90ZM149.45 83.024V84.08H136.458V83.024H149.45ZM158.515 78.592C158.163 78.592 157.838 78.64 157.539 78.736C157.251 78.8213 157 78.9493 156.787 79.12C156.574 79.28 156.408 79.4773 156.291 79.712C156.174 79.936 156.115 80.1867 156.115 80.464C156.115 80.7413 156.174 80.9973 156.291 81.232C156.408 81.456 156.574 81.6533 156.787 81.824C157 81.984 157.251 82.112 157.539 82.208C157.838 82.2933 158.163 82.336 158.515 82.336C159.219 82.336 159.79 82.1653 160.227 81.824C160.675 81.4827 160.899 81.0293 160.899 80.464C160.899 79.8987 160.675 79.4453 160.227 79.104C159.79 78.7627 159.219 78.592 158.515 78.592ZM158.515 83.408C157.982 83.408 157.491 83.3387 157.043 83.2C156.595 83.0507 156.206 82.848 155.875 82.592C155.555 82.336 155.304 82.0267 155.123 81.664C154.942 81.3013 154.851 80.9013 154.851 80.464C154.851 80.0267 154.942 79.6267 155.123 79.264C155.304 78.9013 155.555 78.592 155.875 78.336C156.206 78.0693 156.595 77.8667 157.043 77.728C157.491 77.5787 157.982 77.504 158.515 77.504C159.048 77.504 159.539 77.5787 159.987 77.728C160.435 77.8667 160.819 78.0693 161.139 78.336C161.459 78.592 161.71 78.9013 161.891 79.264C162.072 79.6267 162.163 80.0267 162.163 80.464C162.163 80.9013 162.072 81.3013 161.891 81.664C161.71 82.0267 161.459 82.336 161.139 82.592C160.819 82.848 160.435 83.0507 159.987 83.2C159.539 83.3387 159.048 83.408 158.515 83.408ZM163.347 85.088C161.992 85.3227 160.622 85.4827 159.235 85.568V90.736H157.923V85.648C157.208 85.68 156.515 85.7013 155.843 85.712C155.182 85.7227 154.552 85.728 153.955 85.728L153.779 84.624C154.451 84.624 155.171 84.6187 155.939 84.608C156.718 84.5973 157.512 84.576 158.323 84.544C159.144 84.512 159.971 84.464 160.803 84.4C161.635 84.3253 162.446 84.2293 163.235 84.112L163.347 85.088ZM165.587 76.848V91.2H164.275V76.848H165.587ZM171.602 86.768C171.879 86.768 172.135 86.7147 172.37 86.608C172.605 86.5013 172.802 86.352 172.962 86.16C173.133 85.9573 173.266 85.7227 173.362 85.456C173.458 85.1893 173.506 84.896 173.506 84.576C173.506 84.2667 173.458 83.9787 173.362 83.712C173.266 83.4453 173.133 83.216 172.962 83.024C172.802 82.832 172.605 82.6827 172.37 82.576C172.135 82.4693 171.879 82.416 171.602 82.416C171.037 82.416 170.578 82.6187 170.226 83.024C169.874 83.4293 169.698 83.9467 169.698 84.576C169.698 84.896 169.741 85.1893 169.826 85.456C169.922 85.7227 170.055 85.9573 170.226 86.16C170.397 86.352 170.599 86.5013 170.834 86.608C171.069 86.7147 171.325 86.768 171.602 86.768ZM171.602 81.312C172.05 81.312 172.461 81.392 172.834 81.552C173.207 81.712 173.527 81.936 173.794 82.224C174.071 82.512 174.285 82.8587 174.434 83.264C174.594 83.6587 174.674 84.096 174.674 84.576C174.674 85.0667 174.594 85.5147 174.434 85.92C174.285 86.3147 174.071 86.656 173.794 86.944C173.527 87.232 173.207 87.456 172.834 87.616C172.461 87.776 172.05 87.856 171.602 87.856C171.154 87.856 170.743 87.776 170.37 87.616C169.997 87.456 169.671 87.232 169.394 86.944C169.127 86.656 168.914 86.3147 168.754 85.92C168.605 85.5147 168.53 85.0667 168.53 84.576C168.53 84.096 168.605 83.6587 168.754 83.264C168.914 82.8587 169.127 82.512 169.394 82.224C169.671 81.936 169.997 81.712 170.37 81.552C170.743 81.392 171.154 81.312 171.602 81.312ZM172.242 79.28H175.154V80.352H168.034V79.28H170.946V77.248H172.242V79.28ZM180.21 76.816V91.168H178.946V83.952H177.106V90.48H175.874V77.152H177.106V82.88H178.946V76.816H180.21ZM9.36 104.408H0.896V103.352H4.464V101.752H5.776V103.352H9.36V104.408ZM2.944 107.752C2.944 108.232 3.14133 108.616 3.536 108.904C3.93067 109.181 4.45867 109.32 5.12 109.32C5.78133 109.32 6.30933 109.176 6.704 108.888C7.10933 108.6 7.312 108.216 7.312 107.736C7.312 107.256 7.10933 106.877 6.704 106.6C6.30933 106.312 5.78133 106.168 5.12 106.168C4.45867 106.168 3.93067 106.312 3.536 106.6C3.14133 106.888 2.944 107.272 2.944 107.752ZM8.56 107.752C8.56 108.147 8.47467 108.504 8.304 108.824C8.144 109.133 7.90933 109.4 7.6 109.624C7.30133 109.848 6.93867 110.024 6.512 110.152C6.096 110.269 5.632 110.328 5.12 110.328C4.608 110.328 4.144 110.269 3.728 110.152C3.312 110.024 2.94933 109.848 2.64 109.624C2.34133 109.4 2.10667 109.128 1.936 108.808C1.776 108.488 1.696 108.131 1.696 107.736C1.696 107.341 1.776 106.984 1.936 106.664C2.10667 106.344 2.34133 106.072 2.64 105.848C2.94933 105.624 3.312 105.453 3.728 105.336C4.144 105.208 4.608 105.144 5.12 105.144C5.632 105.144 6.096 105.208 6.512 105.336C6.93867 105.453 7.30133 105.629 7.6 105.864C7.90933 106.088 8.144 106.36 8.304 106.68C8.47467 107 8.56 107.357 8.56 107.752ZM2.672 111.592H11.984V116.2H10.672V112.664H2.672V111.592ZM14.112 106.888H11.984V110.808H10.672V101.848H11.984V105.8H14.112V106.888ZM25.2308 104.344H16.4308V103.272H26.5428V104.856C26.5428 105.315 26.5374 105.779 26.5268 106.248C26.5268 106.717 26.5108 107.213 26.4788 107.736C26.4468 108.248 26.3934 108.792 26.3188 109.368C26.2548 109.944 26.1588 110.568 26.0308 111.24L24.7348 111.08C24.9801 109.8 25.1241 108.664 25.1668 107.672C25.2094 106.68 25.2308 105.741 25.2308 104.856V104.344ZM28.0628 113.096V114.168H15.0868V113.096H18.2708V108.344H19.5668V113.096H21.8228V108.344H23.1188V113.096H28.0628ZM44.1676 101.832V116.216H42.8556V101.832H44.1676ZM36.5996 102.936C37.133 102.936 37.6236 103.053 38.0716 103.288C38.5196 103.523 38.9036 103.859 39.2236 104.296C39.5436 104.733 39.7943 105.261 39.9756 105.88C40.157 106.488 40.2476 107.176 40.2476 107.944C40.2476 108.712 40.157 109.405 39.9756 110.024C39.7943 110.632 39.5436 111.155 39.2236 111.592C38.9036 112.029 38.5196 112.365 38.0716 112.6C37.6236 112.835 37.133 112.952 36.5996 112.952C36.0663 112.952 35.5756 112.835 35.1276 112.6C34.6796 112.365 34.2956 112.029 33.9756 111.592C33.6556 111.155 33.405 110.632 33.2236 110.024C33.0423 109.405 32.9516 108.712 32.9516 107.944C32.9516 107.176 33.0423 106.488 33.2236 105.88C33.405 105.261 33.6556 104.733 33.9756 104.296C34.2956 103.859 34.6796 103.523 35.1276 103.288C35.5756 103.053 36.0663 102.936 36.5996 102.936ZM36.5996 104.12C36.2476 104.12 35.9223 104.211 35.6236 104.392C35.3356 104.573 35.085 104.829 34.8716 105.16C34.6583 105.491 34.493 105.896 34.3756 106.376C34.2583 106.845 34.1996 107.368 34.1996 107.944C34.1996 108.531 34.2583 109.059 34.3756 109.528C34.493 109.997 34.6583 110.403 34.8716 110.744C35.085 111.075 35.3356 111.331 35.6236 111.512C35.9223 111.693 36.2476 111.784 36.5996 111.784C36.9516 111.784 37.2716 111.693 37.5596 111.512C37.8476 111.331 38.0983 111.075 38.3116 110.744C38.525 110.403 38.6903 109.997 38.8076 109.528C38.925 109.059 38.9836 108.531 38.9836 107.944C38.9836 107.368 38.925 106.845 38.8076 106.376C38.6903 105.896 38.525 105.491 38.3116 105.16C38.0983 104.829 37.8476 104.573 37.5596 104.392C37.2716 104.211 36.9516 104.12 36.5996 104.12ZM51.4144 104.536H48.4064V111.288H51.4144V104.536ZM54.7584 102.152H56.0064V115.464H54.7584V108.328H52.6304V112.328H47.1744V103.496H52.6304V107.24H54.7584V102.152ZM58.8544 101.832V116.168H57.6064V101.832H58.8544ZM72.6771 109.192H71.3651V101.832H72.6771V109.192ZM62.5011 105.544C62.5011 105.853 62.5598 106.136 62.6771 106.392C62.8051 106.648 62.9758 106.872 63.1891 107.064C63.4131 107.245 63.6691 107.389 63.9571 107.496C64.2558 107.603 64.5811 107.656 64.9331 107.656C65.2851 107.656 65.6105 107.603 65.9091 107.496C66.2078 107.389 66.4638 107.245 66.6771 107.064C66.8905 106.872 67.0558 106.648 67.1731 106.392C67.3011 106.136 67.3651 105.853 67.3651 105.544C67.3651 105.235 67.3011 104.952 67.1731 104.696C67.0558 104.429 66.8905 104.205 66.6771 104.024C66.4638 103.832 66.2078 103.683 65.9091 103.576C65.6105 103.469 65.2851 103.416 64.9331 103.416C64.5811 103.416 64.2558 103.469 63.9571 103.576C63.6691 103.683 63.4131 103.832 63.1891 104.024C62.9758 104.205 62.8051 104.429 62.6771 104.696C62.5598 104.952 62.5011 105.235 62.5011 105.544ZM68.6451 105.544C68.6451 106.013 68.5491 106.445 68.3571 106.84C68.1758 107.224 67.9198 107.555 67.5891 107.832C67.2585 108.109 66.8638 108.328 66.4051 108.488C65.9571 108.637 65.4665 108.712 64.9331 108.712C64.3998 108.712 63.9038 108.637 63.4451 108.488C62.9971 108.328 62.6078 108.109 62.2771 107.832C61.9465 107.555 61.6905 107.224 61.5091 106.84C61.3278 106.445 61.2371 106.013 61.2371 105.544C61.2371 105.064 61.3278 104.632 61.5091 104.248C61.6905 103.853 61.9465 103.517 62.2771 103.24C62.6078 102.952 62.9971 102.733 63.4451 102.584C63.9038 102.424 64.3998 102.344 64.9331 102.344C65.4665 102.344 65.9571 102.424 66.4051 102.584C66.8638 102.733 67.2585 102.952 67.5891 103.24C67.9198 103.517 68.1758 103.853 68.3571 104.248C68.5491 104.632 68.6451 105.064 68.6451 105.544ZM73.1571 114.952V115.992H63.4131V112.392H71.3811V110.936H63.3811V109.896H72.6771V113.368H64.7091V114.952H73.1571ZM88.1639 113.336V114.408H75.1239V113.336H80.9639V110.632H76.7559V106.2H85.2679V103.96H76.7239V102.888H86.5479V107.256H78.0519V109.576H86.8839V110.632H82.2919V113.336H88.1639ZM104.253 112.328H102.941V101.848H104.253V112.328ZM94.0928 106.36C94.0928 106.712 94.1514 107.037 94.2688 107.336C94.3968 107.635 94.5674 107.891 94.7808 108.104C95.0048 108.317 95.2661 108.483 95.5648 108.6C95.8634 108.717 96.1888 108.776 96.5408 108.776C96.8928 108.776 97.2181 108.717 97.5168 108.6C97.8261 108.483 98.0928 108.317 98.3168 108.104C98.5408 107.891 98.7114 107.635 98.8288 107.336C98.9568 107.037 99.0208 106.712 99.0208 106.36C99.0208 106.008 98.9568 105.688 98.8288 105.4C98.7114 105.112 98.5408 104.861 98.3168 104.648C98.0928 104.435 97.8261 104.269 97.5168 104.152C97.2181 104.035 96.8928 103.976 96.5408 103.976C96.1888 103.976 95.8634 104.035 95.5648 104.152C95.2661 104.269 95.0048 104.435 94.7808 104.648C94.5674 104.861 94.3968 105.112 94.2688 105.4C94.1514 105.688 94.0928 106.008 94.0928 106.36ZM100.301 106.36C100.301 106.883 100.205 107.363 100.013 107.8C99.8208 108.227 99.5541 108.6 99.2128 108.92C98.8821 109.229 98.4874 109.475 98.0288 109.656C97.5701 109.827 97.0741 109.912 96.5408 109.912C96.0074 109.912 95.5114 109.827 95.0528 109.656C94.6048 109.475 94.2101 109.229 93.8688 108.92C93.5381 108.6 93.2768 108.227 93.0848 107.8C92.9034 107.363 92.8128 106.883 92.8128 106.36C92.8128 105.848 92.9034 105.379 93.0848 104.952C93.2768 104.515 93.5381 104.141 93.8688 103.832C94.2101 103.512 94.6048 103.267 95.0528 103.096C95.5114 102.925 96.0074 102.84 96.5408 102.84C97.0741 102.84 97.5701 102.925 98.0288 103.096C98.4874 103.267 98.8821 103.512 99.2128 103.832C99.5541 104.141 99.8208 104.515 100.013 104.952C100.205 105.379 100.301 105.848 100.301 106.36ZM104.685 114.792V115.864H95.0208V111.256H96.3328V114.792H104.685ZM107.452 106.744C108.092 106.68 108.7 106.557 109.276 106.376C109.862 106.184 110.38 105.955 110.828 105.688C111.286 105.411 111.649 105.101 111.916 104.76C112.193 104.408 112.342 104.029 112.364 103.624H107.916V102.568H118.524V103.624H114.06C114.07 104.029 114.214 104.408 114.492 104.76C114.769 105.101 115.132 105.411 115.58 105.688C116.038 105.955 116.556 106.184 117.132 106.376C117.718 106.557 118.332 106.68 118.972 106.744L118.508 107.784C117.921 107.709 117.35 107.592 116.796 107.432C116.241 107.272 115.729 107.069 115.26 106.824C114.801 106.568 114.39 106.28 114.028 105.96C113.676 105.64 113.404 105.283 113.212 104.888C113.009 105.283 112.726 105.64 112.364 105.96C112.012 106.28 111.601 106.568 111.132 106.824C110.673 107.069 110.166 107.272 109.612 107.432C109.068 107.592 108.502 107.709 107.916 107.784L107.452 106.744ZM113.196 115.128C114.326 115.128 115.206 114.995 115.836 114.728C116.465 114.461 116.78 114.072 116.78 113.56C116.78 113.059 116.465 112.675 115.836 112.408C115.206 112.131 114.326 111.992 113.196 111.992C112.065 111.992 111.185 112.131 110.556 112.408C109.926 112.675 109.612 113.059 109.612 113.56C109.612 114.072 109.926 114.461 110.556 114.728C111.185 114.995 112.065 115.128 113.196 115.128ZM113.196 110.968C113.964 110.968 114.646 111.027 115.244 111.144C115.852 111.251 116.369 111.416 116.796 111.64C117.222 111.864 117.548 112.136 117.772 112.456C117.996 112.776 118.108 113.144 118.108 113.56C118.108 113.976 117.996 114.349 117.772 114.68C117.548 115 117.222 115.272 116.796 115.496C116.369 115.72 115.852 115.885 115.244 115.992C114.646 116.109 113.964 116.168 113.196 116.168C111.66 116.168 110.454 115.944 109.58 115.496C108.716 115.048 108.284 114.403 108.284 113.56C108.284 112.728 108.716 112.088 109.58 111.64C110.454 111.192 111.66 110.968 113.196 110.968ZM119.692 108.664V109.72H106.716V108.664H119.692ZM128.804 104.536H125.796V111.288H128.804V104.536ZM132.148 102.152H133.396V115.464H132.148V108.328H130.02V112.328H124.564V103.496H130.02V107.24H132.148V102.152ZM136.244 101.832V116.168H134.996V101.832H136.244ZM150.067 109.192H148.755V101.832H150.067V109.192ZM139.891 105.544C139.891 105.853 139.95 106.136 140.067 106.392C140.195 106.648 140.366 106.872 140.579 107.064C140.803 107.245 141.059 107.389 141.347 107.496C141.646 107.603 141.971 107.656 142.323 107.656C142.675 107.656 143 107.603 143.299 107.496C143.598 107.389 143.854 107.245 144.067 107.064C144.28 106.872 144.446 106.648 144.563 106.392C144.691 106.136 144.755 105.853 144.755 105.544C144.755 105.235 144.691 104.952 144.563 104.696C144.446 104.429 144.28 104.205 144.067 104.024C143.854 103.832 143.598 103.683 143.299 103.576C143 103.469 142.675 103.416 142.323 103.416C141.971 103.416 141.646 103.469 141.347 103.576C141.059 103.683 140.803 103.832 140.579 104.024C140.366 104.205 140.195 104.429 140.067 104.696C139.95 104.952 139.891 105.235 139.891 105.544ZM146.035 105.544C146.035 106.013 145.939 106.445 145.747 106.84C145.566 107.224 145.31 107.555 144.979 107.832C144.648 108.109 144.254 108.328 143.795 108.488C143.347 108.637 142.856 108.712 142.323 108.712C141.79 108.712 141.294 108.637 140.835 108.488C140.387 108.328 139.998 108.109 139.667 107.832C139.336 107.555 139.08 107.224 138.899 106.84C138.718 106.445 138.627 106.013 138.627 105.544C138.627 105.064 138.718 104.632 138.899 104.248C139.08 103.853 139.336 103.517 139.667 103.24C139.998 102.952 140.387 102.733 140.835 102.584C141.294 102.424 141.79 102.344 142.323 102.344C142.856 102.344 143.347 102.424 143.795 102.584C144.254 102.733 144.648 102.952 144.979 103.24C145.31 103.517 145.566 103.853 145.747 104.248C145.939 104.632 146.035 105.064 146.035 105.544ZM150.547 114.952V115.992H140.803V112.392H148.771V110.936H140.771V109.896H150.067V113.368H142.099V114.952H150.547ZM159.01 103.064C157.826 103.064 156.914 103.197 156.274 103.464C155.634 103.72 155.314 104.088 155.314 104.568C155.314 105.048 155.634 105.421 156.274 105.688C156.914 105.944 157.826 106.072 159.01 106.072C160.194 106.072 161.106 105.944 161.746 105.688C162.386 105.421 162.706 105.048 162.706 104.568C162.706 104.088 162.386 103.72 161.746 103.464C161.106 103.197 160.194 103.064 159.01 103.064ZM159.01 107.048C157.431 107.048 156.194 106.84 155.298 106.424C154.413 105.997 153.97 105.379 153.97 104.568C153.97 103.757 154.413 103.139 155.298 102.712C156.194 102.285 157.431 102.072 159.01 102.072C160.589 102.072 161.821 102.285 162.706 102.712C163.602 103.139 164.05 103.757 164.05 104.568C164.05 105.379 163.602 105.997 162.706 106.424C161.821 106.84 160.589 107.048 159.01 107.048ZM155.41 115H164.274V116.024H154.13V112.584H162.546V111.304H154.082V110.312H163.842V113.544H155.41V115ZM165.506 108.024V109.08H152.514V108.024H165.506ZM180.363 105.8V101.848H181.691V112.36H180.363V106.872H177.483V105.8H180.363ZM177.675 110.2C176.875 109.912 176.176 109.485 175.579 108.92C174.981 108.344 174.528 107.688 174.219 106.952C173.909 107.773 173.44 108.499 172.811 109.128C172.181 109.747 171.445 110.211 170.603 110.52L169.915 109.496C170.448 109.304 170.933 109.048 171.371 108.728C171.819 108.397 172.203 108.029 172.523 107.624C172.843 107.208 173.088 106.76 173.259 106.28C173.44 105.8 173.531 105.304 173.531 104.792V104.072H170.331V103H177.995V104.072H174.843V104.776C174.843 105.245 174.928 105.704 175.099 106.152C175.269 106.6 175.504 107.016 175.803 107.4C176.112 107.784 176.48 108.131 176.907 108.44C177.333 108.749 177.808 108.995 178.331 109.176L177.675 110.2ZM182.091 114.792V115.864H172.507V111.432H173.835V114.792H182.091ZM195.802 107.592C195.258 107.496 194.719 107.357 194.186 107.176C193.663 106.995 193.172 106.771 192.714 106.504C192.255 106.237 191.839 105.933 191.466 105.592C191.103 105.24 190.81 104.861 190.586 104.456C190.362 104.861 190.068 105.24 189.706 105.592C189.343 105.933 188.932 106.237 188.474 106.504C188.015 106.771 187.519 106.995 186.986 107.176C186.463 107.357 185.93 107.496 185.386 107.592L184.89 106.552C185.53 106.467 186.148 106.307 186.746 106.072C187.354 105.837 187.892 105.549 188.362 105.208C188.831 104.867 189.204 104.483 189.482 104.056C189.77 103.629 189.914 103.176 189.914 102.696V102.056H191.258V102.696C191.258 103.176 191.396 103.629 191.674 104.056C191.962 104.483 192.34 104.867 192.81 105.208C193.29 105.549 193.828 105.837 194.426 106.072C195.034 106.307 195.658 106.467 196.298 106.552L195.802 107.592ZM190.586 115.16C191.727 115.16 192.607 115.037 193.226 114.792C193.855 114.536 194.17 114.168 194.17 113.688C194.17 113.208 193.855 112.845 193.226 112.6C192.607 112.344 191.727 112.216 190.586 112.216C189.444 112.216 188.559 112.344 187.93 112.6C187.311 112.845 187.002 113.208 187.002 113.688C187.002 114.168 187.311 114.536 187.93 114.792C188.559 115.037 189.444 115.16 190.586 115.16ZM190.586 111.208C192.122 111.208 193.322 111.421 194.186 111.848C195.06 112.275 195.498 112.888 195.498 113.688C195.498 114.488 195.06 115.101 194.186 115.528C193.322 115.955 192.122 116.168 190.586 116.168C189.05 116.168 187.844 115.955 186.97 115.528C186.106 115.101 185.674 114.488 185.674 113.688C185.674 112.888 186.106 112.275 186.97 111.848C187.844 111.421 189.05 111.208 190.586 111.208ZM197.082 108.952V110.008H184.106V108.952H189.93V106.84H191.242V108.952H197.082ZM206.856 104.36H198.392V103.304H201.96V101.688H203.272V103.304H206.856V104.36ZM200.44 107.544C200.44 108.024 200.638 108.397 201.032 108.664C201.427 108.931 201.955 109.064 202.616 109.064C203.278 109.064 203.806 108.931 204.2 108.664C204.606 108.397 204.808 108.024 204.808 107.544C204.808 107.075 204.606 106.707 204.2 106.44C203.806 106.163 203.278 106.024 202.616 106.024C201.955 106.024 201.427 106.163 201.032 106.44C200.638 106.707 200.44 107.075 200.44 107.544ZM206.056 107.544C206.056 107.928 205.971 108.275 205.8 108.584C205.64 108.893 205.406 109.16 205.096 109.384C204.798 109.597 204.435 109.763 204.008 109.88C203.592 109.997 203.128 110.056 202.616 110.056C202.104 110.056 201.635 109.997 201.208 109.88C200.792 109.763 200.435 109.597 200.136 109.384C199.838 109.16 199.603 108.893 199.432 108.584C199.272 108.275 199.192 107.928 199.192 107.544C199.192 107.16 199.272 106.819 199.432 106.52C199.603 106.211 199.838 105.949 200.136 105.736C200.435 105.512 200.792 105.341 201.208 105.224C201.635 105.107 202.104 105.048 202.616 105.048C203.128 105.048 203.592 105.107 204.008 105.224C204.435 105.341 204.798 105.512 205.096 105.736C205.406 105.949 205.64 106.211 205.8 106.52C205.971 106.819 206.056 107.16 206.056 107.544ZM208.184 113.352H201.752V114.936H208.184V113.352ZM208.184 110.808H209.48V115.992H200.456V110.808H201.752V112.328H208.184V110.808ZM211.608 106.584H209.48V110.168H208.168V101.832H209.48V105.48H211.608V106.584ZM214.791 111.352C215.879 111.352 216.978 111.304 218.087 111.208C219.207 111.101 220.364 110.925 221.559 110.68L221.703 111.8C220.444 112.056 219.244 112.232 218.103 112.328C216.962 112.424 215.815 112.472 214.663 112.472H213.479V103.224H214.791V111.352ZM224.343 101.832V116.168H223.031V101.832H224.343ZM228.742 111.512C229.382 111.512 229.979 111.507 230.534 111.496C231.088 111.475 231.627 111.448 232.15 111.416C232.672 111.373 233.179 111.325 233.67 111.272C234.171 111.208 234.683 111.128 235.206 111.032L235.35 112.12C234.806 112.227 234.272 112.312 233.75 112.376C233.227 112.44 232.694 112.493 232.15 112.536C231.606 112.568 231.04 112.595 230.454 112.616C229.867 112.627 229.238 112.632 228.566 112.632H227.43V103.208H234.102V104.296H228.742V111.512ZM240.23 108.584H237.862V116.216H236.55V101.832H237.862V107.496H240.23V108.584ZM242.436 115.208C242.148 115.208 241.898 115.107 241.684 114.904C241.482 114.701 241.38 114.435 241.38 114.104C241.38 113.773 241.482 113.501 241.684 113.288C241.898 113.075 242.148 112.968 242.436 112.968C242.724 112.968 242.97 113.075 243.172 113.288C243.386 113.501 243.492 113.773 243.492 114.104C243.492 114.435 243.386 114.701 243.172 114.904C242.97 115.107 242.724 115.208 242.436 115.208Z" fill="black"/>
<path d="M21.06 18.6H1.548V14.856H8.892V11.76H13.68V14.856H21.06V18.6ZM7.704 25.728C7.704 26.568 8.028 27.204 8.676 27.636C9.348 28.044 10.224 28.248 11.304 28.248C12.384 28.248 13.248 28.044 13.896 27.636C14.568 27.204 14.904 26.568 14.904 25.728C14.904 24.888 14.568 24.264 13.896 23.856C13.248 23.448 12.384 23.244 11.304 23.244C10.224 23.244 9.348 23.448 8.676 23.856C8.028 24.264 7.704 24.888 7.704 25.728ZM19.44 25.728C19.44 26.64 19.236 27.468 18.828 28.212C18.444 28.956 17.892 29.604 17.172 30.156C16.452 30.684 15.588 31.104 14.58 31.416C13.596 31.704 12.504 31.848 11.304 31.848C10.104 31.848 9 31.704 7.992 31.416C7.008 31.104 6.156 30.684 5.436 30.156C4.716 29.604 4.152 28.956 3.744 28.212C3.36 27.468 3.168 26.64 3.168 25.728C3.168 24.84 3.36 24.024 3.744 23.28C4.152 22.512 4.716 21.864 5.436 21.336C6.156 20.808 7.008 20.4 7.992 20.112C9 19.8 10.104 19.644 11.304 19.644C12.504 19.644 13.596 19.8 14.58 20.112C15.588 20.4 16.452 20.808 17.172 21.336C17.892 21.864 18.444 22.512 18.828 23.28C19.236 24.024 19.44 24.84 19.44 25.728ZM5.544 34.08H27.648V45.132H22.896V37.896H5.544V34.08ZM32.04 24.396H27.648V32.712H22.896V11.94H27.648V20.472H32.04V24.396ZM54.7532 31.164H50.3252V12.552H54.7532V20.004H57.3452V11.94H61.8452V32.208H57.3452V23.82H54.7532V31.164ZM47.7692 30.264C46.4012 29.712 45.2372 28.968 44.2772 28.032C43.3172 27.096 42.5372 26.028 41.9372 24.828C41.3372 26.244 40.5212 27.516 39.4892 28.644C38.4572 29.772 37.1732 30.66 35.6372 31.308L33.1172 27.636C34.2692 27.132 35.2532 26.508 36.0692 25.764C36.8852 25.02 37.5452 24.216 38.0492 23.352C38.5772 22.488 38.9612 21.576 39.2012 20.616C39.4412 19.656 39.5612 18.708 39.5612 17.772V13.92H44.1332V17.772C44.1332 18.66 44.2412 19.548 44.4572 20.436C44.6972 21.3 45.0692 22.128 45.5732 22.92C46.0772 23.688 46.7132 24.396 47.4812 25.044C48.2732 25.692 49.2092 26.232 50.2892 26.664L47.7692 30.264ZM50.6132 41.532C52.7492 41.532 54.3812 41.316 55.5092 40.884C56.6612 40.452 57.2372 39.792 57.2372 38.904C57.2372 38.016 56.6612 37.356 55.5092 36.924C54.3812 36.492 52.7492 36.276 50.6132 36.276C48.4292 36.276 46.7612 36.492 45.6092 36.924C44.4812 37.356 43.9172 38.016 43.9172 38.904C43.9172 39.792 44.4812 40.452 45.6092 40.884C46.7612 41.316 48.4292 41.532 50.6132 41.532ZM50.6132 32.712C52.3412 32.712 53.9012 32.856 55.2932 33.144C56.7092 33.432 57.9092 33.84 58.8932 34.368C59.9012 34.896 60.6692 35.544 61.1972 36.312C61.7252 37.08 61.9892 37.944 61.9892 38.904C61.9892 39.888 61.7252 40.764 61.1972 41.532C60.6692 42.3 59.9012 42.948 58.8932 43.476C57.9092 44.004 56.7092 44.412 55.2932 44.7C53.9012 44.988 52.3412 45.132 50.6132 45.132C48.8612 45.132 47.2772 44.988 45.8612 44.7C44.4692 44.412 43.2692 44.004 42.2612 43.476C41.2772 42.948 40.5092 42.3 39.9572 41.532C39.4292 40.764 39.1652 39.888 39.1652 38.904C39.1652 37.944 39.4292 37.08 39.9572 36.312C40.5092 35.544 41.2772 34.896 42.2612 34.368C43.2692 33.84 44.4692 33.432 45.8612 33.144C47.2772 32.856 48.8612 32.712 50.6132 32.712ZM100.239 35.772H95.4506V11.976H100.239V35.772ZM77.8106 22.488C77.8106 23.832 78.2306 24.888 79.0706 25.656C79.9346 26.4 80.9786 26.772 82.2026 26.772C83.4506 26.772 84.4826 26.4 85.2986 25.656C86.1386 24.888 86.5586 23.832 86.5586 22.488C86.5586 21.12 86.1386 20.064 85.2986 19.32C84.4826 18.552 83.4506 18.168 82.2026 18.168C80.9786 18.168 79.9346 18.552 79.0706 19.32C78.2306 20.064 77.8106 21.12 77.8106 22.488ZM91.2026 22.488C91.2026 23.688 90.9746 24.804 90.5186 25.836C90.0626 26.868 89.4266 27.756 88.6106 28.5C87.7946 29.244 86.8346 29.832 85.7306 30.264C84.6506 30.672 83.4746 30.876 82.2026 30.876C80.9306 30.876 79.7426 30.672 78.6386 30.264C77.5346 29.832 76.5746 29.244 75.7586 28.5C74.9666 27.756 74.3306 26.868 73.8506 25.836C73.3946 24.804 73.1666 23.688 73.1666 22.488C73.1666 21.264 73.3946 20.136 73.8506 19.104C74.3306 18.072 74.9666 17.184 75.7586 16.44C76.5746 15.696 77.5346 15.12 78.6386 14.712C79.7426 14.28 80.9306 14.064 82.2026 14.064C83.4746 14.064 84.6506 14.28 85.7306 14.712C86.8346 15.12 87.7946 15.696 88.6106 16.44C89.4266 17.184 90.0626 18.072 90.5186 19.104C90.9746 20.136 91.2026 21.264 91.2026 22.488ZM101.067 40.74V44.52H78.1706V33.432H82.9226V40.74H101.067ZM106.032 22.272C107.592 22.128 108.972 21.9 110.172 21.588C111.372 21.252 112.392 20.868 113.232 20.436C114.072 19.98 114.744 19.488 115.248 18.96C115.752 18.408 116.1 17.844 116.292 17.268H107.472V13.488H131.988V17.268H123.132C123.324 17.844 123.672 18.408 124.176 18.96C124.68 19.488 125.352 19.98 126.192 20.436C127.032 20.868 128.052 21.252 129.252 21.588C130.452 21.9 131.844 22.128 133.428 22.272L131.772 25.98C128.628 25.692 126.048 25.008 124.032 23.928C122.016 22.848 120.576 21.516 119.712 19.932C118.824 21.516 117.372 22.848 115.356 23.928C113.34 25.008 110.76 25.692 107.616 25.98L106.032 22.272ZM119.64 41.46C124.104 41.46 126.336 40.62 126.336 38.94C126.336 38.076 125.772 37.452 124.644 37.068C123.54 36.66 121.872 36.456 119.64 36.456C117.408 36.456 115.728 36.66 114.6 37.068C113.496 37.452 112.944 38.076 112.944 38.94C112.944 40.62 115.176 41.46 119.64 41.46ZM119.64 32.784C121.44 32.784 123.048 32.928 124.464 33.216C125.88 33.48 127.08 33.876 128.064 34.404C129.072 34.932 129.84 35.58 130.368 36.348C130.896 37.116 131.16 37.98 131.16 38.94C131.16 39.924 130.896 40.8 130.368 41.568C129.84 42.336 129.072 42.984 128.064 43.512C127.08 44.04 125.88 44.436 124.464 44.7C123.048 44.988 121.44 45.132 119.64 45.132C117.84 45.132 116.232 44.988 114.816 44.7C113.4 44.436 112.2 44.04 111.216 43.512C110.232 42.984 109.476 42.336 108.948 41.568C108.42 40.8 108.156 39.924 108.156 38.94C108.156 37.98 108.42 37.116 108.948 36.348C109.476 35.58 110.232 34.932 111.216 34.404C112.2 33.876 113.4 33.48 114.816 33.216C116.232 32.928 117.84 32.784 119.64 32.784ZM134.688 27.24V30.984H104.736V27.24H134.688Z" fill="black"/>
<rect y="35" width="130" height="10" fill="#00B1EA" fill-opacity="0.3"/>
</svg>
